<svg width="6310" height="4354" viewBox="0 0 6310 4354" fill="none" xmlns="http://www.w3.org/2000/svg">
    <g transform="translate(0 -30)">
        <path opacity="0.8"
            d="M1472.92 1603.6C874.326 1995.85 471.249 2400.52 471.249 2400.52L468.4 2400.42L341.351 2195.85L23.4001 1683.9C-15.4391 1621.45 -5.14644 1540 48.4523 1489.93C2117.75 -445.422 4290.56 -51.1609 5225.19 255.164C5298.78 279.234 5343.41 354.194 5329.23 430.301L5208.39 1082.12C5194.77 1155.7 5119.68 1200.17 5048.68 1176.89L5047.34 1176.4C5029.19 1169.59 4827.27 1095.35 4504.86 1035.49C4012.1 939.533 3394.34 904.689 2723.93 1066.92C2325.12 1160.12 1906.12 1322.95 1493.65 1590.07C1490.15 1592.27 1486.6 1594.53 1483.04 1596.75L1479.97 1598.98L1472.92 1603.6Z"
            fill="url(#top_gradient)" />
    </g>
    <defs>
        <linearGradient id="top_gradient" x1="2666" y1="0" x2="2666" y2="1667"
            gradientUnits="userSpaceOnUse">
            <stop stop-opacity="0" />
            <stop offset="1" />
        </linearGradient>
    </defs>
</svg>
