<svg width="1280" height="649" viewBox="0 0 1280 649" fill="none" xmlns="http://www.w3.org/2000/svg">
<g clip-path="url(#clip0_1998_38042)">
<rect width="1280" height="649" fill="#0E0E0F"/>
<mask id="mask0_1998_38042" style="mask-type:alpha" maskUnits="userSpaceOnUse" x="0" y="88" width="847" height="666">
<rect x="0.5" y="88.5" width="846" height="665" fill="url(#paint0_linear_1998_38042)" stroke="#444746"/>
</mask>
<g mask="url(#mask0_1998_38042)">
<g filter="url(#filter0_d_1998_38042)">
<rect x="80.334" y="112.021" width="531.667" height="530.614" rx="9.84568" fill="#1F1F1F" shape-rendering="crispEdges"/>
<rect x="80.334" y="112.021" width="531.667" height="530.614" rx="9.84568" fill="#D1E1FF" fill-opacity="0.05" shape-rendering="crispEdges"/>
<path d="M105.045 153.032C104.325 153.032 103.652 152.912 103.025 152.672C102.399 152.419 101.879 152.059 101.465 151.592C101.065 151.112 100.825 150.532 100.745 149.852L102.365 149.572C102.472 150.106 102.752 150.566 103.205 150.952C103.659 151.339 104.272 151.532 105.045 151.532C105.712 151.532 106.279 151.392 106.745 151.112C107.212 150.819 107.445 150.406 107.445 149.872C107.445 149.552 107.365 149.279 107.205 149.052C107.045 148.812 106.805 148.612 106.485 148.452C106.179 148.292 105.785 148.172 105.305 148.092L104.005 147.852C103.419 147.746 102.892 147.566 102.425 147.312C101.972 147.059 101.612 146.732 101.345 146.332C101.092 145.919 100.965 145.426 100.965 144.852C100.965 144.252 101.139 143.732 101.485 143.292C101.845 142.839 102.319 142.492 102.905 142.252C103.505 141.999 104.159 141.872 104.865 141.872C105.505 141.872 106.099 141.972 106.645 142.172C107.205 142.359 107.672 142.666 108.045 143.092C108.432 143.506 108.672 144.059 108.765 144.752L107.205 144.992C107.072 144.406 106.785 143.992 106.345 143.752C105.919 143.499 105.425 143.372 104.865 143.372C104.252 143.372 103.732 143.506 103.305 143.772C102.879 144.026 102.665 144.379 102.665 144.832C102.665 145.232 102.825 145.559 103.145 145.812C103.465 146.066 103.972 146.266 104.665 146.412L106.145 146.712C107.092 146.899 107.825 147.246 108.345 147.752C108.865 148.246 109.125 148.932 109.125 149.812C109.125 150.466 108.945 151.032 108.585 151.512C108.225 151.992 107.739 152.366 107.125 152.632C106.512 152.899 105.819 153.032 105.045 153.032ZM110.333 142.192H111.993V139.312H113.673V142.192H116.053V143.732H113.673V149.692C113.673 150.199 113.787 150.592 114.013 150.872C114.24 151.152 114.58 151.292 115.033 151.292C115.26 151.292 115.453 151.266 115.613 151.212C115.787 151.159 115.947 151.086 116.093 150.992V152.632C115.92 152.699 115.733 152.752 115.533 152.792C115.333 152.846 115.073 152.872 114.753 152.872C113.927 152.872 113.26 152.626 112.753 152.132C112.247 151.626 111.993 150.926 111.993 150.032V143.732H110.333V142.192ZM121.345 153.032C120.625 153.032 119.992 152.899 119.445 152.632C118.898 152.366 118.472 151.992 118.165 151.512C117.858 151.019 117.705 150.439 117.705 149.772C117.705 149.066 117.885 148.479 118.245 148.012C118.618 147.532 119.105 147.172 119.705 146.932C120.318 146.692 120.978 146.572 121.685 146.572C122.098 146.572 122.478 146.592 122.825 146.632C123.185 146.659 123.525 146.706 123.845 146.772C124.178 146.839 124.498 146.926 124.805 147.032V145.872C124.805 145.112 124.552 144.512 124.045 144.072C123.538 143.619 122.892 143.392 122.105 143.392C121.412 143.392 120.838 143.552 120.385 143.872C119.932 144.179 119.618 144.639 119.445 145.252L117.925 144.872C118.045 144.246 118.298 143.712 118.685 143.272C119.072 142.819 119.558 142.472 120.145 142.232C120.745 141.992 121.398 141.872 122.105 141.872C123.478 141.872 124.538 142.219 125.285 142.912C126.045 143.606 126.425 144.579 126.425 145.832V152.712H124.805V151.332H124.725C124.538 151.599 124.292 151.866 123.985 152.132C123.678 152.399 123.305 152.612 122.865 152.772C122.438 152.946 121.932 153.032 121.345 153.032ZM121.645 151.552C122.258 151.552 122.798 151.419 123.265 151.152C123.745 150.886 124.118 150.519 124.385 150.052C124.665 149.572 124.805 149.039 124.805 148.452C124.312 148.266 123.838 148.132 123.385 148.052C122.932 147.972 122.465 147.932 121.985 147.932C121.225 147.932 120.605 148.079 120.125 148.372C119.658 148.652 119.425 149.119 119.425 149.772C119.425 150.306 119.632 150.739 120.045 151.072C120.472 151.392 121.005 151.552 121.645 151.552ZM133.202 153.032C132.255 153.032 131.429 152.799 130.722 152.332C130.015 151.852 129.469 151.192 129.082 150.352C128.695 149.512 128.502 148.546 128.502 147.452C128.502 146.346 128.695 145.379 129.082 144.552C129.469 143.712 130.009 143.059 130.702 142.592C131.409 142.112 132.235 141.872 133.182 141.872C133.715 141.872 134.202 141.959 134.642 142.132C135.082 142.292 135.462 142.506 135.782 142.772C136.102 143.039 136.349 143.326 136.522 143.632H136.602L136.522 142.192V137.192H138.202V152.712H136.602V151.232H136.522C136.349 151.539 136.102 151.832 135.782 152.112C135.462 152.392 135.082 152.612 134.642 152.772C134.215 152.946 133.735 153.032 133.202 153.032ZM133.382 151.492C134.022 151.492 134.582 151.339 135.062 151.032C135.542 150.726 135.915 150.272 136.182 149.672C136.462 149.059 136.602 148.319 136.602 147.452C136.602 146.572 136.462 145.832 136.182 145.232C135.915 144.632 135.542 144.179 135.062 143.872C134.582 143.566 134.022 143.412 133.382 143.412C132.755 143.412 132.195 143.566 131.702 143.872C131.222 144.179 130.849 144.632 130.582 145.232C130.315 145.832 130.182 146.572 130.182 147.452C130.182 148.319 130.315 149.059 130.582 149.672C130.849 150.272 131.222 150.726 131.702 151.032C132.195 151.339 132.755 151.492 133.382 151.492ZM141.094 152.712V142.192H142.774V152.712H141.094ZM141.934 139.632C141.601 139.632 141.314 139.512 141.074 139.272C140.834 139.032 140.714 138.746 140.714 138.412C140.714 138.066 140.834 137.779 141.074 137.552C141.314 137.312 141.601 137.192 141.934 137.192C142.281 137.192 142.568 137.312 142.794 137.552C143.034 137.779 143.154 138.066 143.154 138.412C143.154 138.746 143.034 139.032 142.794 139.272C142.568 139.512 142.281 139.632 141.934 139.632ZM148.747 153.032C148.027 153.032 147.394 152.899 146.847 152.632C146.301 152.366 145.874 151.992 145.567 151.512C145.261 151.019 145.107 150.439 145.107 149.772C145.107 149.066 145.287 148.479 145.647 148.012C146.021 147.532 146.507 147.172 147.107 146.932C147.721 146.692 148.381 146.572 149.087 146.572C149.501 146.572 149.881 146.592 150.227 146.632C150.587 146.659 150.927 146.706 151.247 146.772C151.581 146.839 151.901 146.926 152.207 147.032V145.872C152.207 145.112 151.954 144.512 151.447 144.072C150.941 143.619 150.294 143.392 149.507 143.392C148.814 143.392 148.241 143.552 147.787 143.872C147.334 144.179 147.021 144.639 146.847 145.252L145.327 144.872C145.447 144.246 145.701 143.712 146.087 143.272C146.474 142.819 146.961 142.472 147.547 142.232C148.147 141.992 148.801 141.872 149.507 141.872C150.881 141.872 151.941 142.219 152.687 142.912C153.447 143.606 153.827 144.579 153.827 145.832V152.712H152.207V151.332H152.127C151.941 151.599 151.694 151.866 151.387 152.132C151.081 152.399 150.707 152.612 150.267 152.772C149.841 152.946 149.334 153.032 148.747 153.032ZM149.047 151.552C149.661 151.552 150.201 151.419 150.667 151.152C151.147 150.886 151.521 150.519 151.787 150.052C152.067 149.572 152.207 149.039 152.207 148.452C151.714 148.266 151.241 148.132 150.787 148.052C150.334 147.972 149.867 147.932 149.387 147.932C148.627 147.932 148.007 148.079 147.527 148.372C147.061 148.652 146.827 149.119 146.827 149.772C146.827 150.306 147.034 150.739 147.447 151.072C147.874 151.392 148.407 151.552 149.047 151.552ZM157.742 152.832C157.395 152.832 157.095 152.706 156.842 152.452C156.589 152.199 156.462 151.899 156.462 151.552C156.462 151.206 156.589 150.906 156.842 150.652C157.095 150.399 157.395 150.272 157.742 150.272C158.089 150.272 158.389 150.399 158.642 150.652C158.895 150.906 159.022 151.206 159.022 151.552C159.022 151.899 158.895 152.199 158.642 152.452C158.389 152.706 158.089 152.832 157.742 152.832ZM165.998 157.352C165.198 157.352 164.492 157.206 163.878 156.912C163.265 156.632 162.765 156.259 162.378 155.792C161.992 155.326 161.738 154.812 161.618 154.252L163.198 153.852C163.372 154.399 163.692 154.859 164.158 155.232C164.625 155.619 165.238 155.812 165.998 155.812C167.038 155.812 167.812 155.499 168.318 154.872C168.838 154.259 169.098 153.412 169.098 152.332V150.752H169.018C168.698 151.326 168.258 151.786 167.698 152.132C167.138 152.466 166.438 152.632 165.598 152.632C164.798 152.632 164.058 152.426 163.378 152.012C162.712 151.599 162.172 150.992 161.758 150.192C161.358 149.392 161.158 148.412 161.158 147.252C161.158 146.079 161.358 145.099 161.758 144.312C162.172 143.512 162.725 142.906 163.418 142.492C164.112 142.079 164.878 141.872 165.718 141.872C166.478 141.872 167.145 142.039 167.718 142.372C168.292 142.692 168.725 143.106 169.018 143.612H169.098V142.192H170.698V152.352C170.698 153.486 170.492 154.419 170.078 155.152C169.678 155.899 169.125 156.452 168.418 156.812C167.712 157.172 166.905 157.352 165.998 157.352ZM165.978 151.092C166.552 151.092 167.072 150.952 167.538 150.672C168.005 150.392 168.378 149.972 168.658 149.412C168.952 148.839 169.098 148.119 169.098 147.252C169.098 146.386 168.952 145.672 168.658 145.112C168.378 144.539 168.005 144.112 167.538 143.832C167.072 143.552 166.552 143.412 165.978 143.412C165.418 143.412 164.898 143.552 164.418 143.832C163.938 144.112 163.552 144.539 163.258 145.112C162.965 145.672 162.818 146.386 162.818 147.252C162.818 148.119 162.965 148.839 163.258 149.412C163.552 149.972 163.938 150.392 164.418 150.672C164.898 150.952 165.418 151.092 165.978 151.092ZM177.917 153.032C176.89 153.032 175.997 152.799 175.237 152.332C174.49 151.852 173.91 151.192 173.497 150.352C173.084 149.512 172.877 148.546 172.877 147.452C172.877 146.346 173.084 145.379 173.497 144.552C173.91 143.712 174.49 143.059 175.237 142.592C175.997 142.112 176.89 141.872 177.917 141.872C178.944 141.872 179.83 142.112 180.577 142.592C181.324 143.059 181.897 143.712 182.297 144.552C182.71 145.379 182.917 146.346 182.917 147.452C182.917 148.546 182.71 149.512 182.297 150.352C181.897 151.192 181.324 151.852 180.577 152.332C179.83 152.799 178.944 153.032 177.917 153.032ZM177.917 151.492C178.57 151.492 179.144 151.332 179.637 151.012C180.144 150.692 180.537 150.232 180.817 149.632C181.097 149.032 181.237 148.306 181.237 147.452C181.237 146.599 181.097 145.872 180.817 145.272C180.537 144.672 180.144 144.212 179.637 143.892C179.144 143.572 178.57 143.412 177.917 143.412C177.264 143.412 176.684 143.572 176.177 143.892C175.67 144.212 175.27 144.672 174.977 145.272C174.697 145.872 174.557 146.599 174.557 147.452C174.557 148.306 174.697 149.032 174.977 149.632C175.27 150.232 175.67 150.692 176.177 151.012C176.684 151.332 177.264 151.492 177.917 151.492ZM189.636 153.032C188.609 153.032 187.716 152.799 186.956 152.332C186.209 151.852 185.629 151.192 185.216 150.352C184.803 149.512 184.596 148.546 184.596 147.452C184.596 146.346 184.803 145.379 185.216 144.552C185.629 143.712 186.209 143.059 186.956 142.592C187.716 142.112 188.609 141.872 189.636 141.872C190.663 141.872 191.549 142.112 192.296 142.592C193.043 143.059 193.616 143.712 194.016 144.552C194.429 145.379 194.636 146.346 194.636 147.452C194.636 148.546 194.429 149.512 194.016 150.352C193.616 151.192 193.043 151.852 192.296 152.332C191.549 152.799 190.663 153.032 189.636 153.032ZM189.636 151.492C190.289 151.492 190.863 151.332 191.356 151.012C191.863 150.692 192.256 150.232 192.536 149.632C192.816 149.032 192.956 148.306 192.956 147.452C192.956 146.599 192.816 145.872 192.536 145.272C192.256 144.672 191.863 144.212 191.356 143.892C190.863 143.572 190.289 143.412 189.636 143.412C188.983 143.412 188.403 143.572 187.896 143.892C187.389 144.212 186.989 144.672 186.696 145.272C186.416 145.872 186.276 146.599 186.276 147.452C186.276 148.306 186.416 149.032 186.696 149.632C186.989 150.232 187.389 150.692 187.896 151.012C188.403 151.332 188.983 151.492 189.636 151.492ZM201.155 157.352C200.355 157.352 199.648 157.206 199.035 156.912C198.421 156.632 197.921 156.259 197.535 155.792C197.148 155.326 196.895 154.812 196.775 154.252L198.355 153.852C198.528 154.399 198.848 154.859 199.315 155.232C199.781 155.619 200.395 155.812 201.155 155.812C202.195 155.812 202.968 155.499 203.475 154.872C203.995 154.259 204.255 153.412 204.255 152.332V150.752H204.175C203.855 151.326 203.415 151.786 202.855 152.132C202.295 152.466 201.595 152.632 200.755 152.632C199.955 152.632 199.215 152.426 198.535 152.012C197.868 151.599 197.328 150.992 196.915 150.192C196.515 149.392 196.315 148.412 196.315 147.252C196.315 146.079 196.515 145.099 196.915 144.312C197.328 143.512 197.881 142.906 198.575 142.492C199.268 142.079 200.035 141.872 200.875 141.872C201.635 141.872 202.301 142.039 202.875 142.372C203.448 142.692 203.881 143.106 204.175 143.612H204.255V142.192H205.855V152.352C205.855 153.486 205.648 154.419 205.235 155.152C204.835 155.899 204.281 156.452 203.575 156.812C202.868 157.172 202.061 157.352 201.155 157.352ZM201.135 151.092C201.708 151.092 202.228 150.952 202.695 150.672C203.161 150.392 203.535 149.972 203.815 149.412C204.108 148.839 204.255 148.119 204.255 147.252C204.255 146.386 204.108 145.672 203.815 145.112C203.535 144.539 203.161 144.112 202.695 143.832C202.228 143.552 201.708 143.412 201.135 143.412C200.575 143.412 200.055 143.552 199.575 143.832C199.095 144.112 198.708 144.539 198.415 145.112C198.121 145.672 197.975 146.386 197.975 147.252C197.975 148.119 198.121 148.839 198.415 149.412C198.708 149.972 199.095 150.392 199.575 150.672C200.055 150.952 200.575 151.092 201.135 151.092ZM208.751 152.712V137.192H210.431V152.712H208.751ZM217.483 153.032C216.496 153.032 215.636 152.792 214.903 152.312C214.183 151.819 213.623 151.152 213.223 150.312C212.836 149.472 212.643 148.526 212.643 147.472C212.643 146.392 212.843 145.432 213.243 144.592C213.656 143.739 214.223 143.072 214.943 142.592C215.676 142.112 216.516 141.872 217.463 141.872C218.476 141.872 219.329 142.072 220.023 142.472C220.729 142.872 221.269 143.446 221.643 144.192C222.016 144.926 222.203 145.806 222.203 146.832C222.203 147.006 222.196 147.179 222.183 147.352C222.183 147.512 222.176 147.652 222.163 147.772H214.323C214.349 148.492 214.483 149.119 214.723 149.652C214.989 150.252 215.363 150.712 215.843 151.032C216.336 151.339 216.903 151.492 217.543 151.492C218.383 151.492 219.016 151.319 219.443 150.972C219.883 150.612 220.203 150.152 220.403 149.592L221.883 149.992C221.669 150.846 221.196 151.566 220.463 152.152C219.743 152.739 218.749 153.032 217.483 153.032ZM214.403 146.372H220.443C220.429 145.919 220.356 145.512 220.223 145.152C220.103 144.779 219.916 144.466 219.663 144.212C219.423 143.946 219.116 143.746 218.743 143.612C218.383 143.466 217.956 143.392 217.463 143.392C216.836 143.392 216.283 143.552 215.803 143.872C215.336 144.179 214.976 144.632 214.723 145.232C214.576 145.566 214.469 145.946 214.403 146.372ZM225.613 152.832C225.267 152.832 224.967 152.706 224.713 152.452C224.46 152.199 224.333 151.899 224.333 151.552C224.333 151.206 224.46 150.906 224.713 150.652C224.967 150.399 225.267 150.272 225.613 150.272C225.96 150.272 226.26 150.399 226.513 150.652C226.767 150.906 226.893 151.206 226.893 151.552C226.893 151.899 226.767 152.199 226.513 152.452C226.26 152.706 225.96 152.832 225.613 152.832ZM233.929 153.032C232.943 153.032 232.083 152.806 231.349 152.352C230.616 151.886 230.043 151.232 229.629 150.392C229.229 149.552 229.029 148.572 229.029 147.452C229.029 146.319 229.243 145.339 229.669 144.512C230.096 143.672 230.683 143.026 231.429 142.572C232.176 142.106 233.029 141.872 233.989 141.872C235.256 141.872 236.269 142.199 237.029 142.852C237.789 143.492 238.243 144.319 238.389 145.332L236.769 145.612C236.636 144.972 236.329 144.446 235.849 144.032C235.383 143.619 234.756 143.412 233.969 143.412C233.329 143.412 232.763 143.572 232.269 143.892C231.789 144.199 231.409 144.652 231.129 145.252C230.849 145.852 230.709 146.586 230.709 147.452C230.709 148.306 230.849 149.039 231.129 149.652C231.409 150.252 231.789 150.712 232.269 151.032C232.763 151.339 233.329 151.492 233.969 151.492C234.716 151.492 235.316 151.312 235.769 150.952C236.223 150.579 236.556 150.032 236.769 149.312L238.309 149.692C238.069 150.692 237.576 151.499 236.829 152.112C236.096 152.726 235.129 153.032 233.929 153.032ZM244.948 153.032C243.922 153.032 243.028 152.799 242.268 152.332C241.522 151.852 240.942 151.192 240.528 150.352C240.115 149.512 239.908 148.546 239.908 147.452C239.908 146.346 240.115 145.379 240.528 144.552C240.942 143.712 241.522 143.059 242.268 142.592C243.028 142.112 243.922 141.872 244.948 141.872C245.975 141.872 246.862 142.112 247.608 142.592C248.355 143.059 248.928 143.712 249.328 144.552C249.742 145.379 249.948 146.346 249.948 147.452C249.948 148.546 249.742 149.512 249.328 150.352C248.928 151.192 248.355 151.852 247.608 152.332C246.862 152.799 245.975 153.032 244.948 153.032ZM244.948 151.492C245.602 151.492 246.175 151.332 246.668 151.012C247.175 150.692 247.568 150.232 247.848 149.632C248.128 149.032 248.268 148.306 248.268 147.452C248.268 146.599 248.128 145.872 247.848 145.272C247.568 144.672 247.175 144.212 246.668 143.892C246.175 143.572 245.602 143.412 244.948 143.412C244.295 143.412 243.715 143.572 243.208 143.892C242.702 144.212 242.302 144.672 242.008 145.272C241.728 145.872 241.588 146.599 241.588 147.452C241.588 148.306 241.728 149.032 242.008 149.632C242.302 150.232 242.702 150.692 243.208 151.012C243.715 151.332 244.295 151.492 244.948 151.492ZM252.052 152.712V142.192H253.652V143.532H253.732C253.905 143.212 254.138 142.932 254.432 142.692C254.725 142.439 255.058 142.239 255.432 142.092C255.818 141.946 256.225 141.872 256.652 141.872C257.358 141.872 257.958 142.039 258.452 142.372C258.945 142.692 259.298 143.132 259.512 143.692C259.818 143.146 260.245 142.706 260.792 142.372C261.352 142.039 261.998 141.872 262.732 141.872C263.772 141.872 264.572 142.192 265.132 142.832C265.705 143.459 265.992 144.312 265.992 145.392V152.712H264.332V145.672C264.332 144.886 264.152 144.312 263.792 143.952C263.445 143.579 262.945 143.392 262.292 143.392C261.825 143.392 261.405 143.512 261.032 143.752C260.672 143.992 260.385 144.319 260.172 144.732C259.972 145.146 259.872 145.612 259.872 146.132V152.712H258.192V145.692C258.192 144.906 258.012 144.326 257.652 143.952C257.292 143.579 256.792 143.392 256.152 143.392C255.685 143.392 255.265 143.519 254.892 143.772C254.532 144.012 254.245 144.346 254.032 144.772C253.832 145.186 253.732 145.652 253.732 146.172V152.712H252.052ZM276.566 152.712L272.766 142.192H274.526L277.446 150.752H277.506L280.466 142.192H282.166L278.326 152.712H276.566ZM283.887 152.712V142.192H285.567V152.712H283.887ZM284.727 139.632C284.394 139.632 284.107 139.512 283.867 139.272C283.627 139.032 283.507 138.746 283.507 138.412C283.507 138.066 283.627 137.779 283.867 137.552C284.107 137.312 284.394 137.192 284.727 137.192C285.074 137.192 285.361 137.312 285.587 137.552C285.827 137.779 285.947 138.066 285.947 138.412C285.947 138.746 285.827 139.032 285.587 139.272C285.361 139.512 285.074 139.632 284.727 139.632ZM288.458 152.712V137.192H290.138V152.712H288.458ZM298.185 152.712V137.192H299.865V147.052L304.465 142.192H306.445V142.272L302.585 146.292L306.445 152.632V152.712H304.585L301.425 147.512L299.865 149.132V152.712H298.185ZM312.292 153.032C311.265 153.032 310.372 152.799 309.612 152.332C308.865 151.852 308.285 151.192 307.872 150.352C307.459 149.512 307.252 148.546 307.252 147.452C307.252 146.346 307.459 145.379 307.872 144.552C308.285 143.712 308.865 143.059 309.612 142.592C310.372 142.112 311.265 141.872 312.292 141.872C313.319 141.872 314.205 142.112 314.952 142.592C315.699 143.059 316.272 143.712 316.672 144.552C317.085 145.379 317.292 146.346 317.292 147.452C317.292 148.546 317.085 149.512 316.672 150.352C316.272 151.192 315.699 151.852 314.952 152.332C314.205 152.799 313.319 153.032 312.292 153.032ZM312.292 151.492C312.945 151.492 313.519 151.332 314.012 151.012C314.519 150.692 314.912 150.232 315.192 149.632C315.472 149.032 315.612 148.306 315.612 147.452C315.612 146.599 315.472 145.872 315.192 145.272C314.912 144.672 314.519 144.212 314.012 143.892C313.519 143.572 312.945 143.412 312.292 143.412C311.639 143.412 311.059 143.572 310.552 143.892C310.045 144.212 309.645 144.672 309.352 145.272C309.072 145.872 308.932 146.599 308.932 147.452C308.932 148.306 309.072 149.032 309.352 149.632C309.645 150.232 310.045 150.692 310.552 151.012C311.059 151.332 311.639 151.492 312.292 151.492ZM324.513 153.032C323.993 153.032 323.513 152.946 323.073 152.772C322.633 152.612 322.253 152.399 321.933 152.132C321.613 151.866 321.36 151.579 321.173 151.272H321.093V152.712H319.493V137.192H321.173V142.192L321.093 143.632H321.173C321.36 143.326 321.613 143.039 321.933 142.772C322.253 142.506 322.633 142.292 323.073 142.132C323.527 141.959 324.013 141.872 324.533 141.872C325.48 141.872 326.3 142.112 326.993 142.592C327.7 143.059 328.247 143.712 328.633 144.552C329.02 145.379 329.213 146.346 329.213 147.452C329.213 148.546 329.02 149.512 328.633 150.352C328.247 151.192 327.7 151.852 326.993 152.332C326.287 152.799 325.46 153.032 324.513 153.032ZM324.333 151.492C324.96 151.492 325.513 151.339 325.993 151.032C326.473 150.712 326.847 150.252 327.113 149.652C327.393 149.052 327.533 148.319 327.533 147.452C327.533 146.586 327.393 145.852 327.113 145.252C326.847 144.652 326.473 144.199 325.993 143.892C325.513 143.572 324.96 143.412 324.333 143.412C323.707 143.412 323.147 143.572 322.653 143.892C322.173 144.199 321.793 144.652 321.513 145.252C321.233 145.852 321.093 146.586 321.093 147.452C321.093 148.319 321.233 149.052 321.513 149.652C321.793 150.252 322.173 150.712 322.653 151.032C323.147 151.339 323.707 151.492 324.333 151.492ZM331.407 152.712V137.192H333.087V152.712H331.407ZM340.139 153.032C339.152 153.032 338.292 152.792 337.559 152.312C336.839 151.819 336.279 151.152 335.879 150.312C335.492 149.472 335.299 148.526 335.299 147.472C335.299 146.392 335.499 145.432 335.899 144.592C336.312 143.739 336.879 143.072 337.599 142.592C338.332 142.112 339.172 141.872 340.119 141.872C341.132 141.872 341.986 142.072 342.679 142.472C343.386 142.872 343.926 143.446 344.299 144.192C344.672 144.926 344.859 145.806 344.859 146.832C344.859 147.006 344.852 147.179 344.839 147.352C344.839 147.512 344.832 147.652 344.819 147.772H336.979C337.006 148.492 337.139 149.119 337.379 149.652C337.646 150.252 338.019 150.712 338.499 151.032C338.992 151.339 339.559 151.492 340.199 151.492C341.039 151.492 341.672 151.319 342.099 150.972C342.539 150.612 342.859 150.152 343.059 149.592L344.539 149.992C344.326 150.846 343.852 151.566 343.119 152.152C342.399 152.739 341.406 153.032 340.139 153.032ZM337.059 146.372H343.099C343.086 145.919 343.012 145.512 342.879 145.152C342.759 144.779 342.572 144.466 342.319 144.212C342.079 143.946 341.772 143.746 341.399 143.612C341.039 143.466 340.612 143.392 340.119 143.392C339.492 143.392 338.939 143.552 338.459 143.872C337.992 144.179 337.632 144.632 337.379 145.232C337.232 145.566 337.126 145.946 337.059 146.372ZM351.447 142.192H353.107V139.312H354.787V142.192H357.167V143.732H354.787V149.692C354.787 150.199 354.9 150.592 355.127 150.872C355.353 151.152 355.693 151.292 356.147 151.292C356.373 151.292 356.567 151.266 356.727 151.212C356.9 151.159 357.06 151.086 357.207 150.992V152.632C357.033 152.699 356.847 152.752 356.647 152.792C356.447 152.846 356.187 152.872 355.867 152.872C355.04 152.872 354.373 152.626 353.867 152.132C353.36 151.626 353.107 150.926 353.107 150.032V143.732H351.447V142.192ZM359.551 152.712V142.192H361.231V152.712H359.551ZM360.391 139.632C360.058 139.632 359.771 139.512 359.531 139.272C359.291 139.032 359.171 138.746 359.171 138.412C359.171 138.066 359.291 137.779 359.531 137.552C359.771 137.312 360.058 137.192 360.391 137.192C360.738 137.192 361.025 137.312 361.251 137.552C361.491 137.779 361.611 138.066 361.611 138.412C361.611 138.746 361.491 139.032 361.251 139.272C361.025 139.512 360.738 139.632 360.391 139.632ZM364.122 152.712V137.192H365.802V152.712H364.122ZM378.069 153.032C377.082 153.032 376.222 152.792 375.489 152.312C374.769 151.819 374.209 151.152 373.809 150.312C373.422 149.472 373.229 148.526 373.229 147.472C373.229 146.392 373.429 145.432 373.829 144.592C374.242 143.739 374.809 143.072 375.529 142.592C376.262 142.112 377.102 141.872 378.049 141.872C379.062 141.872 379.915 142.072 380.609 142.472C381.315 142.872 381.855 143.446 382.229 144.192C382.602 144.926 382.789 145.806 382.789 146.832C382.789 147.006 382.782 147.179 382.769 147.352C382.769 147.512 382.762 147.652 382.749 147.772H374.909C374.935 148.492 375.069 149.119 375.309 149.652C375.575 150.252 375.949 150.712 376.429 151.032C376.922 151.339 377.489 151.492 378.129 151.492C378.969 151.492 379.602 151.319 380.029 150.972C380.469 150.612 380.789 150.152 380.989 149.592L382.469 149.992C382.255 150.846 381.782 151.566 381.049 152.152C380.329 152.739 379.335 153.032 378.069 153.032ZM374.989 146.372H381.029C381.015 145.919 380.942 145.512 380.809 145.152C380.689 144.779 380.502 144.466 380.249 144.212C380.009 143.946 379.702 143.746 379.329 143.612C378.969 143.466 378.542 143.392 378.049 143.392C377.422 143.392 376.869 143.552 376.389 143.872C375.922 144.179 375.562 144.632 375.309 145.232C375.162 145.566 375.055 145.946 374.989 146.372ZM385.079 152.712V142.192H386.679V143.572H386.759C387.012 143.079 387.412 142.672 387.959 142.352C388.519 142.032 389.159 141.872 389.879 141.872C391.066 141.872 391.972 142.219 392.599 142.912C393.239 143.606 393.559 144.546 393.559 145.732V152.712H391.879V145.952C391.879 145.032 391.646 144.379 391.179 143.992C390.726 143.606 390.159 143.412 389.479 143.412C388.919 143.412 388.432 143.552 388.019 143.832C387.619 144.099 387.306 144.459 387.079 144.912C386.866 145.352 386.759 145.846 386.759 146.392V152.712H385.079ZM401.744 152.712V138.392H403.444V144.572H410.584V138.392H412.264V152.712H410.584V146.192H403.444V152.712H401.744ZM415.631 152.712V138.392H417.331V152.712H415.631ZM420.69 152.712V138.392H425.47C426.856 138.392 428.036 138.679 429.01 139.252C429.983 139.812 430.723 140.626 431.23 141.692C431.75 142.759 432.01 144.046 432.01 145.552C432.01 147.059 431.75 148.346 431.23 149.412C430.723 150.479 429.983 151.299 429.01 151.872C428.036 152.432 426.856 152.712 425.47 152.712H420.69ZM422.39 151.092H425.45C426.463 151.092 427.33 150.899 428.05 150.512C428.77 150.112 429.323 149.506 429.71 148.692C430.11 147.879 430.31 146.832 430.31 145.552C430.31 144.272 430.11 143.226 429.71 142.412C429.323 141.586 428.77 140.979 428.05 140.592C427.33 140.206 426.463 140.012 425.45 140.012H422.39V151.092ZM434.415 147.212V145.812H440.755V147.212H434.415ZM447.873 153.032C446.887 153.032 446.027 152.792 445.293 152.312C444.573 151.819 444.013 151.152 443.613 150.312C443.227 149.472 443.033 148.526 443.033 147.472C443.033 146.392 443.233 145.432 443.633 144.592C444.047 143.739 444.613 143.072 445.333 142.592C446.067 142.112 446.907 141.872 447.853 141.872C448.867 141.872 449.72 142.072 450.413 142.472C451.12 142.872 451.66 143.446 452.033 144.192C452.407 144.926 452.593 145.806 452.593 146.832C452.593 147.006 452.587 147.179 452.573 147.352C452.573 147.512 452.567 147.652 452.553 147.772H444.713C444.74 148.492 444.873 149.119 445.113 149.652C445.38 150.252 445.753 150.712 446.233 151.032C446.727 151.339 447.293 151.492 447.933 151.492C448.773 151.492 449.407 151.319 449.833 150.972C450.273 150.612 450.593 150.152 450.793 149.592L452.273 149.992C452.06 150.846 451.587 151.566 450.853 152.152C450.133 152.739 449.14 153.032 447.873 153.032ZM444.793 146.372H450.833C450.82 145.919 450.747 145.512 450.613 145.152C450.493 144.779 450.307 144.466 450.053 144.212C449.813 143.946 449.507 143.746 449.133 143.612C448.773 143.466 448.347 143.392 447.853 143.392C447.227 143.392 446.673 143.552 446.193 143.872C445.727 144.179 445.367 144.632 445.113 145.232C444.967 145.566 444.86 145.946 444.793 146.372ZM454.884 152.712V142.192H456.484V143.572H456.564C456.817 143.079 457.217 142.672 457.764 142.352C458.324 142.032 458.964 141.872 459.684 141.872C460.87 141.872 461.777 142.219 462.404 142.912C463.044 143.606 463.364 144.546 463.364 145.732V152.712H461.684V145.952C461.684 145.032 461.45 144.379 460.984 143.992C460.53 143.606 459.964 143.412 459.284 143.412C458.724 143.412 458.237 143.552 457.824 143.832C457.424 144.099 457.11 144.459 456.884 144.912C456.67 145.352 456.564 145.846 456.564 146.392V152.712H454.884ZM466.212 152.712V137.192H467.892V142.192L467.812 143.632H467.892C468.159 143.152 468.585 142.739 469.172 142.392C469.759 142.046 470.439 141.872 471.212 141.872C472.025 141.872 472.705 142.039 473.252 142.372C473.799 142.706 474.212 143.166 474.492 143.752C474.785 144.339 474.932 145.019 474.932 145.792V152.712H473.252V145.932C473.252 145.399 473.152 144.946 472.952 144.572C472.752 144.199 472.465 143.912 472.092 143.712C471.719 143.512 471.272 143.412 470.752 143.412C470.205 143.412 469.712 143.559 469.272 143.852C468.845 144.146 468.505 144.532 468.252 145.012C468.012 145.492 467.892 146.026 467.892 146.612V152.712H466.212ZM481.975 153.032C480.988 153.032 480.128 152.792 479.395 152.312C478.675 151.819 478.115 151.152 477.715 150.312C477.328 149.472 477.135 148.526 477.135 147.472C477.135 146.392 477.335 145.432 477.735 144.592C478.148 143.739 478.715 143.072 479.435 142.592C480.168 142.112 481.008 141.872 481.955 141.872C482.968 141.872 483.822 142.072 484.515 142.472C485.222 142.872 485.762 143.446 486.135 144.192C486.508 144.926 486.695 145.806 486.695 146.832C486.695 147.006 486.688 147.179 486.675 147.352C486.675 147.512 486.668 147.652 486.655 147.772H478.815C478.842 148.492 478.975 149.119 479.215 149.652C479.482 150.252 479.855 150.712 480.335 151.032C480.828 151.339 481.395 151.492 482.035 151.492C482.875 151.492 483.508 151.319 483.935 150.972C484.375 150.612 484.695 150.152 484.895 149.592L486.375 149.992C486.162 150.846 485.688 151.566 484.955 152.152C484.235 152.739 483.242 153.032 481.975 153.032ZM478.895 146.372H484.935C484.922 145.919 484.848 145.512 484.715 145.152C484.595 144.779 484.408 144.466 484.155 144.212C483.915 143.946 483.608 143.746 483.235 143.612C482.875 143.466 482.448 143.392 481.955 143.392C481.328 143.392 480.775 143.552 480.295 143.872C479.828 144.179 479.468 144.632 479.215 145.232C479.068 145.566 478.962 145.946 478.895 146.372ZM487.872 142.192H489.532V139.312H491.212V142.192H493.592V143.732H491.212V149.692C491.212 150.199 491.326 150.592 491.552 150.872C491.779 151.152 492.119 151.292 492.572 151.292C492.799 151.292 492.992 151.266 493.152 151.212C493.326 151.159 493.486 151.086 493.632 150.992V152.632C493.459 152.699 493.272 152.752 493.072 152.792C492.872 152.846 492.612 152.872 492.292 152.872C491.466 152.872 490.799 152.626 490.292 152.132C489.786 151.626 489.532 150.926 489.532 150.032V143.732H487.872V142.192Z" fill="#C4C7C5"/>
<g clip-path="url(#clip1_1998_38042)">
<rect width="492.284" height="64" transform="translate(100.025 169.558)" fill="white" fill-opacity="0.15"/>
<path d="M130.409 208.878C129.436 208.878 128.569 208.711 127.809 208.378C127.049 208.045 126.422 207.551 125.929 206.898C125.449 206.245 125.122 205.445 124.949 204.498L127.149 204.018C127.296 204.845 127.642 205.518 128.189 206.038C128.736 206.545 129.482 206.798 130.429 206.798C131.002 206.798 131.502 206.711 131.929 206.538C132.369 206.365 132.709 206.118 132.949 205.798C133.189 205.465 133.309 205.085 133.309 204.658C133.309 204.205 133.202 203.831 132.989 203.538C132.789 203.245 132.462 202.991 132.009 202.778C131.569 202.551 130.982 202.331 130.249 202.118L129.189 201.778C128.736 201.645 128.289 201.478 127.849 201.278C127.409 201.078 127.009 200.825 126.649 200.518C126.289 200.211 126.002 199.838 125.789 199.398C125.576 198.958 125.469 198.438 125.469 197.838C125.469 197.105 125.662 196.445 126.049 195.858C126.436 195.258 126.982 194.785 127.689 194.438C128.409 194.091 129.262 193.918 130.249 193.918C131.249 193.918 132.096 194.085 132.789 194.418C133.482 194.751 134.022 195.211 134.409 195.798C134.809 196.371 135.056 197.025 135.149 197.758L133.069 198.078C132.989 197.651 132.829 197.278 132.589 196.958C132.349 196.638 132.036 196.391 131.649 196.218C131.276 196.045 130.816 195.958 130.269 195.958C129.762 195.958 129.309 196.038 128.909 196.198C128.509 196.345 128.196 196.551 127.969 196.818C127.742 197.085 127.629 197.398 127.629 197.758C127.629 198.291 127.862 198.731 128.329 199.078C128.796 199.411 129.489 199.718 130.409 199.998L131.449 200.318C132.009 200.491 132.529 200.691 133.009 200.918C133.502 201.145 133.929 201.425 134.289 201.758C134.662 202.091 134.956 202.491 135.169 202.958C135.382 203.411 135.489 203.965 135.489 204.618C135.489 205.311 135.356 205.925 135.089 206.458C134.822 206.991 134.449 207.438 133.969 207.798C133.502 208.158 132.962 208.425 132.349 208.598C131.736 208.785 131.089 208.878 130.409 208.878ZM138.173 208.558V194.238H143.533C144.44 194.238 145.253 194.398 145.973 194.718C146.693 195.038 147.26 195.531 147.673 196.198C148.1 196.851 148.313 197.691 148.313 198.718C148.313 199.745 148.1 200.591 147.673 201.258C147.26 201.925 146.693 202.418 145.973 202.738C145.253 203.058 144.44 203.218 143.533 203.218H140.353V208.558H138.173ZM140.353 201.138H143.593C144.126 201.138 144.58 201.051 144.953 200.878C145.34 200.691 145.633 200.418 145.833 200.058C146.046 199.685 146.153 199.238 146.153 198.718C146.153 198.185 146.046 197.745 145.833 197.398C145.633 197.038 145.34 196.771 144.953 196.598C144.58 196.411 144.126 196.318 143.593 196.318H140.353V201.138ZM155.868 208.558V194.238H161.588C162.428 194.238 163.168 194.378 163.808 194.658C164.448 194.938 164.948 195.345 165.308 195.878C165.682 196.411 165.868 197.058 165.868 197.818C165.868 198.578 165.688 199.211 165.328 199.718C164.968 200.225 164.515 200.611 163.968 200.878V200.998C164.675 201.238 165.248 201.651 165.688 202.238C166.128 202.825 166.348 203.531 166.348 204.358C166.348 205.211 166.148 205.951 165.748 206.578C165.362 207.205 164.828 207.691 164.148 208.038C163.482 208.385 162.728 208.558 161.888 208.558H155.868ZM158.048 201.978V206.538H161.868C162.335 206.538 162.742 206.445 163.088 206.258C163.435 206.071 163.695 205.811 163.868 205.478C164.055 205.131 164.148 204.725 164.148 204.258C164.148 203.791 164.055 203.391 163.868 203.058C163.682 202.711 163.415 202.445 163.068 202.258C162.722 202.071 162.295 201.978 161.788 201.978H158.048ZM158.048 200.038H161.548C162.015 200.038 162.408 199.965 162.728 199.818C163.062 199.671 163.308 199.458 163.468 199.178C163.642 198.898 163.728 198.551 163.728 198.138C163.728 197.711 163.642 197.358 163.468 197.078C163.308 196.798 163.068 196.591 162.748 196.458C162.442 196.311 162.068 196.238 161.628 196.238H158.048V200.038ZM168.694 208.558V193.038H170.854V208.558H168.694ZM176.875 208.878C176.142 208.878 175.502 208.745 174.955 208.478C174.408 208.198 173.982 207.811 173.675 207.318C173.382 206.825 173.235 206.238 173.235 205.558C173.235 204.851 173.415 204.258 173.775 203.778C174.135 203.285 174.622 202.911 175.235 202.658C175.848 202.405 176.522 202.278 177.255 202.278C177.628 202.278 177.982 202.298 178.315 202.338C178.648 202.365 178.975 202.411 179.295 202.478C179.615 202.531 179.935 202.598 180.255 202.678V201.678C180.255 201.025 180.028 200.505 179.575 200.118C179.122 199.718 178.522 199.518 177.775 199.518C177.175 199.518 176.662 199.665 176.235 199.958C175.822 200.238 175.535 200.651 175.375 201.198L173.475 200.758C173.608 200.105 173.882 199.551 174.295 199.098C174.722 198.645 175.235 198.305 175.835 198.078C176.448 197.838 177.102 197.718 177.795 197.718C179.275 197.718 180.402 198.071 181.175 198.778C181.948 199.485 182.335 200.498 182.335 201.818V208.558H180.255V207.338H180.135C179.935 207.605 179.682 207.858 179.375 208.098C179.068 208.325 178.708 208.511 178.295 208.658C177.882 208.805 177.408 208.878 176.875 208.878ZM177.355 207.118C177.942 207.118 178.448 206.998 178.875 206.758C179.302 206.505 179.635 206.171 179.875 205.758C180.128 205.331 180.255 204.865 180.255 204.358C179.815 204.198 179.375 204.085 178.935 204.018C178.495 203.938 178.048 203.898 177.595 203.898C176.888 203.898 176.342 204.038 175.955 204.318C175.582 204.598 175.395 205.011 175.395 205.558C175.395 206.025 175.575 206.405 175.935 206.698C176.308 206.978 176.782 207.118 177.355 207.118ZM185.14 208.558V198.038H187.16V199.378H187.28C187.56 198.885 187.973 198.485 188.52 198.178C189.08 197.871 189.706 197.718 190.4 197.718C191.6 197.718 192.513 198.071 193.14 198.778C193.78 199.485 194.1 200.465 194.1 201.718V208.558H191.94V201.998C191.94 201.211 191.74 200.631 191.34 200.258C190.953 199.885 190.446 199.698 189.82 199.698C189.3 199.698 188.846 199.831 188.46 200.098C188.086 200.351 187.793 200.698 187.58 201.138C187.38 201.565 187.28 202.045 187.28 202.578V208.558H185.14ZM196.917 208.558V193.038H199.057V202.398L203.197 198.038H205.777V198.158L201.937 202.118L205.877 208.438V208.558H203.437L200.417 203.698L199.057 205.078V208.558H196.917ZM212.997 208.558V194.238H218.617C219.551 194.238 220.357 194.411 221.037 194.758C221.731 195.105 222.271 195.605 222.657 196.258C223.044 196.911 223.237 197.698 223.237 198.618C223.237 199.191 223.131 199.738 222.917 200.258C222.704 200.765 222.377 201.225 221.937 201.638C221.511 202.038 220.964 202.358 220.297 202.598C220.191 202.625 220.077 202.658 219.957 202.698L223.457 208.438V208.558H221.037L217.637 202.938H215.177V208.558H212.997ZM215.177 200.918H218.657C219.124 200.918 219.531 200.831 219.877 200.658C220.237 200.485 220.517 200.225 220.717 199.878C220.931 199.531 221.037 199.105 221.037 198.598C221.037 198.091 220.937 197.671 220.737 197.338C220.551 196.991 220.277 196.731 219.917 196.558C219.571 196.385 219.151 196.298 218.657 196.298H215.177V200.918ZM228.834 208.558V196.318H224.474V194.238H235.374V196.318H231.014V208.558H228.834ZM242.763 208.558V194.238H251.483V196.318H244.943V200.518H250.863V202.598H244.943V208.558H242.763ZM256.601 208.878C255.868 208.878 255.228 208.745 254.681 208.478C254.135 208.198 253.708 207.811 253.401 207.318C253.108 206.825 252.961 206.238 252.961 205.558C252.961 204.851 253.141 204.258 253.501 203.778C253.861 203.285 254.348 202.911 254.961 202.658C255.575 202.405 256.248 202.278 256.981 202.278C257.355 202.278 257.708 202.298 258.041 202.338C258.375 202.365 258.701 202.411 259.021 202.478C259.341 202.531 259.661 202.598 259.981 202.678V201.678C259.981 201.025 259.755 200.505 259.301 200.118C258.848 199.718 258.248 199.518 257.501 199.518C256.901 199.518 256.388 199.665 255.961 199.958C255.548 200.238 255.261 200.651 255.101 201.198L253.201 200.758C253.335 200.105 253.608 199.551 254.021 199.098C254.448 198.645 254.961 198.305 255.561 198.078C256.175 197.838 256.828 197.718 257.521 197.718C259.001 197.718 260.128 198.071 260.901 198.778C261.675 199.485 262.061 200.498 262.061 201.818V208.558H259.981V207.338H259.861C259.661 207.605 259.408 207.858 259.101 208.098C258.795 208.325 258.435 208.511 258.021 208.658C257.608 208.805 257.135 208.878 256.601 208.878ZM257.081 207.118C257.668 207.118 258.175 206.998 258.601 206.758C259.028 206.505 259.361 206.171 259.601 205.758C259.855 205.331 259.981 204.865 259.981 204.358C259.541 204.198 259.101 204.085 258.661 204.018C258.221 203.938 257.775 203.898 257.321 203.898C256.615 203.898 256.068 204.038 255.681 204.318C255.308 204.598 255.121 205.011 255.121 205.558C255.121 206.025 255.301 206.405 255.661 206.698C256.035 206.978 256.508 207.118 257.081 207.118ZM264.866 208.558V198.038H266.886V199.358H267.006C267.193 199.038 267.433 198.758 267.726 198.518C268.02 198.265 268.353 198.071 268.726 197.938C269.1 197.791 269.5 197.718 269.926 197.718C270.633 197.718 271.226 197.878 271.706 198.198C272.2 198.505 272.56 198.918 272.786 199.438C273.093 198.931 273.513 198.518 274.046 198.198C274.593 197.878 275.253 197.718 276.026 197.718C277.12 197.718 277.94 198.051 278.486 198.718C279.046 199.371 279.326 200.265 279.326 201.398V208.558H277.206V201.738C277.206 201.045 277.046 200.531 276.726 200.198C276.42 199.851 275.98 199.678 275.406 199.678C274.966 199.678 274.58 199.791 274.246 200.018C273.913 200.245 273.653 200.558 273.466 200.958C273.28 201.345 273.186 201.798 273.186 202.318V208.558H271.026V201.758C271.026 201.051 270.866 200.531 270.546 200.198C270.226 199.851 269.773 199.678 269.186 199.678C268.76 199.678 268.38 199.791 268.046 200.018C267.726 200.245 267.473 200.558 267.286 200.958C267.1 201.358 267.006 201.818 267.006 202.338V208.558H264.866ZM282.171 208.558V198.038H284.311V208.558H282.171ZM283.251 195.858C282.851 195.858 282.504 195.718 282.211 195.438C281.931 195.145 281.791 194.798 281.791 194.398C281.791 193.985 281.931 193.638 282.211 193.358C282.504 193.078 282.851 192.938 283.251 192.938C283.651 192.938 283.991 193.078 284.271 193.358C284.564 193.638 284.711 193.985 284.711 194.398C284.711 194.798 284.564 195.145 284.271 195.438C283.991 195.718 283.651 195.858 283.251 195.858ZM287.23 208.558V193.038H289.39V208.558H287.23ZM293.088 212.978C292.781 212.978 292.488 212.951 292.208 212.898C291.928 212.845 291.681 212.771 291.468 212.678V210.638C291.601 210.705 291.794 210.785 292.048 210.878C292.314 210.985 292.614 211.038 292.948 211.038C293.228 211.038 293.474 210.985 293.688 210.878C293.914 210.771 294.121 210.591 294.308 210.338C294.508 210.098 294.701 209.758 294.888 209.318L295.308 208.318L291.108 198.038H293.508L296.388 205.458H296.468L299.308 198.038H301.648L296.728 210.038C296.448 210.745 296.134 211.311 295.788 211.738C295.441 212.178 295.048 212.491 294.608 212.678C294.181 212.878 293.674 212.978 293.088 212.978Z" fill="white"/>
</g>
<rect x="100.877" y="170.409" width="490.581" height="387.205" rx="4.07146" stroke="#E3E3E3" stroke-width="1.70275"/>
<g clip-path="url(#clip2_1998_38042)">
<path d="M112.281 609.31C112.64 609.31 112.939 609.191 113.179 608.951C113.435 608.695 113.563 608.387 113.563 608.028C113.563 607.669 113.435 607.37 113.179 607.131C112.939 606.875 112.64 606.746 112.281 606.746C111.922 606.746 111.615 606.875 111.358 607.131C111.119 607.37 110.999 607.669 110.999 608.028C110.999 608.387 111.119 608.695 111.358 608.951C111.615 609.191 111.922 609.31 112.281 609.31ZM111.358 605.362H113.256C113.256 604.798 113.315 604.353 113.435 604.029C113.572 603.704 113.939 603.259 114.538 602.695C114.982 602.251 115.332 601.832 115.589 601.439C115.845 601.029 115.973 600.542 115.973 599.977C115.973 599.02 115.623 598.285 114.922 597.772C114.221 597.26 113.392 597.003 112.435 597.003C111.461 597.003 110.666 597.26 110.051 597.772C109.452 598.285 109.034 598.901 108.794 599.618L110.486 600.285C110.572 599.977 110.76 599.644 111.051 599.285C111.358 598.926 111.82 598.747 112.435 598.747C112.982 598.747 113.392 598.901 113.666 599.208C113.939 599.499 114.076 599.824 114.076 600.183C114.076 600.524 113.973 600.849 113.768 601.157C113.563 601.447 113.307 601.721 112.999 601.977C112.247 602.644 111.786 603.148 111.615 603.49C111.444 603.832 111.358 604.456 111.358 605.362ZM112.332 613.413C110.914 613.413 109.58 613.148 108.333 612.618C107.085 612.071 105.999 611.336 105.076 610.413C104.153 609.49 103.418 608.404 102.871 607.157C102.342 605.909 102.077 604.576 102.077 603.157C102.077 601.738 102.342 600.405 102.871 599.157C103.418 597.909 104.153 596.824 105.076 595.901C105.999 594.978 107.085 594.251 108.333 593.721C109.58 593.174 110.914 592.901 112.332 592.901C113.751 592.901 115.084 593.174 116.332 593.721C117.58 594.251 118.666 594.978 119.589 595.901C120.512 596.824 121.238 597.909 121.768 599.157C122.315 600.405 122.588 601.738 122.588 603.157C122.588 604.576 122.315 605.909 121.768 607.157C121.238 608.404 120.512 609.49 119.589 610.413C118.666 611.336 117.58 612.071 116.332 612.618C115.084 613.148 113.751 613.413 112.332 613.413ZM112.332 611.387C114.623 611.387 116.563 610.592 118.153 609.003C119.759 607.396 120.563 605.447 120.563 603.157C120.563 600.866 119.759 598.926 118.153 597.337C116.563 595.73 114.623 594.926 112.332 594.926C110.042 594.926 108.093 595.73 106.487 597.337C104.897 598.926 104.102 600.866 104.102 603.157C104.102 605.447 104.897 607.396 106.487 609.003C108.093 610.592 110.042 611.387 112.332 611.387Z" fill="#C4C7C5"/>
</g>
<path d="M402.974 608.771L407.455 596.384H409.617L414.115 608.771H412.039L410.949 605.588H406.123L405.033 608.771H402.974ZM410.344 603.823L409.029 600.034L408.597 598.616H408.493L408.043 600.034L406.728 603.823H410.344ZM417.297 608.771L413.785 599.671H415.827L418.214 606.366H418.318L420.74 599.671H422.73L419.183 608.771H417.297ZM428.887 609.048C428.437 609.048 428.028 608.979 427.659 608.84C427.301 608.713 426.99 608.54 426.724 608.321C426.471 608.102 426.257 607.866 426.084 607.612H425.981V608.771H424.233V595.346H426.084V599.533L425.981 600.83H426.084C426.234 600.588 426.442 600.357 426.707 600.138C426.972 599.919 427.29 599.74 427.659 599.602C428.039 599.464 428.454 599.394 428.904 599.394C429.7 599.394 430.398 599.59 430.998 599.983C431.609 600.375 432.087 600.934 432.433 601.661C432.779 602.376 432.952 603.229 432.952 604.221C432.952 605.201 432.779 606.055 432.433 606.781C432.087 607.508 431.609 608.067 430.998 608.46C430.386 608.852 429.683 609.048 428.887 609.048ZM428.541 607.335C429.037 607.335 429.475 607.214 429.856 606.972C430.248 606.73 430.554 606.378 430.773 605.916C430.992 605.455 431.101 604.89 431.101 604.221C431.101 603.552 430.992 602.987 430.773 602.526C430.554 602.064 430.248 601.713 429.856 601.47C429.475 601.228 429.037 601.107 428.541 601.107C428.057 601.107 427.618 601.228 427.226 601.47C426.846 601.713 426.54 602.064 426.309 602.526C426.09 602.987 425.981 603.552 425.981 604.221C425.981 604.89 426.09 605.455 426.309 605.916C426.54 606.378 426.846 606.73 427.226 606.972C427.618 607.214 428.057 607.335 428.541 607.335ZM434.775 608.771V599.671H436.523V600.899H436.627C436.753 600.611 436.926 600.357 437.146 600.138C437.376 599.908 437.641 599.729 437.941 599.602C438.253 599.475 438.587 599.412 438.945 599.412C439.164 599.412 439.343 599.423 439.481 599.446C439.619 599.469 439.741 599.498 439.844 599.533V601.418C439.683 601.338 439.504 601.28 439.308 601.245C439.112 601.199 438.899 601.176 438.668 601.176C438.276 601.176 437.924 601.28 437.613 601.488C437.313 601.695 437.071 601.984 436.886 602.353C436.713 602.722 436.627 603.137 436.627 603.598V608.771H434.775ZM442.765 612.594C442.5 612.594 442.246 612.571 442.004 612.525C441.762 612.479 441.549 612.416 441.364 612.335V610.57C441.48 610.628 441.647 610.697 441.866 610.778C442.097 610.87 442.356 610.916 442.644 610.916C442.887 610.916 443.1 610.87 443.284 610.778C443.481 610.686 443.659 610.53 443.821 610.311C443.994 610.103 444.161 609.809 444.322 609.428L444.686 608.563L441.053 599.671H443.129L445.62 606.089H445.689L448.146 599.671H450.17L445.914 610.051C445.672 610.662 445.401 611.153 445.101 611.522C444.801 611.902 444.461 612.173 444.08 612.335C443.711 612.508 443.273 612.594 442.765 612.594ZM450.961 599.671H452.431V597.18H454.282V599.671H456.358V601.297H454.282V605.882C454.282 606.297 454.375 606.614 454.559 606.833C454.744 607.053 455.026 607.162 455.407 607.162C455.614 607.162 455.793 607.139 455.943 607.093C456.093 607.035 456.243 606.96 456.393 606.868V608.667C456.208 608.736 456.007 608.794 455.787 608.84C455.58 608.886 455.332 608.909 455.043 608.909C454.248 608.909 453.613 608.673 453.14 608.2C452.668 607.716 452.431 607.053 452.431 606.211V601.297H450.961V599.671Z" fill="#757575"/>
<rect x="383.313" y="581.234" width="93.152" height="43.0748" rx="4.30749" stroke="#444746" stroke-width="1.23071"/>
<rect x="486.926" y="580.618" width="105.383" height="44.3056" rx="4.92284" fill="#FDFCFB"/>
<path d="M508.254 608.271V595.934H510.132V601.93L515.009 595.934H517.335V596.038L512.993 601.207L517.714 608.168V608.271H515.439L511.718 602.723L510.132 604.618V608.271H508.254ZM522.693 608.547C521.786 608.547 520.999 608.346 520.333 607.944C519.667 607.53 519.15 606.962 518.782 606.238C518.426 605.514 518.248 604.681 518.248 603.74C518.248 602.786 518.426 601.953 518.782 601.241C519.15 600.518 519.667 599.955 520.333 599.553C520.999 599.139 521.786 598.932 522.693 598.932C523.612 598.932 524.399 599.139 525.054 599.553C525.72 599.955 526.231 600.518 526.587 601.241C526.955 601.953 527.139 602.786 527.139 603.74C527.139 604.681 526.955 605.514 526.587 606.238C526.231 606.962 525.72 607.53 525.054 607.944C524.399 608.346 523.612 608.547 522.693 608.547ZM522.693 606.841C523.21 606.841 523.664 606.72 524.055 606.479C524.445 606.238 524.75 605.888 524.968 605.428C525.186 604.957 525.295 604.394 525.295 603.74C525.295 603.073 525.186 602.51 524.968 602.051C524.75 601.592 524.445 601.241 524.055 601C523.664 600.759 523.216 600.638 522.711 600.638C522.194 600.638 521.74 600.759 521.35 601C520.959 601.241 520.649 601.592 520.419 602.051C520.201 602.51 520.092 603.073 520.092 603.74C520.092 604.406 520.201 604.969 520.419 605.428C520.649 605.888 520.959 606.238 521.35 606.479C521.752 606.72 522.2 606.841 522.693 606.841ZM533.664 608.547C533.216 608.547 532.808 608.478 532.441 608.34C532.085 608.214 531.775 608.041 531.51 607.823C531.258 607.605 531.045 607.369 530.873 607.117H530.77V608.271H529.029V594.901H530.873V599.07L530.77 600.362H530.873C531.022 600.121 531.229 599.892 531.493 599.673C531.757 599.455 532.073 599.277 532.441 599.139C532.82 599.001 533.233 598.932 533.681 598.932C534.474 598.932 535.169 599.128 535.766 599.518C536.375 599.909 536.852 600.466 537.196 601.189C537.541 601.902 537.713 602.752 537.713 603.74C537.713 604.716 537.541 605.566 537.196 606.29C536.852 607.013 536.375 607.57 535.766 607.961C535.158 608.351 534.457 608.547 533.664 608.547ZM533.32 606.841C533.814 606.841 534.25 606.72 534.629 606.479C535.02 606.238 535.324 605.888 535.542 605.428C535.761 604.969 535.87 604.406 535.87 603.74C535.87 603.073 535.761 602.51 535.542 602.051C535.324 601.592 535.02 601.241 534.629 601C534.25 600.759 533.814 600.638 533.32 600.638C532.837 600.638 532.401 600.759 532.01 601C531.631 601.241 531.327 601.592 531.097 602.051C530.879 602.51 530.77 603.073 530.77 603.74C530.77 604.406 530.879 604.969 531.097 605.428C531.327 605.888 531.631 606.238 532.01 606.479C532.401 606.72 532.837 606.841 533.32 606.841ZM539.613 608.271V594.901H541.474V608.271H539.613ZM547.677 608.547C546.804 608.547 546.04 608.346 545.385 607.944C544.742 607.53 544.243 606.962 543.886 606.238C543.542 605.514 543.37 604.687 543.37 603.757C543.37 602.792 543.553 601.948 543.921 601.224C544.288 600.5 544.794 599.937 545.437 599.535C546.092 599.133 546.839 598.932 547.677 598.932C548.596 598.932 549.36 599.105 549.969 599.449C550.589 599.794 551.054 600.288 551.364 600.931C551.686 601.574 551.847 602.344 551.847 603.24C551.847 603.401 551.841 603.561 551.829 603.722C551.829 603.872 551.818 604.009 551.795 604.136H545.179C545.213 604.653 545.317 605.101 545.489 605.48C545.707 605.939 546.011 606.29 546.402 606.531C546.793 606.772 547.241 606.893 547.746 606.893C548.378 606.893 548.866 606.755 549.21 606.479C549.567 606.192 549.825 605.836 549.986 605.411L551.605 605.842C551.376 606.623 550.939 607.272 550.296 607.789C549.653 608.294 548.78 608.547 547.677 608.547ZM545.248 602.74H550.02C549.997 602.396 549.934 602.085 549.831 601.81C549.727 601.534 549.578 601.299 549.383 601.103C549.188 600.908 548.946 600.759 548.659 600.655C548.383 600.552 548.062 600.5 547.694 600.5C547.2 600.5 546.758 600.627 546.368 600.879C545.988 601.121 545.696 601.482 545.489 601.965C545.385 602.195 545.305 602.453 545.248 602.74ZM557.533 599.208H558.998V596.727H560.841V599.208H562.909V600.828H560.841V605.394C560.841 605.807 560.933 606.123 561.117 606.341C561.301 606.559 561.582 606.669 561.961 606.669C562.168 606.669 562.346 606.646 562.495 606.6C562.645 606.542 562.794 606.468 562.943 606.376V608.168C562.76 608.237 562.558 608.294 562.34 608.34C562.133 608.386 561.887 608.409 561.599 608.409C560.807 608.409 560.175 608.173 559.704 607.702C559.233 607.22 558.998 606.559 558.998 605.721V600.828H557.533V599.208ZM564.987 608.271V599.208H566.83V608.271H564.987ZM565.917 597.33C565.573 597.33 565.274 597.209 565.021 596.968C564.78 596.715 564.659 596.417 564.659 596.072C564.659 595.716 564.78 595.417 565.021 595.176C565.274 594.935 565.573 594.814 565.917 594.814C566.262 594.814 566.555 594.935 566.796 595.176C567.049 595.417 567.175 595.716 567.175 596.072C567.175 596.417 567.049 596.715 566.796 596.968C566.555 597.209 566.262 597.33 565.917 597.33ZM569.345 608.271V594.901H571.206V608.271H569.345Z" fill="#1F1F1F"/>
<rect x="80.7597" y="112.447" width="530.815" height="529.763" rx="9.41999" stroke="#8E918F" stroke-width="0.851376" shape-rendering="crispEdges"/>
</g>
</g>
<mask id="mask1_1998_38042" style="mask-type:alpha" maskUnits="userSpaceOnUse" x="80" y="44" width="660" height="56">
<rect x="80" y="44" width="660" height="56" fill="url(#paint1_linear_1998_38042)"/>
</mask>
<g mask="url(#mask1_1998_38042)">
<rect x="80" y="44" width="625" height="56" rx="28" fill="#1F1F1F"/>
<rect x="80" y="44" width="625" height="56" rx="28" fill="#D1E1FF" fill-opacity="0.05"/>
<rect x="84" y="48" width="64" height="48" rx="24" fill="#1F1F1F"/>
<rect x="84" y="48" width="64" height="48" rx="24" fill="#D1E1FF" fill-opacity="0.14"/>
<path fill-rule="evenodd" clip-rule="evenodd" d="M122 67C122 63.66 119.32 61 116 61C112.66 61 110 63.66 110 67C110 71.9193 110 69 110 69C108.9 69 108 69.9 108 70.9927C108 72.1 108 79.9 108 81C108 82.1 108.9 83 110 83C111.1 83 120.9 83 122 83C123.1 83 124 82.1 124 81C124 79.9 124 72.1 124 71C124 69.9445 123.039 69.0688 122 69C121.956 68.9971 122 67 122 67ZM112 69.0198C112 69.0198 112 69.2153 112 67.0097C112 64.8041 113.794 63.02 116 63.02C118.206 63.02 120 64.8041 120 67.0097C120 69.2153 120 69.0198 120 69.0198H112Z" fill="#ABABAB"/>
<path d="M166.024 80.384C165.16 80.384 164.352 80.24 163.6 79.952C162.848 79.648 162.224 79.216 161.728 78.656C161.248 78.08 160.96 77.384 160.864 76.568L162.808 76.232C162.936 76.872 163.272 77.424 163.816 77.888C164.36 78.352 165.096 78.584 166.024 78.584C166.824 78.584 167.504 78.416 168.064 78.08C168.624 77.728 168.904 77.232 168.904 76.592C168.904 76.208 168.808 75.88 168.616 75.608C168.424 75.32 168.136 75.08 167.752 74.888C167.384 74.696 166.912 74.552 166.336 74.456L164.776 74.168C164.072 74.04 163.44 73.824 162.88 73.52C162.336 73.216 161.904 72.824 161.584 72.344C161.28 71.848 161.128 71.256 161.128 70.568C161.128 69.848 161.336 69.224 161.752 68.696C162.184 68.152 162.752 67.736 163.456 67.448C164.176 67.144 164.96 66.992 165.808 66.992C166.576 66.992 167.288 67.112 167.944 67.352C168.616 67.576 169.176 67.944 169.624 68.456C170.088 68.952 170.376 69.616 170.488 70.448L168.616 70.736C168.456 70.032 168.112 69.536 167.584 69.248C167.072 68.944 166.48 68.792 165.808 68.792C165.072 68.792 164.448 68.952 163.936 69.272C163.424 69.576 163.168 70 163.168 70.544C163.168 71.024 163.36 71.416 163.744 71.72C164.128 72.024 164.736 72.264 165.568 72.44L167.344 72.8C168.48 73.024 169.36 73.44 169.984 74.048C170.608 74.64 170.92 75.464 170.92 76.52C170.92 77.304 170.704 77.984 170.272 78.56C169.84 79.136 169.256 79.584 168.52 79.904C167.784 80.224 166.952 80.384 166.024 80.384ZM172.37 67.376H174.362V63.92H176.378V67.376H179.234V69.224H176.378V76.376C176.378 76.984 176.514 77.456 176.786 77.792C177.058 78.128 177.466 78.296 178.01 78.296C178.282 78.296 178.514 78.264 178.706 78.2C178.914 78.136 179.106 78.048 179.282 77.936V79.904C179.074 79.984 178.85 80.048 178.61 80.096C178.37 80.16 178.058 80.192 177.674 80.192C176.682 80.192 175.882 79.896 175.274 79.304C174.666 78.696 174.362 77.856 174.362 76.784V69.224H172.37V67.376ZM185.584 80.384C184.72 80.384 183.96 80.224 183.304 79.904C182.648 79.584 182.136 79.136 181.768 78.56C181.4 77.968 181.216 77.272 181.216 76.472C181.216 75.624 181.432 74.92 181.864 74.36C182.312 73.784 182.896 73.352 183.616 73.064C184.352 72.776 185.144 72.632 185.992 72.632C186.488 72.632 186.944 72.656 187.36 72.704C187.792 72.736 188.2 72.792 188.584 72.872C188.984 72.952 189.368 73.056 189.736 73.184V71.792C189.736 70.88 189.432 70.16 188.824 69.632C188.216 69.088 187.44 68.816 186.496 68.816C185.664 68.816 184.976 69.008 184.432 69.392C183.888 69.76 183.512 70.312 183.304 71.048L181.48 70.592C181.624 69.84 181.928 69.2 182.392 68.672C182.856 68.128 183.44 67.712 184.144 67.424C184.864 67.136 185.648 66.992 186.496 66.992C188.144 66.992 189.416 67.408 190.312 68.24C191.224 69.072 191.68 70.24 191.68 71.744V80H189.736V78.344H189.64C189.416 78.664 189.12 78.984 188.752 79.304C188.384 79.624 187.936 79.88 187.408 80.072C186.896 80.28 186.288 80.384 185.584 80.384ZM185.944 78.608C186.68 78.608 187.328 78.448 187.888 78.128C188.464 77.808 188.912 77.368 189.232 76.808C189.568 76.232 189.736 75.592 189.736 74.888C189.144 74.664 188.576 74.504 188.032 74.408C187.488 74.312 186.928 74.264 186.352 74.264C185.44 74.264 184.696 74.44 184.12 74.792C183.56 75.128 183.28 75.688 183.28 76.472C183.28 77.112 183.528 77.632 184.024 78.032C184.536 78.416 185.176 78.608 185.944 78.608ZM199.812 80.384C198.676 80.384 197.684 80.104 196.836 79.544C195.988 78.968 195.332 78.176 194.868 77.168C194.404 76.16 194.172 75 194.172 73.688C194.172 72.36 194.404 71.2 194.868 70.208C195.332 69.2 195.98 68.416 196.812 67.856C197.66 67.28 198.652 66.992 199.788 66.992C200.428 66.992 201.012 67.096 201.54 67.304C202.068 67.496 202.524 67.752 202.908 68.072C203.292 68.392 203.588 68.736 203.796 69.104H203.892L203.796 67.376V61.376H205.812V80H203.892V78.224H203.796C203.588 78.592 203.292 78.944 202.908 79.28C202.524 79.616 202.068 79.88 201.54 80.072C201.028 80.28 200.452 80.384 199.812 80.384ZM200.028 78.536C200.796 78.536 201.468 78.352 202.044 77.984C202.62 77.616 203.068 77.072 203.388 76.352C203.724 75.616 203.892 74.728 203.892 73.688C203.892 72.632 203.724 71.744 203.388 71.024C203.068 70.304 202.62 69.76 202.044 69.392C201.468 69.024 200.796 68.84 200.028 68.84C199.276 68.84 198.604 69.024 198.012 69.392C197.436 69.76 196.988 70.304 196.668 71.024C196.348 71.744 196.188 72.632 196.188 73.688C196.188 74.728 196.348 75.616 196.668 76.352C196.988 77.072 197.436 77.616 198.012 77.984C198.604 78.352 199.276 78.536 200.028 78.536ZM209.283 80V67.376H211.299V80H209.283ZM210.291 64.304C209.891 64.304 209.547 64.16 209.259 63.872C208.971 63.584 208.827 63.24 208.827 62.84C208.827 62.424 208.971 62.08 209.259 61.808C209.547 61.52 209.891 61.376 210.291 61.376C210.707 61.376 211.051 61.52 211.323 61.808C211.611 62.08 211.755 62.424 211.755 62.84C211.755 63.24 211.611 63.584 211.323 63.872C211.051 64.16 210.707 64.304 210.291 64.304ZM218.466 80.384C217.602 80.384 216.842 80.224 216.186 79.904C215.53 79.584 215.018 79.136 214.65 78.56C214.282 77.968 214.098 77.272 214.098 76.472C214.098 75.624 214.314 74.92 214.746 74.36C215.194 73.784 215.778 73.352 216.498 73.064C217.234 72.776 218.026 72.632 218.874 72.632C219.37 72.632 219.826 72.656 220.242 72.704C220.674 72.736 221.082 72.792 221.466 72.872C221.866 72.952 222.25 73.056 222.618 73.184V71.792C222.618 70.88 222.314 70.16 221.706 69.632C221.098 69.088 220.322 68.816 219.378 68.816C218.546 68.816 217.858 69.008 217.314 69.392C216.77 69.76 216.394 70.312 216.186 71.048L214.362 70.592C214.506 69.84 214.81 69.2 215.274 68.672C215.738 68.128 216.322 67.712 217.026 67.424C217.746 67.136 218.53 66.992 219.378 66.992C221.026 66.992 222.298 67.408 223.194 68.24C224.106 69.072 224.562 70.24 224.562 71.744V80H222.618V78.344H222.522C222.298 78.664 222.002 78.984 221.634 79.304C221.266 79.624 220.818 79.88 220.29 80.072C219.778 80.28 219.17 80.384 218.466 80.384ZM218.826 78.608C219.562 78.608 220.21 78.448 220.77 78.128C221.346 77.808 221.794 77.368 222.114 76.808C222.45 76.232 222.618 75.592 222.618 74.888C222.026 74.664 221.458 74.504 220.914 74.408C220.37 74.312 219.81 74.264 219.234 74.264C218.322 74.264 217.578 74.44 217.002 74.792C216.442 75.128 216.162 75.688 216.162 76.472C216.162 77.112 216.41 77.632 216.906 78.032C217.418 78.416 218.058 78.608 218.826 78.608ZM229.26 80.144C228.844 80.144 228.484 79.992 228.18 79.688C227.876 79.384 227.724 79.024 227.724 78.608C227.724 78.192 227.876 77.832 228.18 77.528C228.484 77.224 228.844 77.072 229.26 77.072C229.676 77.072 230.036 77.224 230.34 77.528C230.644 77.832 230.796 78.192 230.796 78.608C230.796 79.024 230.644 79.384 230.34 79.688C230.036 79.992 229.676 80.144 229.26 80.144ZM239.168 85.568C238.208 85.568 237.36 85.392 236.624 85.04C235.888 84.704 235.288 84.256 234.824 83.696C234.36 83.136 234.056 82.52 233.912 81.848L235.808 81.368C236.016 82.024 236.4 82.576 236.96 83.024C237.52 83.488 238.256 83.72 239.168 83.72C240.416 83.72 241.344 83.344 241.952 82.592C242.576 81.856 242.888 80.84 242.888 79.544V77.648H242.792C242.408 78.336 241.88 78.888 241.208 79.304C240.536 79.704 239.696 79.904 238.688 79.904C237.728 79.904 236.84 79.656 236.024 79.16C235.224 78.664 234.576 77.936 234.08 76.976C233.6 76.016 233.36 74.84 233.36 73.448C233.36 72.04 233.6 70.864 234.08 69.92C234.576 68.96 235.24 68.232 236.072 67.736C236.904 67.24 237.824 66.992 238.832 66.992C239.744 66.992 240.544 67.192 241.232 67.592C241.92 67.976 242.44 68.472 242.792 69.08H242.888V67.376H244.808V79.568C244.808 80.928 244.56 82.048 244.064 82.928C243.584 83.824 242.92 84.488 242.072 84.92C241.224 85.352 240.256 85.568 239.168 85.568ZM239.144 78.056C239.832 78.056 240.456 77.888 241.016 77.552C241.576 77.216 242.024 76.712 242.36 76.04C242.712 75.352 242.888 74.488 242.888 73.448C242.888 72.408 242.712 71.552 242.36 70.88C242.024 70.192 241.576 69.68 241.016 69.344C240.456 69.008 239.832 68.84 239.144 68.84C238.472 68.84 237.848 69.008 237.272 69.344C236.696 69.68 236.232 70.192 235.88 70.88C235.528 71.552 235.352 72.408 235.352 73.448C235.352 74.488 235.528 75.352 235.88 76.04C236.232 76.712 236.696 77.216 237.272 77.552C237.848 77.888 238.472 78.056 239.144 78.056ZM253.47 80.384C252.238 80.384 251.166 80.104 250.254 79.544C249.358 78.968 248.662 78.176 248.166 77.168C247.67 76.16 247.422 75 247.422 73.688C247.422 72.36 247.67 71.2 248.166 70.208C248.662 69.2 249.358 68.416 250.254 67.856C251.166 67.28 252.238 66.992 253.47 66.992C254.702 66.992 255.766 67.28 256.662 67.856C257.558 68.416 258.246 69.2 258.726 70.208C259.222 71.2 259.47 72.36 259.47 73.688C259.47 75 259.222 76.16 258.726 77.168C258.246 78.176 257.558 78.968 256.662 79.544C255.766 80.104 254.702 80.384 253.47 80.384ZM253.47 78.536C254.254 78.536 254.942 78.344 255.534 77.96C256.142 77.576 256.614 77.024 256.95 76.304C257.286 75.584 257.454 74.712 257.454 73.688C257.454 72.664 257.286 71.792 256.95 71.072C256.614 70.352 256.142 69.8 255.534 69.416C254.942 69.032 254.254 68.84 253.47 68.84C252.686 68.84 251.99 69.032 251.382 69.416C250.774 69.8 250.294 70.352 249.942 71.072C249.606 71.792 249.438 72.664 249.438 73.688C249.438 74.712 249.606 75.584 249.942 76.304C250.294 77.024 250.774 77.576 251.382 77.96C251.99 78.344 252.686 78.536 253.47 78.536ZM267.533 80.384C266.301 80.384 265.229 80.104 264.317 79.544C263.421 78.968 262.725 78.176 262.229 77.168C261.733 76.16 261.485 75 261.485 73.688C261.485 72.36 261.733 71.2 262.229 70.208C262.725 69.2 263.421 68.416 264.317 67.856C265.229 67.28 266.301 66.992 267.533 66.992C268.765 66.992 269.829 67.28 270.725 67.856C271.621 68.416 272.309 69.2 272.789 70.208C273.285 71.2 273.533 72.36 273.533 73.688C273.533 75 273.285 76.16 272.789 77.168C272.309 78.176 271.621 78.968 270.725 79.544C269.829 80.104 268.765 80.384 267.533 80.384ZM267.533 78.536C268.317 78.536 269.005 78.344 269.597 77.96C270.205 77.576 270.677 77.024 271.013 76.304C271.349 75.584 271.517 74.712 271.517 73.688C271.517 72.664 271.349 71.792 271.013 71.072C270.677 70.352 270.205 69.8 269.597 69.416C269.005 69.032 268.317 68.84 267.533 68.84C266.749 68.84 266.053 69.032 265.445 69.416C264.837 69.8 264.357 70.352 264.005 71.072C263.669 71.792 263.501 72.664 263.501 73.688C263.501 74.712 263.669 75.584 264.005 76.304C264.357 77.024 264.837 77.576 265.445 77.96C266.053 78.344 266.749 78.536 267.533 78.536ZM281.355 85.568C280.395 85.568 279.547 85.392 278.811 85.04C278.075 84.704 277.475 84.256 277.011 83.696C276.547 83.136 276.243 82.52 276.099 81.848L277.995 81.368C278.203 82.024 278.587 82.576 279.147 83.024C279.707 83.488 280.443 83.72 281.355 83.72C282.603 83.72 283.531 83.344 284.139 82.592C284.763 81.856 285.075 80.84 285.075 79.544V77.648H284.979C284.595 78.336 284.067 78.888 283.395 79.304C282.723 79.704 281.883 79.904 280.875 79.904C279.915 79.904 279.027 79.656 278.211 79.16C277.411 78.664 276.763 77.936 276.267 76.976C275.787 76.016 275.547 74.84 275.547 73.448C275.547 72.04 275.787 70.864 276.267 69.92C276.763 68.96 277.427 68.232 278.259 67.736C279.091 67.24 280.011 66.992 281.019 66.992C281.931 66.992 282.731 67.192 283.419 67.592C284.107 67.976 284.627 68.472 284.979 69.08H285.075V67.376H286.995V79.568C286.995 80.928 286.747 82.048 286.251 82.928C285.771 83.824 285.107 84.488 284.259 84.92C283.411 85.352 282.443 85.568 281.355 85.568ZM281.331 78.056C282.019 78.056 282.643 77.888 283.203 77.552C283.763 77.216 284.211 76.712 284.547 76.04C284.899 75.352 285.075 74.488 285.075 73.448C285.075 72.408 284.899 71.552 284.547 70.88C284.211 70.192 283.763 69.68 283.203 69.344C282.643 69.008 282.019 68.84 281.331 68.84C280.659 68.84 280.035 69.008 279.459 69.344C278.883 69.68 278.419 70.192 278.067 70.88C277.715 71.552 277.539 72.408 277.539 73.448C277.539 74.488 277.715 75.352 278.067 76.04C278.419 76.712 278.883 77.216 279.459 77.552C280.035 77.888 280.659 78.056 281.331 78.056ZM290.471 80V61.376H292.487V80H290.471ZM300.949 80.384C299.765 80.384 298.733 80.096 297.853 79.52C296.989 78.928 296.317 78.128 295.837 77.12C295.373 76.112 295.141 74.976 295.141 73.712C295.141 72.416 295.381 71.264 295.861 70.256C296.357 69.232 297.037 68.432 297.901 67.856C298.781 67.28 299.789 66.992 300.925 66.992C302.141 66.992 303.165 67.232 303.997 67.712C304.845 68.192 305.493 68.88 305.941 69.776C306.389 70.656 306.613 71.712 306.613 72.944C306.613 73.152 306.605 73.36 306.589 73.568C306.589 73.76 306.581 73.928 306.565 74.072H297.157C297.189 74.936 297.349 75.688 297.637 76.328C297.957 77.048 298.405 77.6 298.981 77.984C299.573 78.352 300.253 78.536 301.021 78.536C302.029 78.536 302.789 78.328 303.301 77.912C303.829 77.48 304.213 76.928 304.453 76.256L306.229 76.736C305.973 77.76 305.405 78.624 304.525 79.328C303.661 80.032 302.469 80.384 300.949 80.384ZM297.253 72.392H304.501C304.485 71.848 304.397 71.36 304.237 70.928C304.093 70.48 303.869 70.104 303.565 69.8C303.277 69.48 302.909 69.24 302.461 69.08C302.029 68.904 301.517 68.816 300.925 68.816C300.173 68.816 299.509 69.008 298.933 69.392C298.373 69.76 297.941 70.304 297.637 71.024C297.461 71.424 297.333 71.88 297.253 72.392ZM310.705 80.144C310.289 80.144 309.929 79.992 309.625 79.688C309.321 79.384 309.169 79.024 309.169 78.608C309.169 78.192 309.321 77.832 309.625 77.528C309.929 77.224 310.289 77.072 310.705 77.072C311.121 77.072 311.481 77.224 311.785 77.528C312.089 77.832 312.241 78.192 312.241 78.608C312.241 79.024 312.089 79.384 311.785 79.688C311.481 79.992 311.121 80.144 310.705 80.144ZM320.685 80.384C319.501 80.384 318.469 80.112 317.589 79.568C316.709 79.008 316.021 78.224 315.525 77.216C315.045 76.208 314.805 75.032 314.805 73.688C314.805 72.328 315.061 71.152 315.573 70.16C316.085 69.152 316.789 68.376 317.685 67.832C318.581 67.272 319.605 66.992 320.757 66.992C322.277 66.992 323.493 67.384 324.405 68.168C325.317 68.936 325.861 69.928 326.037 71.144L324.093 71.48C323.933 70.712 323.565 70.08 322.989 69.584C322.429 69.088 321.677 68.84 320.733 68.84C319.965 68.84 319.285 69.032 318.693 69.416C318.117 69.784 317.661 70.328 317.325 71.048C316.989 71.768 316.821 72.648 316.821 73.688C316.821 74.712 316.989 75.592 317.325 76.328C317.661 77.048 318.117 77.6 318.693 77.984C319.285 78.352 319.965 78.536 320.733 78.536C321.629 78.536 322.349 78.32 322.893 77.888C323.437 77.44 323.837 76.784 324.093 75.92L325.941 76.376C325.653 77.576 325.061 78.544 324.165 79.28C323.285 80.016 322.125 80.384 320.685 80.384ZM333.908 80.384C332.676 80.384 331.604 80.104 330.692 79.544C329.796 78.968 329.1 78.176 328.604 77.168C328.108 76.16 327.86 75 327.86 73.688C327.86 72.36 328.108 71.2 328.604 70.208C329.1 69.2 329.796 68.416 330.692 67.856C331.604 67.28 332.676 66.992 333.908 66.992C335.14 66.992 336.204 67.28 337.1 67.856C337.996 68.416 338.684 69.2 339.164 70.208C339.66 71.2 339.908 72.36 339.908 73.688C339.908 75 339.66 76.16 339.164 77.168C338.684 78.176 337.996 78.968 337.1 79.544C336.204 80.104 335.14 80.384 333.908 80.384ZM333.908 78.536C334.692 78.536 335.38 78.344 335.972 77.96C336.58 77.576 337.052 77.024 337.388 76.304C337.724 75.584 337.892 74.712 337.892 73.688C337.892 72.664 337.724 71.792 337.388 71.072C337.052 70.352 336.58 69.8 335.972 69.416C335.38 69.032 334.692 68.84 333.908 68.84C333.124 68.84 332.428 69.032 331.82 69.416C331.212 69.8 330.732 70.352 330.38 71.072C330.044 71.792 329.876 72.664 329.876 73.688C329.876 74.712 330.044 75.584 330.38 76.304C330.732 77.024 331.212 77.576 331.82 77.96C332.428 78.344 333.124 78.536 333.908 78.536ZM342.432 80V67.376H344.352V68.984H344.448C344.656 68.6 344.936 68.264 345.288 67.976C345.64 67.672 346.04 67.432 346.488 67.256C346.952 67.08 347.44 66.992 347.952 66.992C348.8 66.992 349.52 67.192 350.112 67.592C350.704 67.976 351.128 68.504 351.384 69.176C351.752 68.52 352.264 67.992 352.92 67.592C353.592 67.192 354.368 66.992 355.248 66.992C356.496 66.992 357.456 67.376 358.128 68.144C358.816 68.896 359.16 69.92 359.16 71.216V80H357.168V71.552C357.168 70.608 356.952 69.92 356.52 69.488C356.104 69.04 355.504 68.816 354.72 68.816C354.16 68.816 353.656 68.96 353.208 69.248C352.776 69.536 352.432 69.928 352.176 70.424C351.936 70.92 351.816 71.48 351.816 72.104V80H349.8V71.576C349.8 70.632 349.584 69.936 349.152 69.488C348.72 69.04 348.12 68.816 347.352 68.816C346.792 68.816 346.288 68.968 345.84 69.272C345.408 69.56 345.064 69.96 344.808 70.472C344.568 70.968 344.448 71.528 344.448 72.152V80H342.432ZM360.812 80L366.621 62.816H368.493L362.685 80H360.812ZM373.466 80.384C372.282 80.384 371.25 80.112 370.37 79.568C369.49 79.008 368.802 78.224 368.306 77.216C367.826 76.208 367.586 75.032 367.586 73.688C367.586 72.328 367.842 71.152 368.354 70.16C368.866 69.152 369.57 68.376 370.466 67.832C371.362 67.272 372.386 66.992 373.538 66.992C375.058 66.992 376.274 67.384 377.186 68.168C378.098 68.936 378.642 69.928 378.818 71.144L376.874 71.48C376.714 70.712 376.346 70.08 375.77 69.584C375.21 69.088 374.458 68.84 373.514 68.84C372.746 68.84 372.066 69.032 371.474 69.416C370.898 69.784 370.442 70.328 370.106 71.048C369.77 71.768 369.602 72.648 369.602 73.688C369.602 74.712 369.77 75.592 370.106 76.328C370.442 77.048 370.898 77.6 371.474 77.984C372.066 78.352 372.746 78.536 373.514 78.536C374.41 78.536 375.13 78.32 375.674 77.888C376.218 77.44 376.618 76.784 376.874 75.92L378.722 76.376C378.434 77.576 377.842 78.544 376.946 79.28C376.066 80.016 374.906 80.384 373.466 80.384ZM386.689 80.384C385.457 80.384 384.385 80.104 383.473 79.544C382.577 78.968 381.881 78.176 381.385 77.168C380.889 76.16 380.641 75 380.641 73.688C380.641 72.36 380.889 71.2 381.385 70.208C381.881 69.2 382.577 68.416 383.473 67.856C384.385 67.28 385.457 66.992 386.689 66.992C387.921 66.992 388.985 67.28 389.881 67.856C390.777 68.416 391.465 69.2 391.945 70.208C392.441 71.2 392.689 72.36 392.689 73.688C392.689 75 392.441 76.16 391.945 77.168C391.465 78.176 390.777 78.968 389.881 79.544C388.985 80.104 387.921 80.384 386.689 80.384ZM386.689 78.536C387.473 78.536 388.161 78.344 388.753 77.96C389.361 77.576 389.833 77.024 390.169 76.304C390.505 75.584 390.673 74.712 390.673 73.688C390.673 72.664 390.505 71.792 390.169 71.072C389.833 70.352 389.361 69.8 388.753 69.416C388.161 69.032 387.473 68.84 386.689 68.84C385.905 68.84 385.209 69.032 384.601 69.416C383.993 69.8 383.513 70.352 383.161 71.072C382.825 71.792 382.657 72.664 382.657 73.688C382.657 74.712 382.825 75.584 383.161 76.304C383.513 77.024 383.993 77.576 384.601 77.96C385.209 78.344 385.905 78.536 386.689 78.536ZM395.213 80V67.376H397.133V69.032H397.229C397.533 68.44 398.013 67.952 398.669 67.568C399.341 67.184 400.109 66.992 400.973 66.992C402.397 66.992 403.485 67.408 404.237 68.24C405.005 69.072 405.389 70.2 405.389 71.624V80H403.373V71.888C403.373 70.784 403.093 70 402.533 69.536C401.989 69.072 401.309 68.84 400.493 68.84C399.821 68.84 399.237 69.008 398.741 69.344C398.261 69.664 397.885 70.096 397.613 70.64C397.357 71.168 397.229 71.76 397.229 72.416V80H395.213ZM407.213 67.376H409.205V63.92H411.221V67.376H414.077V69.224H411.221V76.376C411.221 76.984 411.357 77.456 411.629 77.792C411.901 78.128 412.309 78.296 412.853 78.296C413.125 78.296 413.357 78.264 413.549 78.2C413.757 78.136 413.949 78.048 414.125 77.936V79.904C413.917 79.984 413.693 80.048 413.453 80.096C413.213 80.16 412.901 80.192 412.517 80.192C411.525 80.192 410.725 79.896 410.117 79.304C409.509 78.696 409.205 77.856 409.205 76.784V69.224H407.213V67.376ZM416.846 80V67.376H418.766V69.128H418.862C419.022 68.712 419.27 68.344 419.606 68.024C419.942 67.704 420.326 67.456 420.758 67.28C421.206 67.104 421.662 67.016 422.126 67.016C422.43 67.016 422.678 67.032 422.87 67.064C423.062 67.096 423.23 67.144 423.374 67.208V69.344C423.15 69.232 422.91 69.152 422.654 69.104C422.398 69.056 422.134 69.032 421.862 69.032C421.302 69.032 420.79 69.192 420.326 69.512C419.878 69.832 419.518 70.264 419.246 70.808C418.99 71.336 418.862 71.92 418.862 72.56V80H416.846ZM430.517 80.384C429.285 80.384 428.213 80.104 427.301 79.544C426.405 78.968 425.709 78.176 425.213 77.168C424.717 76.16 424.469 75 424.469 73.688C424.469 72.36 424.717 71.2 425.213 70.208C425.709 69.2 426.405 68.416 427.301 67.856C428.213 67.28 429.285 66.992 430.517 66.992C431.749 66.992 432.813 67.28 433.709 67.856C434.605 68.416 435.293 69.2 435.773 70.208C436.269 71.2 436.517 72.36 436.517 73.688C436.517 75 436.269 76.16 435.773 77.168C435.293 78.176 434.605 78.968 433.709 79.544C432.813 80.104 431.749 80.384 430.517 80.384ZM430.517 78.536C431.301 78.536 431.989 78.344 432.581 77.96C433.189 77.576 433.661 77.024 433.997 76.304C434.333 75.584 434.501 74.712 434.501 73.688C434.501 72.664 434.333 71.792 433.997 71.072C433.661 70.352 433.189 69.8 432.581 69.416C431.989 69.032 431.301 68.84 430.517 68.84C429.733 68.84 429.037 69.032 428.429 69.416C427.821 69.8 427.341 70.352 426.989 71.072C426.653 71.792 426.485 72.664 426.485 73.688C426.485 74.712 426.653 75.584 426.989 76.304C427.341 77.024 427.821 77.576 428.429 77.96C429.037 78.344 429.733 78.536 430.517 78.536ZM439.158 80V61.376H441.174V80H439.158ZM444.69 80V61.376H446.706V80H444.69ZM455.168 80.384C453.984 80.384 452.952 80.096 452.072 79.52C451.208 78.928 450.536 78.128 450.056 77.12C449.592 76.112 449.36 74.976 449.36 73.712C449.36 72.416 449.6 71.264 450.08 70.256C450.576 69.232 451.256 68.432 452.12 67.856C453 67.28 454.008 66.992 455.144 66.992C456.36 66.992 457.384 67.232 458.216 67.712C459.064 68.192 459.712 68.88 460.16 69.776C460.608 70.656 460.832 71.712 460.832 72.944C460.832 73.152 460.824 73.36 460.808 73.568C460.808 73.76 460.8 73.928 460.784 74.072H451.376C451.408 74.936 451.568 75.688 451.856 76.328C452.176 77.048 452.624 77.6 453.2 77.984C453.792 78.352 454.472 78.536 455.24 78.536C456.248 78.536 457.008 78.328 457.52 77.912C458.048 77.48 458.432 76.928 458.672 76.256L460.448 76.736C460.192 77.76 459.624 78.624 458.744 79.328C457.88 80.032 456.688 80.384 455.168 80.384ZM451.472 72.392H458.72C458.704 71.848 458.616 71.36 458.456 70.928C458.312 70.48 458.088 70.104 457.784 69.8C457.496 69.48 457.128 69.24 456.68 69.08C456.248 68.904 455.736 68.816 455.144 68.816C454.392 68.816 453.728 69.008 453.152 69.392C452.592 69.76 452.16 70.304 451.856 71.024C451.68 71.424 451.552 71.88 451.472 72.392ZM463.58 80V67.376H465.5V69.128H465.596C465.756 68.712 466.004 68.344 466.34 68.024C466.676 67.704 467.06 67.456 467.492 67.28C467.94 67.104 468.396 67.016 468.86 67.016C469.164 67.016 469.412 67.032 469.604 67.064C469.796 67.096 469.964 67.144 470.108 67.208V69.344C469.884 69.232 469.644 69.152 469.388 69.104C469.132 69.056 468.868 69.032 468.596 69.032C468.036 69.032 467.524 69.192 467.06 69.512C466.612 69.832 466.252 70.264 465.98 70.808C465.724 71.336 465.596 71.92 465.596 72.56V80H463.58Z" fill="#8E918F"/>
</g>
<mask id="mask2_1998_38042" style="mask-type:alpha" maskUnits="userSpaceOnUse" x="617" y="-119" width="635" height="626">
<rect x="617.578" y="-119" width="634.422" height="626" fill="url(#paint2_radial_1998_38042)"/>
</mask>
<g mask="url(#mask2_1998_38042)">
<g filter="url(#filter1_d_1998_38042)">
<rect x="437.596" y="-311.734" width="765.163" height="763.648" rx="14.1697" fill="#1F1F1F" shape-rendering="crispEdges"/>
<rect x="437.596" y="-311.734" width="765.163" height="763.648" rx="14.1697" fill="#D1E1FF" fill-opacity="0.05" shape-rendering="crispEdges"/>
<g clip-path="url(#clip3_1998_38042)">
</g>
<rect x="466.821" y="-218.339" width="706.713" height="544.337" rx="6.19924" stroke="#757575" stroke-width="1.77121"/>
<path d="M902.654 398.647L909.077 380.893H912.177L918.624 398.647H915.648L914.086 394.085H907.168L905.605 398.647H902.654ZM913.218 391.556L911.333 386.125L910.713 384.092H910.565L909.92 386.125L908.035 391.556H913.218ZM923.185 398.647L918.151 385.604H921.077L924.499 395.201H924.648L928.119 385.604H930.971L925.887 398.647H923.185ZM939.797 399.044C939.152 399.044 938.565 398.945 938.036 398.747C937.524 398.565 937.077 398.317 936.697 398.003C936.333 397.689 936.027 397.35 935.78 396.986H935.631V398.647H933.126V379.405H935.78V385.406L935.631 387.266H935.78C935.994 386.919 936.292 386.588 936.672 386.274C937.052 385.96 937.507 385.703 938.036 385.505C938.582 385.307 939.177 385.208 939.821 385.208C940.962 385.208 941.962 385.489 942.822 386.051C943.698 386.613 944.384 387.414 944.88 388.456C945.376 389.481 945.624 390.704 945.624 392.126C945.624 393.531 945.376 394.754 944.88 395.796C944.384 396.837 943.698 397.639 942.822 398.201C941.946 398.763 940.937 399.044 939.797 399.044ZM939.301 396.589C940.012 396.589 940.64 396.416 941.185 396.069C941.747 395.721 942.185 395.217 942.499 394.556C942.814 393.895 942.971 393.085 942.971 392.126C942.971 391.167 942.814 390.357 942.499 389.696C942.185 389.035 941.747 388.53 941.185 388.183C940.64 387.836 940.012 387.662 939.301 387.662C938.606 387.662 937.978 387.836 937.416 388.183C936.871 388.53 936.433 389.035 936.102 389.696C935.788 390.357 935.631 391.167 935.631 392.126C935.631 393.085 935.788 393.895 936.102 394.556C936.433 395.217 936.871 395.721 937.416 396.069C937.978 396.416 938.606 396.589 939.301 396.589ZM948.237 398.647V385.604H950.741V387.365H950.89C951.072 386.952 951.32 386.588 951.634 386.274C951.965 385.943 952.345 385.687 952.775 385.505C953.221 385.323 953.7 385.232 954.213 385.232C954.527 385.232 954.783 385.249 954.982 385.282C955.18 385.315 955.354 385.356 955.502 385.406V388.109C955.271 387.993 955.015 387.91 954.734 387.861C954.453 387.795 954.147 387.762 953.816 387.762C953.254 387.762 952.75 387.91 952.304 388.208C951.874 388.506 951.527 388.919 951.262 389.448C951.014 389.977 950.89 390.572 950.89 391.233V398.647H948.237ZM959.689 404.128C959.309 404.128 958.945 404.095 958.598 404.028C958.251 403.962 957.945 403.871 957.681 403.756V401.226C957.846 401.309 958.086 401.408 958.4 401.524C958.731 401.656 959.103 401.722 959.516 401.722C959.863 401.722 960.169 401.656 960.433 401.524C960.714 401.392 960.971 401.168 961.202 400.854C961.45 400.557 961.69 400.135 961.921 399.59L962.442 398.35L957.234 385.604H960.21L963.781 394.804H963.88L967.401 385.604H970.302L964.202 400.482C963.855 401.359 963.467 402.061 963.037 402.59C962.607 403.136 962.119 403.524 961.574 403.756C961.045 404.004 960.417 404.128 959.689 404.128ZM971.436 385.604H973.544V382.034H976.197V385.604H979.173V387.935H976.197V394.506C976.197 395.101 976.329 395.556 976.594 395.87C976.858 396.184 977.263 396.341 977.809 396.341C978.106 396.341 978.363 396.308 978.577 396.242C978.792 396.16 979.007 396.052 979.222 395.92V398.499C978.958 398.598 978.668 398.681 978.354 398.747C978.057 398.813 977.701 398.846 977.288 398.846C976.147 398.846 975.238 398.507 974.56 397.829C973.883 397.135 973.544 396.184 973.544 394.978V387.935H971.436V385.604Z" fill="#757575"/>
<rect x="874.778" y="359.651" width="132.908" height="61.9924" rx="6.19924" stroke="#444746" stroke-width="1.77121"/>
<g filter="url(#filter2_d_1998_38042)">
<rect x="1022.74" y="358.766" width="151.679" height="63.7636" rx="7.08484" fill="#FDFCFB" shape-rendering="crispEdges"/>
<path d="M1053.44 398.647V380.893H1056.15V389.522L1063.16 380.893H1066.51V381.042L1060.26 388.481L1067.06 398.499V398.647H1063.78L1058.43 390.663L1056.15 393.391V398.647H1053.44ZM1074.22 399.044C1072.92 399.044 1071.79 398.755 1070.83 398.176C1069.87 397.581 1069.12 396.763 1068.59 395.721C1068.08 394.68 1067.83 393.481 1067.83 392.126C1067.83 390.754 1068.08 389.555 1068.59 388.53C1069.12 387.489 1069.87 386.679 1070.83 386.1C1071.79 385.505 1072.92 385.208 1074.22 385.208C1075.55 385.208 1076.68 385.505 1077.62 386.1C1078.58 386.679 1079.32 387.489 1079.83 388.53C1080.36 389.555 1080.62 390.754 1080.62 392.126C1080.62 393.481 1080.36 394.68 1079.83 395.721C1079.32 396.763 1078.58 397.581 1077.62 398.176C1076.68 398.755 1075.55 399.044 1074.22 399.044ZM1074.22 396.589C1074.97 396.589 1075.62 396.416 1076.18 396.069C1076.74 395.721 1077.18 395.217 1077.5 394.556C1077.81 393.878 1077.97 393.068 1077.97 392.126C1077.97 391.167 1077.81 390.357 1077.5 389.696C1077.18 389.035 1076.74 388.53 1076.18 388.183C1075.62 387.836 1074.98 387.662 1074.25 387.662C1073.5 387.662 1072.85 387.836 1072.29 388.183C1071.73 388.53 1071.28 389.035 1070.95 389.696C1070.64 390.357 1070.48 391.167 1070.48 392.126C1070.48 393.085 1070.64 393.895 1070.95 394.556C1071.28 395.217 1071.73 395.721 1072.29 396.069C1072.87 396.416 1073.51 396.589 1074.22 396.589ZM1090.01 399.044C1089.37 399.044 1088.78 398.945 1088.25 398.747C1087.74 398.565 1087.29 398.317 1086.91 398.003C1086.55 397.689 1086.24 397.35 1086 396.986H1085.85V398.647H1083.34V379.405H1086V385.406L1085.85 387.266H1086C1086.21 386.919 1086.51 386.588 1086.89 386.274C1087.27 385.96 1087.72 385.703 1088.25 385.505C1088.8 385.307 1089.39 385.208 1090.04 385.208C1091.18 385.208 1092.18 385.489 1093.04 386.051C1093.91 386.613 1094.6 387.414 1095.1 388.456C1095.59 389.481 1095.84 390.704 1095.84 392.126C1095.84 393.531 1095.59 394.754 1095.1 395.796C1094.6 396.837 1093.91 397.639 1093.04 398.201C1092.16 398.763 1091.15 399.044 1090.01 399.044ZM1089.52 396.589C1090.23 396.589 1090.86 396.416 1091.4 396.069C1091.96 395.721 1092.4 395.217 1092.72 394.556C1093.03 393.895 1093.19 393.085 1093.19 392.126C1093.19 391.167 1093.03 390.357 1092.72 389.696C1092.4 389.035 1091.96 388.53 1091.4 388.183C1090.86 387.836 1090.23 387.662 1089.52 387.662C1088.82 387.662 1088.19 387.836 1087.63 388.183C1087.09 388.53 1086.65 389.035 1086.32 389.696C1086 390.357 1085.85 391.167 1085.85 392.126C1085.85 393.085 1086 393.895 1086.32 394.556C1086.65 395.217 1087.09 395.721 1087.63 396.069C1088.19 396.416 1088.82 396.589 1089.52 396.589ZM1098.57 398.647V379.405H1101.25V398.647H1098.57ZM1110.18 399.044C1108.92 399.044 1107.82 398.755 1106.88 398.176C1105.96 397.581 1105.24 396.763 1104.72 395.721C1104.23 394.68 1103.98 393.49 1103.98 392.151C1103.98 390.762 1104.24 389.547 1104.77 388.506C1105.3 387.464 1106.03 386.654 1106.96 386.075C1107.9 385.497 1108.97 385.208 1110.18 385.208C1111.5 385.208 1112.6 385.455 1113.48 385.951C1114.37 386.447 1115.04 387.158 1115.49 388.084C1115.95 389.01 1116.18 390.117 1116.18 391.407C1116.18 391.638 1116.17 391.87 1116.16 392.101C1116.16 392.316 1116.14 392.514 1116.11 392.696H1106.58C1106.63 393.44 1106.78 394.085 1107.03 394.63C1107.34 395.292 1107.78 395.796 1108.34 396.143C1108.91 396.49 1109.55 396.664 1110.28 396.664C1111.19 396.664 1111.89 396.465 1112.39 396.069C1112.9 395.655 1113.27 395.143 1113.5 394.531L1115.83 395.151C1115.5 396.275 1114.87 397.209 1113.95 397.953C1113.02 398.681 1111.77 399.044 1110.18 399.044ZM1106.68 390.688H1113.55C1113.52 390.192 1113.43 389.745 1113.28 389.349C1113.13 388.952 1112.92 388.613 1112.63 388.332C1112.35 388.051 1112.01 387.836 1111.59 387.687C1111.2 387.538 1110.73 387.464 1110.2 387.464C1109.49 387.464 1108.86 387.646 1108.3 388.01C1107.75 388.357 1107.33 388.877 1107.03 389.572C1106.88 389.902 1106.77 390.274 1106.68 390.688ZM1124.36 385.604H1126.47V382.034H1129.13V385.604H1132.1V387.935H1129.13V394.506C1129.13 395.101 1129.26 395.556 1129.52 395.87C1129.79 396.184 1130.19 396.341 1130.74 396.341C1131.03 396.341 1131.29 396.308 1131.51 396.242C1131.72 396.16 1131.94 396.052 1132.15 395.92V398.499C1131.89 398.598 1131.6 398.681 1131.28 398.747C1130.99 398.813 1130.63 398.846 1130.22 398.846C1129.08 398.846 1128.17 398.507 1127.49 397.829C1126.81 397.135 1126.47 396.184 1126.47 394.978V387.935H1124.36V385.604ZM1135.09 398.647V385.604H1137.74V398.647H1135.09ZM1136.43 382.901C1135.93 382.901 1135.5 382.728 1135.14 382.381C1134.79 382.017 1134.62 381.587 1134.62 381.091C1134.62 380.579 1134.79 380.149 1135.14 379.802C1135.5 379.455 1135.93 379.281 1136.43 379.281C1136.93 379.281 1137.35 379.455 1137.7 379.802C1138.06 380.149 1138.24 380.579 1138.24 381.091C1138.24 381.587 1138.06 382.017 1137.7 382.381C1137.35 382.728 1136.93 382.901 1136.43 382.901ZM1141.36 398.647V379.405H1144.04V398.647H1141.36Z" fill="#1F1F1F"/>
</g>
<rect x="438.208" y="-311.121" width="763.938" height="762.423" rx="13.557" stroke="#444746" stroke-width="1.22528" shape-rendering="crispEdges"/>
</g>
</g>
<g filter="url(#filter3_dd_1998_38042)">
<path d="M359.998 265.25V225.25L388.998 254.25H371.998L370.998 254.5L359.998 265.25Z" fill="white"/>
<path d="M382.75 267L373.75 270.75L362 243L371.25 239.25L382.75 267Z" fill="white"/>
<path d="M371.689 246.795L367.078 248.731L374.82 267.173L379.431 265.237L371.689 246.795Z" fill="black"/>
<path d="M362.498 231.25V259.25L369.998 252L370.998 251.75H382.998L362.498 231.25Z" fill="black"/>
</g>
<g filter="url(#filter4_dd_1998_38042)">
<path d="M1106 450.25V410.25L1135 439.25H1118L1117 439.5L1106 450.25Z" fill="white"/>
<path d="M1128.75 452L1119.75 455.75L1108 428L1117.25 424.25L1128.75 452Z" fill="white"/>
<path d="M1117.69 431.795L1113.08 433.731L1120.82 452.173L1125.43 450.237L1117.69 431.795Z" fill="black"/>
<path d="M1108.5 416.25V444.25L1116 437L1117 436.75H1129L1108.5 416.25Z" fill="black"/>
</g>
<rect x="373" y="287" width="60" height="60" rx="30" fill="#7FCFFF"/>
<path d="M402.185 329V310.532L398.477 313.232L396.101 309.596L403.337 304.376H406.901V329H402.185Z" fill="#003355"/>
<rect x="1120" y="472" width="60" height="60" rx="30" fill="#7FCFFF"/>
<path d="M1141.87 514V509.716L1147.13 504.46C1147.94 503.644 1148.69 502.888 1149.36 502.192C1150.03 501.496 1150.52 500.992 1150.83 500.68C1151.39 500.08 1151.83 499.552 1152.17 499.096C1152.5 498.616 1152.74 498.16 1152.89 497.728C1153.03 497.272 1153.1 496.768 1153.1 496.216C1153.1 495.688 1152.97 495.196 1152.71 494.74C1152.44 494.284 1152.05 493.924 1151.52 493.66C1151.01 493.372 1150.4 493.228 1149.68 493.228C1148.96 493.228 1148.35 493.372 1147.85 493.66C1147.34 493.948 1146.93 494.32 1146.62 494.776C1146.31 495.232 1146.07 495.724 1145.9 496.252L1141.65 494.488C1141.85 493.84 1142.16 493.18 1142.59 492.508C1143.02 491.836 1143.57 491.224 1144.25 490.672C1144.92 490.096 1145.71 489.64 1146.62 489.304C1147.56 488.968 1148.6 488.8 1149.75 488.8C1151.43 488.8 1152.87 489.124 1154.07 489.772C1155.3 490.42 1156.23 491.284 1156.88 492.364C1157.55 493.444 1157.89 494.656 1157.89 496C1157.89 497.008 1157.72 497.98 1157.39 498.916C1157.05 499.828 1156.58 500.692 1155.98 501.508C1155.41 502.324 1154.75 503.092 1154 503.812C1153.67 504.148 1153.27 504.532 1152.81 504.964C1152.38 505.396 1151.94 505.84 1151.48 506.296C1151.03 506.752 1150.58 507.208 1150.15 507.664C1149.72 508.096 1149.32 508.492 1148.96 508.852C1148.63 509.188 1148.35 509.452 1148.13 509.644L1148.24 509.86H1158.21V514H1141.87Z" fill="#003355"/>
</g>
<defs>
<filter id="filter0_d_1998_38042" x="18.7985" y="62.7926" width="654.737" height="653.685" filterUnits="userSpaceOnUse" color-interpolation-filters="sRGB">
<feFlood flood-opacity="0" result="BackgroundImageFix"/>
<feColorMatrix in="SourceAlpha" type="matrix" values="0 0 0 0 0 0 0 0 0 0 0 0 0 0 0 0 0 0 127 0" result="hardAlpha"/>
<feOffset dy="12.3071"/>
<feGaussianBlur stdDeviation="30.7677"/>
<feComposite in2="hardAlpha" operator="out"/>
<feColorMatrix type="matrix" values="0 0 0 0 0 0 0 0 0 0 0 0 0 0 0 0 0 0 0.25 0"/>
<feBlend mode="normal" in2="BackgroundImageFix" result="effect1_dropShadow_1998_38042"/>
<feBlend mode="normal" in="SourceGraphic" in2="effect1_dropShadow_1998_38042" result="shape"/>
</filter>
<filter id="filter1_d_1998_38042" x="349.035" y="-382.582" width="942.283" height="940.769" filterUnits="userSpaceOnUse" color-interpolation-filters="sRGB">
<feFlood flood-opacity="0" result="BackgroundImageFix"/>
<feColorMatrix in="SourceAlpha" type="matrix" values="0 0 0 0 0 0 0 0 0 0 0 0 0 0 0 0 0 0 127 0" result="hardAlpha"/>
<feOffset dy="17.7121"/>
<feGaussianBlur stdDeviation="44.2803"/>
<feComposite in2="hardAlpha" operator="out"/>
<feColorMatrix type="matrix" values="0 0 0 0 0 0 0 0 0 0 0 0 0 0 0 0 0 0 0.25 0"/>
<feBlend mode="normal" in2="BackgroundImageFix" result="effect1_dropShadow_1998_38042"/>
<feBlend mode="normal" in="SourceGraphic" in2="effect1_dropShadow_1998_38042" result="shape"/>
</filter>
<filter id="filter2_d_1998_38042" x="972.74" y="308.766" width="251.68" height="163.764" filterUnits="userSpaceOnUse" color-interpolation-filters="sRGB">
<feFlood flood-opacity="0" result="BackgroundImageFix"/>
<feColorMatrix in="SourceAlpha" type="matrix" values="0 0 0 0 0 0 0 0 0 0 0 0 0 0 0 0 0 0 127 0" result="hardAlpha"/>
<feOffset/>
<feGaussianBlur stdDeviation="25"/>
<feComposite in2="hardAlpha" operator="out"/>
<feColorMatrix type="matrix" values="0 0 0 0 1 0 0 0 0 1 0 0 0 0 1 0 0 0 0.5 0"/>
<feBlend mode="normal" in2="BackgroundImageFix" result="effect1_dropShadow_1998_38042"/>
<feBlend mode="normal" in="SourceGraphic" in2="effect1_dropShadow_1998_38042" result="shape"/>
</filter>
<filter id="filter3_dd_1998_38042" x="317" y="202" width="110" height="110" filterUnits="userSpaceOnUse" color-interpolation-filters="sRGB">
<feFlood flood-opacity="0" result="BackgroundImageFix"/>
<feColorMatrix in="SourceAlpha" type="matrix" values="0 0 0 0 0 0 0 0 0 0 0 0 0 0 0 0 0 0 127 0" result="hardAlpha"/>
<feOffset dy="2.5"/>
<feGaussianBlur stdDeviation="2.5"/>
<feColorMatrix type="matrix" values="0 0 0 0 0 0 0 0 0 0 0 0 0 0 0 0 0 0 0.25 0"/>
<feBlend mode="normal" in2="BackgroundImageFix" result="effect1_dropShadow_1998_38042"/>
<feColorMatrix in="SourceAlpha" type="matrix" values="0 0 0 0 0 0 0 0 0 0 0 0 0 0 0 0 0 0 127 0" result="hardAlpha"/>
<feOffset dy="4"/>
<feGaussianBlur stdDeviation="7.5"/>
<feColorMatrix type="matrix" values="0 0 0 0 0.498039 0 0 0 0 0.811765 0 0 0 0 1 0 0 0 0.5 0"/>
<feBlend mode="normal" in2="effect1_dropShadow_1998_38042" result="effect2_dropShadow_1998_38042"/>
<feBlend mode="normal" in="SourceGraphic" in2="effect2_dropShadow_1998_38042" result="shape"/>
</filter>
<filter id="filter4_dd_1998_38042" x="1063" y="387" width="110" height="110" filterUnits="userSpaceOnUse" color-interpolation-filters="sRGB">
<feFlood flood-opacity="0" result="BackgroundImageFix"/>
<feColorMatrix in="SourceAlpha" type="matrix" values="0 0 0 0 0 0 0 0 0 0 0 0 0 0 0 0 0 0 127 0" result="hardAlpha"/>
<feOffset dy="2.5"/>
<feGaussianBlur stdDeviation="2.5"/>
<feColorMatrix type="matrix" values="0 0 0 0 0 0 0 0 0 0 0 0 0 0 0 0 0 0 0.25 0"/>
<feBlend mode="normal" in2="BackgroundImageFix" result="effect1_dropShadow_1998_38042"/>
<feColorMatrix in="SourceAlpha" type="matrix" values="0 0 0 0 0 0 0 0 0 0 0 0 0 0 0 0 0 0 127 0" result="hardAlpha"/>
<feOffset dy="4"/>
<feGaussianBlur stdDeviation="7.5"/>
<feColorMatrix type="matrix" values="0 0 0 0 0.498039 0 0 0 0 0.811765 0 0 0 0 1 0 0 0 0.5 0"/>
<feBlend mode="normal" in2="effect1_dropShadow_1998_38042" result="effect2_dropShadow_1998_38042"/>
<feBlend mode="normal" in="SourceGraphic" in2="effect2_dropShadow_1998_38042" result="shape"/>
</filter>
<linearGradient id="paint0_linear_1998_38042" x1="423.5" y1="88" x2="423.5" y2="670.75" gradientUnits="userSpaceOnUse">
<stop offset="0.21875" stop-color="white"/>
<stop offset="0.921875" stop-color="white" stop-opacity="0"/>
</linearGradient>
<linearGradient id="paint1_linear_1998_38042" x1="80" y1="72" x2="740" y2="72" gradientUnits="userSpaceOnUse">
<stop stop-color="white"/>
<stop offset="0.697917" stop-color="white" stop-opacity="0"/>
</linearGradient>
<radialGradient id="paint2_radial_1998_38042" cx="0" cy="0" r="1" gradientUnits="userSpaceOnUse" gradientTransform="translate(1092.93 388.52) scale(385.519 385.519)">
<stop stop-color="white"/>
<stop offset="1" stop-color="white" stop-opacity="0"/>
</radialGradient>
<clipPath id="clip0_1998_38042">
<rect width="1280" height="649" fill="white"/>
</clipPath>
<clipPath id="clip1_1998_38042">
<rect x="100.025" y="169.558" width="492.284" height="388.907" rx="4.92284" fill="white"/>
</clipPath>
<clipPath id="clip2_1998_38042">
<rect width="24.6142" height="24.6142" fill="white" transform="translate(100.025 590.464)"/>
</clipPath>
<clipPath id="clip3_1998_38042">
<rect x="465.936" y="-219.225" width="708.484" height="546.109" rx="7.08484" fill="white"/>
</clipPath>
</defs>
</svg>
