<svg width="1280" height="651" viewBox="0 0 1280 651" fill="none" xmlns="http://www.w3.org/2000/svg">
<g clip-path="url(#clip0_632_16021)">
<g opacity="0.2">
<ellipse rx="792.998" ry="792.5" transform="matrix(0 -1 -1 0 405.5 317.5)" fill="#7FCFFF" fill-opacity="0.1"/>
<path d="M405.5 -474.498C-31.6328 -474.498 -386 -119.909 -386 317.5C-386 754.909 -31.6328 1109.5 405.5 1109.5C842.633 1109.5 1197 754.909 1197 317.5C1197 -119.909 842.633 -474.498 405.5 -474.498Z" stroke="url(#paint0_linear_632_16021)" stroke-opacity="0.35" stroke-width="2"/>
</g>
<g opacity="0.25">
<circle r="688.459" transform="matrix(0 -1 -1 0 301.459 317.5)" fill="#7FCFFF" fill-opacity="0.1"/>
<circle r="687.459" transform="matrix(0 -1 -1 0 301.459 317.5)" stroke="url(#paint1_linear_632_16021)" stroke-opacity="0.35" stroke-width="2"/>
</g>
<g opacity="0.6" filter="url(#filter0_d_632_16021)">
<ellipse rx="491.33" ry="491.828" transform="matrix(0 -1 -1 0 301.957 317.5)" fill="#7FCFFF" fill-opacity="0.1" shape-rendering="crispEdges"/>
<path d="M301.957 -172.83C30.8796 -172.83 -188.871 46.6992 -188.871 317.5C-188.871 588.301 30.8796 807.83 301.957 807.83C573.035 807.83 792.785 588.301 792.785 317.5C792.785 46.6992 573.035 -172.83 301.957 -172.83Z" stroke="url(#paint2_linear_632_16021)" stroke-opacity="0.35" stroke-width="2" shape-rendering="crispEdges"/>
</g>
<g filter="url(#filter1_d_632_16021)">
<circle r="292.209" transform="matrix(0 -1 -1 0 302.455 318.496)" fill="#7FCFFF" fill-opacity="0.05" shape-rendering="crispEdges"/>
<circle r="291.209" transform="matrix(0 -1 -1 0 302.455 318.496)" stroke="url(#paint3_linear_632_16021)" stroke-opacity="0.35" stroke-width="2" shape-rendering="crispEdges"/>
</g>
<path d="M219.33 220.912V216.163C219.33 214.526 218.085 213.173 216.45 213.106C207.038 212.724 176.701 212.656 157.603 226.106C156.797 226.673 156.34 227.607 156.34 228.592V237.729" stroke="#7FCFFF" stroke-width="3.14675" stroke-miterlimit="10"/>
<path d="M388.12 220.912V216.163C388.12 214.526 389.365 213.173 391 213.106C400.412 212.724 430.749 212.656 449.848 226.106C450.653 226.673 451.11 227.607 451.11 228.592V237.729" stroke="#7FCFFF" stroke-width="3.14675" stroke-miterlimit="10"/>
<g filter="url(#filter2_d_632_16021)">
<path d="M515.389 436.167C507.379 375.325 490.436 309.286 475.341 269.846C460.554 230.1 421.431 222.151 384.771 222.151H222.424C185.765 222.151 146.641 230.1 131.854 269.846C117.067 309.592 100.124 375.325 91.8062 436.167C87.1853 466.435 109.366 484.779 129.081 486.919C148.797 489.059 172.518 481.722 184.224 451.759C195.931 422.103 200.859 396.727 225.504 396.727C246.452 396.727 360.435 396.727 381.383 396.727C406.028 396.727 410.957 422.103 422.663 451.759C434.369 481.416 458.09 489.059 477.806 486.919C497.521 484.779 520.01 466.435 515.389 436.167Z" fill="white" fill-opacity="0.05" shape-rendering="crispEdges"/>
<path d="M515.389 436.167C507.379 375.325 490.436 309.286 475.341 269.846C460.554 230.1 421.431 222.151 384.771 222.151H222.424C185.765 222.151 146.641 230.1 131.854 269.846C117.067 309.592 100.124 375.325 91.8062 436.167C87.1853 466.435 109.366 484.779 129.081 486.919C148.797 489.059 172.518 481.722 184.224 451.759C195.931 422.103 200.859 396.727 225.504 396.727C246.452 396.727 360.435 396.727 381.383 396.727C406.028 396.727 410.957 422.103 422.663 451.759C434.369 481.416 458.09 489.059 477.806 486.919C497.521 484.779 520.01 466.435 515.389 436.167Z" fill="url(#paint4_radial_632_16021)" fill-opacity="0.35" shape-rendering="crispEdges"/>
<path d="M515.389 436.167C507.379 375.325 490.436 309.286 475.341 269.846C460.554 230.1 421.431 222.151 384.771 222.151H222.424C185.765 222.151 146.641 230.1 131.854 269.846C117.067 309.592 100.124 375.325 91.8062 436.167C87.1853 466.435 109.366 484.779 129.081 486.919C148.797 489.059 172.518 481.722 184.224 451.759C195.931 422.103 200.859 396.727 225.504 396.727C246.452 396.727 360.435 396.727 381.383 396.727C406.028 396.727 410.957 422.103 422.663 451.759C434.369 481.416 458.09 489.059 477.806 486.919C497.521 484.779 520.01 466.435 515.389 436.167Z" stroke="#7FCFFF" stroke-width="3.93344" stroke-miterlimit="10" shape-rendering="crispEdges"/>
</g>
<path d="M211.399 281.62H199.119C198.25 281.62 197.546 280.915 197.546 280.047V267.767C197.546 261.918 192.62 256.993 186.772 256.993C180.923 256.993 175.997 261.918 175.997 267.767V280.047C175.997 280.915 175.293 281.62 174.424 281.62H162.144C156.296 281.62 151.37 286.545 151.37 292.394C151.37 298.243 156.296 303.168 162.144 303.168H174.424C175.293 303.168 175.997 303.873 175.997 304.742V317.021C175.997 322.87 180.923 327.795 186.772 327.795C192.62 327.795 197.546 322.87 197.546 317.021V304.742C197.546 303.873 198.25 303.168 199.119 303.168H211.399C217.248 303.168 222.173 298.243 222.173 292.394C222.173 286.545 217.555 281.62 211.399 281.62Z" stroke="#7FCFFF" stroke-width="2.36006" stroke-miterlimit="10"/>
<path d="M240.835 378.598C254.739 378.598 266.01 367.327 266.01 353.424C266.01 339.52 254.739 328.25 240.835 328.25C226.932 328.25 215.661 339.52 215.661 353.424C215.661 367.327 226.932 378.598 240.835 378.598Z" stroke="#00639B" stroke-width="0.786687" stroke-miterlimit="10"/>
<path d="M240.657 372.304C251.085 372.304 259.538 363.851 259.538 353.424C259.538 342.996 251.085 334.543 240.657 334.543C230.229 334.543 221.776 342.996 221.776 353.424C221.776 363.851 230.229 372.304 240.657 372.304Z" stroke="#7FCFFF" stroke-width="2.36006" stroke-miterlimit="10"/>
<path d="M303.594 367.584C311.415 367.584 317.754 361.244 317.754 353.424C317.754 345.603 311.415 339.263 303.594 339.263C295.773 339.263 289.434 345.603 289.434 353.424C289.434 361.244 295.773 367.584 303.594 367.584Z" stroke="#7FCFFF" stroke-width="1.57337" stroke-miterlimit="10"/>
<path d="M299.975 352.157C304.403 350.16 308.273 351.364 310.339 352.373C310.533 352.468 310.765 352.37 310.834 352.165L311.438 350.352C311.509 350.14 311.412 349.909 311.21 349.81C308.659 348.564 302.602 346.577 295.915 351.283C295.742 351.405 295.68 351.633 295.766 351.827L297.178 355.003C297.273 355.217 297.517 355.321 297.737 355.241C299.353 354.649 301.796 354.028 304.328 354.393C302.614 354.684 301.237 355.288 300.179 355.937C299.991 356.053 299.916 356.29 300.004 356.493C300.004 356.493 300.565 357.778 300.872 358.481C300.948 358.656 301.178 358.697 301.31 358.558C301.635 358.215 301.995 357.965 302.287 357.796C303.655 357.001 305.545 356.413 308.102 356.548C308.301 356.559 308.484 356.434 308.547 356.245L309.193 354.307C309.258 354.113 309.183 353.899 309.01 353.79C307.114 352.592 304.195 351.594 299.964 352.162L299.975 352.157Z" fill="#C2E7FF"/>
<path d="M366.528 378.597C380.432 378.597 391.702 367.326 391.702 353.423C391.702 339.52 380.432 328.25 366.528 328.25C352.625 328.25 341.354 339.52 341.354 353.423C341.354 367.326 352.625 378.597 366.528 378.597Z" stroke="#00639B" stroke-width="0.786687" stroke-miterlimit="10"/>
<path d="M366.714 372.498C377.141 372.498 385.594 364.045 385.594 353.618C385.594 343.19 377.141 334.737 366.714 334.737C356.286 334.737 347.833 343.19 347.833 353.618C347.833 364.045 356.286 372.498 366.714 372.498Z" stroke="#7FCFFF" stroke-width="2.36006" stroke-miterlimit="10"/>
<path d="M261.27 269.711C265.497 269.711 268.979 266.124 268.979 261.844C268.979 257.564 265.497 253.977 261.27 253.977H249.941C245.714 253.977 242.232 257.564 242.232 261.844C242.232 266.124 245.714 269.711 249.941 269.711H261.27Z" stroke="#7FCFFF" stroke-width="1.57337" stroke-miterlimit="10"/>
<path d="M252.459 261.775C252.459 262.644 251.755 263.348 250.886 263.348C250.017 263.348 249.312 262.644 249.312 261.775C249.312 260.906 250.017 260.201 250.886 260.201C251.755 260.201 252.459 260.906 252.459 261.775Z" fill="#C2E7FF"/>
<path d="M257.179 261.775C257.179 262.644 256.475 263.348 255.606 263.348C254.737 263.348 254.033 262.644 254.033 261.775C254.033 260.906 254.737 260.201 255.606 260.201C256.475 260.201 257.179 260.906 257.179 261.775Z" fill="#C2E7FF"/>
<path d="M261.899 261.775C261.899 262.644 261.195 263.348 260.326 263.348C259.457 263.348 258.753 262.644 258.753 261.775C258.753 260.906 259.457 260.201 260.326 260.201C261.195 260.201 261.899 260.906 261.899 261.775Z" fill="#C2E7FF"/>
<path d="M273.7 302.301C278.914 302.301 283.141 298.074 283.141 292.861C283.141 287.647 278.914 283.42 273.7 283.42C268.487 283.42 264.26 287.647 264.26 292.861C264.26 298.074 268.487 302.301 273.7 302.301Z" stroke="#7FCFFF" stroke-width="1.57337" stroke-miterlimit="10"/>
<path d="M278.06 291.472C277.869 291.472 277.704 291.407 277.566 291.277C277.436 291.139 277.371 290.975 277.371 290.784C277.371 290.592 277.436 290.432 277.566 290.302C277.704 290.164 277.869 290.095 278.06 290.095C278.251 290.095 278.412 290.164 278.542 290.302C278.679 290.432 278.748 290.592 278.748 290.784C278.748 290.975 278.679 291.139 278.542 291.277C278.412 291.407 278.251 291.472 278.06 291.472ZM275.995 293.767C275.612 293.767 275.287 293.633 275.02 293.365C274.752 293.097 274.618 292.772 274.618 292.39C274.618 292.007 274.752 291.682 275.02 291.415C275.287 291.147 275.612 291.013 275.995 291.013C276.377 291.013 276.702 291.147 276.97 291.415C277.238 291.682 277.371 292.007 277.371 292.39C277.371 292.772 277.238 293.097 276.97 293.365C276.702 293.633 276.377 293.767 275.995 293.767ZM275.995 297.438C275.551 297.438 275.173 297.281 274.859 296.967C274.545 296.654 274.389 296.275 274.389 295.832C274.389 295.388 274.545 295.009 274.859 294.696C275.173 294.382 275.551 294.225 275.995 294.225C276.438 294.225 276.817 294.382 277.131 294.696C277.444 295.009 277.601 295.388 277.601 295.832C277.601 296.275 277.444 296.654 277.131 296.967C276.817 297.281 276.438 297.438 275.995 297.438ZM271.406 293.767C270.641 293.767 269.991 293.499 269.455 292.963C268.92 292.428 268.652 291.778 268.652 291.013C268.652 290.248 268.92 289.598 269.455 289.063C269.991 288.527 270.641 288.26 271.406 288.26C272.171 288.26 272.821 288.527 273.356 289.063C273.891 289.598 274.159 290.248 274.159 291.013C274.159 291.778 273.891 292.428 273.356 292.963C272.821 293.499 272.171 293.767 271.406 293.767Z" fill="#C2E7FF"/>
<path d="M333.239 302.301C338.452 302.301 342.679 298.074 342.679 292.86C342.679 287.647 338.452 283.42 333.239 283.42C328.025 283.42 323.798 287.647 323.798 292.86C323.798 298.074 328.025 302.301 333.239 302.301Z" stroke="#7FCFFF" stroke-width="1.57337" stroke-miterlimit="10"/>
<path d="M328.964 296.979V294.073H329.996V295.946H331.87V296.979H328.964ZM328.964 291.61V288.719H331.87V289.751H329.996V291.61H328.964ZM334.333 296.979V295.946H336.192V294.073H337.224V296.979H334.333ZM336.192 291.61V289.751H334.333V288.719H337.224V291.61H336.192Z" fill="#C2E7FF"/>
<path d="M357.196 269.711C361.424 269.711 364.906 266.124 364.906 261.844C364.906 257.564 361.424 253.977 357.196 253.977H345.868C341.641 253.977 338.159 257.564 338.159 261.844C338.159 266.124 341.641 269.711 345.868 269.711H357.196Z" stroke="#7FCFFF" stroke-width="1.57337" stroke-miterlimit="10"/>
<path d="M346.566 265.118V264.115H356.597V265.118H346.566ZM346.566 262.276V261.273H356.597V262.276H346.566ZM346.566 259.434V258.431H356.597V259.434H346.566Z" fill="#C2E7FF"/>
<path d="M424.252 332.183C431.638 332.183 437.626 326.196 437.626 318.809C437.626 311.423 431.638 305.436 424.252 305.436C416.866 305.436 410.878 311.423 410.878 318.809C410.878 326.196 416.866 332.183 424.252 332.183Z" stroke="#7FCFFF" stroke-width="1.57337" stroke-miterlimit="10"/>
<path d="M420.354 323.136L423.753 314.124H425.326L428.737 323.136H427.214L426.384 320.82H422.708L421.878 323.136H420.354ZM425.918 319.536L424.924 316.78L424.584 315.748H424.508L424.168 316.78L423.174 319.536H425.918Z" fill="#C2E7FF"/>
<path d="M397.603 305.406C404.989 305.406 410.976 299.418 410.976 292.032C410.976 284.646 404.989 278.659 397.603 278.659C390.217 278.659 384.229 284.646 384.229 292.032C384.229 299.418 390.217 305.406 397.603 305.406Z" stroke="#7FCFFF" stroke-width="1.57337" stroke-miterlimit="10"/>
<path d="M393.87 287.377H395.57L397.571 290.611H397.646L399.66 287.377H401.347L398.54 291.706L401.548 296.389H399.862L397.646 292.877H397.571L395.356 296.389H393.669L396.677 291.706L393.87 287.377Z" fill="#C2E7FF"/>
<path d="M424.252 278.688C431.638 278.688 437.626 272.701 437.626 265.315C437.626 257.929 431.638 251.941 424.252 251.941C416.866 251.941 410.878 257.929 410.878 265.315C410.878 272.701 416.866 278.688 424.252 278.688Z" stroke="#7FCFFF" stroke-width="1.57337" stroke-miterlimit="10"/>
<path d="M423.695 269.607V265.428L420.649 260.595H422.286L424.337 263.993H424.413L426.414 260.595H428.063L425.067 265.428V269.607H423.695Z" fill="#C2E7FF"/>
<path d="M451.098 305.406C458.484 305.406 464.471 299.418 464.471 292.032C464.471 284.646 458.484 278.659 451.098 278.659C443.712 278.659 437.724 284.646 437.724 292.032C437.724 299.418 443.712 305.406 451.098 305.406Z" stroke="#7FCFFF" stroke-width="1.57337" stroke-miterlimit="10"/>
<path d="M448.374 296.389V287.377H451.747C452.242 287.377 452.691 287.481 453.094 287.691C453.497 287.901 453.816 288.186 454.051 288.547C454.294 288.908 454.416 289.315 454.416 289.768C454.416 290.23 454.302 290.624 454.076 290.951C453.849 291.279 453.556 291.526 453.195 291.694V291.757C453.648 291.908 454.017 292.168 454.302 292.537C454.588 292.906 454.73 293.347 454.73 293.859C454.73 294.362 454.6 294.803 454.34 295.18C454.089 295.558 453.744 295.856 453.308 296.074C452.88 296.284 452.41 296.389 451.898 296.389H448.374ZM449.759 292.399V295.105H451.898C452.2 295.105 452.461 295.042 452.679 294.916C452.897 294.79 453.061 294.622 453.17 294.413C453.287 294.203 453.346 293.985 453.346 293.758C453.346 293.515 453.287 293.292 453.17 293.091C453.052 292.881 452.88 292.713 452.654 292.588C452.435 292.462 452.167 292.399 451.848 292.399H449.759ZM449.759 291.165H451.684C451.978 291.165 452.226 291.107 452.427 290.989C452.637 290.863 452.796 290.704 452.905 290.511C453.014 290.309 453.069 290.104 453.069 289.894C453.069 289.684 453.014 289.487 452.905 289.302C452.805 289.109 452.654 288.954 452.452 288.837C452.251 288.711 452.012 288.648 451.735 288.648H449.759V291.165Z" fill="#C2E7FF"/>
<g filter="url(#filter3_d_632_16021)">
<path d="M645.332 155.787C648.766 155.137 654.777 154.333 662.062 150.127C669.347 145.921 673.334 140.953 675.757 138.221" stroke="#7FCFFF" stroke-width="3.95844"/>
<path d="M671.311 200.781C674.745 200.131 680.756 199.327 688.04 195.121C695.325 190.915 699.313 185.947 701.735 183.215" stroke="#7FCFFF" stroke-width="3.95844"/>
<path d="M705.727 204.905L688.521 214.839C687.183 215.611 685.518 215.546 684.33 214.558C677.852 209.177 664.762 195.382 651.299 172.063C637.935 148.917 637.801 126.815 639.859 115.784C640.243 113.726 642.301 112.538 644.274 113.235C654.857 116.968 673.93 128.135 687.294 151.282C700.757 174.601 706.158 192.834 707.58 201.135C707.841 202.658 707.065 204.132 705.727 204.905Z" stroke="white" stroke-width="3.95844"/>
<circle cx="671.711" cy="166.839" r="10.3909" transform="rotate(-30 671.711 166.839)" stroke="white" stroke-width="3.95844"/>
<path d="M645.428 123.425C645.208 125.759 645.076 131.77 646.304 137.145" stroke="white" stroke-width="2.96883" stroke-linecap="round"/>
<path d="M687.912 207.765L698.753 201.972C700.21 201.194 701.005 199.594 700.538 198.01C700.026 196.276 699.391 194.475 699.265 193.782" stroke="white" stroke-width="2.96883" stroke-linecap="round"/>
<path d="M719.214 178.647C716.909 175.656 705.882 169.823 699.016 167.352C697.5 166.806 696.306 168.231 696.982 169.664L700.479 177.083L704.454 187.929L707.219 199.232C707.331 199.692 707.609 200.1 708.001 200.383L727.513 214.441C729.195 215.653 731.689 213.811 731.008 211.892C726.882 200.258 721.435 181.53 719.214 178.647Z" stroke="white" stroke-width="2.96883" stroke-linecap="round" stroke-linejoin="round"/>
<path d="M658.727 213.569C657.289 210.077 657.751 197.611 659.044 190.43C659.33 188.844 661.161 188.522 662.064 189.824L666.74 196.562L674.145 205.428L682.552 213.473C682.894 213.8 683.109 214.245 683.157 214.726L685.576 238.654C685.785 240.716 682.943 241.955 681.621 240.406C673.609 231.015 660.113 216.934 658.727 213.569Z" stroke="white" stroke-width="2.96883" stroke-linecap="round" stroke-linejoin="round"/>
</g>
<path d="M708.399 216.689C722.254 229.884 758.771 259.143 794.001 270.623" stroke="white" stroke-width="2.96883" stroke-linecap="round"/>
<path d="M709.39 230.544C717.801 240.77 739.771 264.586 760.355 278.045" stroke="#7FCFFF" stroke-width="2.96883" stroke-linecap="round"/>
<path d="M687.681 117.877L689.346 108.173L679.593 106.174L677.928 115.878L687.681 117.877Z" fill="#7FCFFF"/>
<path d="M760.797 210.492L759.727 216.725L753.438 215.436L754.508 209.203L760.797 210.492Z" stroke="#7FCFFF" stroke-width="2.95034"/>
<path d="M633.793 194.933L631.665 200.548C630.161 199.932 628.466 200.688 627.881 202.231C627.289 203.782 628.039 205.54 629.537 206.156L627.409 211.771C622.91 209.915 620.672 204.635 622.434 199.99C624.188 195.346 629.287 193.077 633.793 194.933Z" fill="#E8EAED"/>
<path d="M609.674 110.74L608.631 115.589L605.314 111.658L605.314 111.658L605.305 111.648C604.883 111.16 604.306 110.975 603.785 110.927L603.698 110.919L603.611 110.925L598.593 111.288L601.15 107.185C601.33 106.938 601.466 106.63 601.488 106.27C601.51 105.909 601.414 105.581 601.265 105.302L599.238 100.774L604.096 102.043C604.512 102.191 604.889 102.13 605.144 102.05C605.382 101.975 605.602 101.854 605.725 101.786C605.733 101.782 605.741 101.778 605.748 101.774L605.844 101.721L605.928 101.648L609.687 98.3733L610.127 103.36C610.126 104.006 610.498 104.654 611.121 104.965L615.383 107.558L610.853 109.337C610.199 109.529 609.752 110.101 609.674 110.74Z" fill="#00E0BA" stroke="#00E0BA" stroke-width="2.13448"/>
<path d="M644.737 67.9713L641.531 69.2299C641.355 69.2711 641.229 69.4323 641.218 69.6042L640.489 72.994C640.403 73.447 639.817 73.5655 639.492 73.1897L637.224 70.5015C637.116 70.3762 636.946 70.3029 636.716 70.2815L633.224 70.534C632.76 70.5486 632.442 70.0581 632.697 69.6784L634.497 66.7912C634.622 66.63 634.633 66.4581 634.528 66.2755L633.102 63.0892C632.896 62.6667 633.273 62.1831 633.727 62.3404L637.148 63.2339C637.317 63.3073 637.497 63.2087 637.677 63.1101L640.248 60.8707C640.615 60.5589 641.18 60.7843 641.21 61.248L641.517 64.7339C641.507 64.9058 641.611 65.0884 641.781 65.1617L644.796 66.9972C645.189 67.2065 645.154 67.7795 644.737 67.9713Z" fill="white"/>
<path d="M738.531 146.837L737.904 149.748L735.91 147.385L735.91 147.385L735.905 147.378C735.628 147.058 735.251 146.939 734.917 146.908L734.858 146.903L734.799 146.907L731.784 147.125L733.318 144.665C733.435 144.503 733.523 144.302 733.538 144.066C733.552 143.829 733.489 143.614 733.393 143.433L732.177 140.717L735.093 141.479C735.366 141.575 735.614 141.535 735.78 141.483C735.934 141.434 736.075 141.356 736.152 141.314C736.157 141.311 736.162 141.309 736.167 141.306L736.232 141.27L736.288 141.221L738.548 139.253L738.812 142.246C738.813 142.669 739.056 143.092 739.463 143.296L742.02 144.852L739.303 145.919C738.875 146.046 738.583 146.419 738.531 146.837Z" fill="#00E0BA" stroke="#00E0BA" stroke-width="1.44623"/>
<path d="M578.995 144.952L580.189 137.992L573.194 136.558L572 143.518L578.995 144.952Z" fill="#7FCFFF"/>
<g filter="url(#filter4_d_632_16021)">
<rect x="-4.5689" y="4.5689" width="338.37" height="179.754" transform="matrix(-1 0 0 1 1155.06 199.969)" stroke="#FC4917" stroke-width="9.13781"/>
<mask id="path-53-outside-1_632_16021" maskUnits="userSpaceOnUse" x="811.446" y="182.479" width="362" height="213" fill="black">
<rect fill="white" x="811.446" y="182.479" width="362" height="213"/>
<path d="M1171.45 190.571C1171.45 187.206 1168.72 184.479 1165.35 184.479H819.815C816.45 184.479 813.723 187.206 813.723 190.571V387.152C813.723 390.516 816.45 393.244 819.815 393.244H1165.35C1168.72 393.244 1171.45 390.516 1171.45 387.152V190.571Z"/>
</mask>
<path d="M1171.45 190.571C1171.45 187.206 1168.72 184.479 1165.35 184.479H819.815C816.45 184.479 813.723 187.206 813.723 190.571V387.152C813.723 390.516 816.45 393.244 819.815 393.244H1165.35C1168.72 393.244 1171.45 390.516 1171.45 387.152V190.571Z" fill="#1E1E20"/>
<path d="M1165.35 186.117H819.815V182.841H1165.35V186.117ZM815.361 190.571V387.152H812.085V190.571H815.361ZM819.815 391.606H1165.35V394.882H819.815V391.606ZM1169.81 387.152V190.571H1173.08V387.152H1169.81ZM1165.35 391.606C1167.81 391.606 1169.81 389.612 1169.81 387.152H1173.08C1173.08 391.421 1169.62 394.882 1165.35 394.882V391.606ZM815.361 387.152C815.361 389.612 817.355 391.606 819.815 391.606V394.882C815.546 394.882 812.085 391.421 812.085 387.152H815.361ZM819.815 186.117C817.355 186.117 815.361 188.111 815.361 190.571H812.085C812.085 186.302 815.546 182.841 819.815 182.841V186.117ZM1165.35 182.841C1169.62 182.841 1173.08 186.302 1173.08 190.571H1169.81C1169.81 188.111 1167.81 186.117 1165.35 186.117V182.841Z" fill="#444746" mask="url(#path-53-outside-1_632_16021)"/>
<mask id="path-55-outside-2_632_16021" maskUnits="userSpaceOnUse" x="810.446" y="189.097" width="365" height="254" fill="black">
<rect fill="white" x="810.446" y="189.097" width="365" height="254"/>
<path fill-rule="evenodd" clip-rule="evenodd" d="M1171.45 197.666C1171.45 195.142 1169.4 193.097 1166.88 193.097H818.292C815.768 193.097 813.723 195.142 813.723 197.666V397.293C813.723 399.816 815.768 401.862 818.292 401.862H961.752V418.54H915.621C914.792 418.54 913.999 418.878 913.424 419.476L899.286 434.186C897.426 436.122 898.798 439.343 901.483 439.343H1083.69C1086.37 439.343 1087.74 436.122 1085.88 434.186L1071.74 419.476C1071.17 418.878 1070.38 418.54 1069.55 418.54H1023.6V401.862H1166.88C1169.4 401.862 1171.45 399.816 1171.45 397.293V197.666Z"/>
</mask>
<path fill-rule="evenodd" clip-rule="evenodd" d="M1171.45 197.666C1171.45 195.142 1169.4 193.097 1166.88 193.097H818.292C815.768 193.097 813.723 195.142 813.723 197.666V397.293C813.723 399.816 815.768 401.862 818.292 401.862H961.752V418.54H915.621C914.792 418.54 913.999 418.878 913.424 419.476L899.286 434.186C897.426 436.122 898.798 439.343 901.483 439.343H1083.69C1086.37 439.343 1087.74 436.122 1085.88 434.186L1071.74 419.476C1071.17 418.878 1070.38 418.54 1069.55 418.54H1023.6V401.862H1166.88C1169.4 401.862 1171.45 399.816 1171.45 397.293V197.666Z" fill="#1E1E20"/>
<path d="M961.752 401.862V398.816H964.798V401.862H961.752ZM961.752 418.54H964.798V421.586H961.752V418.54ZM913.424 419.476L915.621 421.586L915.621 421.586L913.424 419.476ZM899.286 434.186L897.09 432.075L899.286 434.186ZM1085.88 434.186L1083.69 436.297H1083.69L1085.88 434.186ZM1071.74 419.476L1069.55 421.586V421.586L1071.74 419.476ZM1023.6 418.54V421.586H1020.56V418.54H1023.6ZM1023.6 401.862H1020.56V398.816H1023.6V401.862ZM1166.88 190.051C1171.08 190.051 1174.49 193.46 1174.49 197.666H1168.4C1168.4 196.825 1167.72 196.143 1166.88 196.143V190.051ZM818.292 190.051H1166.88V196.143H818.292V190.051ZM810.677 197.666C810.677 193.46 814.086 190.051 818.292 190.051V196.143C817.451 196.143 816.769 196.825 816.769 197.666H810.677ZM810.677 397.293V197.666H816.769V397.293H810.677ZM818.292 404.908C814.086 404.908 810.677 401.498 810.677 397.293H816.769C816.769 398.134 817.451 398.816 818.292 398.816V404.908ZM961.752 404.908H818.292V398.816H961.752V404.908ZM958.706 418.54V401.862H964.798V418.54H958.706ZM915.621 415.494H961.752V421.586H915.621V415.494ZM911.228 417.365C912.377 416.17 913.963 415.494 915.621 415.494V421.586L915.621 421.586L911.228 417.365ZM897.09 432.075L911.228 417.365L915.621 421.586L901.483 436.297L897.09 432.075ZM901.483 442.388C896.113 442.388 893.37 435.946 897.09 432.075L901.483 436.297C901.472 436.308 901.467 436.314 901.466 436.317C901.464 436.319 901.465 436.318 901.467 436.314C901.468 436.311 901.47 436.306 901.472 436.3C901.474 436.295 901.475 436.29 901.476 436.285C901.477 436.276 901.476 436.273 901.477 436.276C901.477 436.28 901.479 436.287 901.483 436.297C901.487 436.306 901.491 436.312 901.493 436.315C901.495 436.317 901.493 436.315 901.486 436.309C901.482 436.307 901.478 436.304 901.473 436.302C901.467 436.299 901.462 436.297 901.459 436.296C901.455 436.295 901.454 436.295 901.456 436.295C901.459 436.295 901.467 436.297 901.483 436.297V442.388ZM1083.69 442.388H901.483V436.297H1083.69V442.388ZM1088.08 432.075C1091.8 435.946 1089.05 442.388 1083.69 442.388V436.297C1083.7 436.297 1083.71 436.295 1083.71 436.295C1083.71 436.295 1083.71 436.295 1083.71 436.296C1083.71 436.297 1083.7 436.299 1083.7 436.302C1083.69 436.304 1083.69 436.307 1083.68 436.309C1083.67 436.315 1083.67 436.317 1083.67 436.315C1083.68 436.312 1083.68 436.306 1083.69 436.297C1083.69 436.287 1083.69 436.28 1083.69 436.276C1083.69 436.273 1083.69 436.276 1083.69 436.285C1083.69 436.29 1083.69 436.295 1083.7 436.3C1083.7 436.306 1083.7 436.311 1083.7 436.314C1083.7 436.318 1083.7 436.319 1083.7 436.317C1083.7 436.314 1083.7 436.308 1083.69 436.297L1088.08 432.075ZM1073.94 417.365L1088.08 432.075L1083.69 436.297L1069.55 421.586L1073.94 417.365ZM1069.55 415.494C1071.2 415.494 1072.79 416.17 1073.94 417.365L1069.55 421.586V421.586V415.494ZM1023.6 415.494H1069.55V421.586H1023.6V415.494ZM1026.65 401.862V418.54H1020.56V401.862H1026.65ZM1166.88 404.908H1023.6V398.816H1166.88V404.908ZM1174.49 397.293C1174.49 401.498 1171.08 404.908 1166.88 404.908V398.816C1167.72 398.816 1168.4 398.134 1168.4 397.293H1174.49ZM1174.49 197.666V397.293H1168.4V197.666H1174.49Z" fill="#C2E7FF" mask="url(#path-55-outside-2_632_16021)"/>
<path d="M1074.5 429.677C1074.5 429.677 1081.05 434.246 1075.51 434.246C1071.85 434.246 962.278 434.246 910.8 434.246C905.107 434.246 911.507 429.677 911.507 429.677" stroke="#444746" stroke-width="1.63787" stroke-linecap="round"/>
<rect x="-1.52297" y="1.52297" width="330.904" height="181.945" rx="5.02853" transform="matrix(-1 0 0 1 1156.51 204.984)" stroke="#7FCFFF" stroke-width="3.04594"/>
<mask id="path-59-inside-3_632_16021" fill="white">
<path d="M941.945 310.332C941.945 306.968 939.218 304.24 935.853 304.24H754.155C750.79 304.24 748.063 306.968 748.063 310.332V435.89H941.945V310.332Z"/>
</mask>
<path d="M941.945 310.332C941.945 306.968 939.218 304.24 935.853 304.24H754.155C750.79 304.24 748.063 306.968 748.063 310.332V435.89H941.945V310.332Z" fill="#1E1E20"/>
<path d="M748.063 435.89V437.528H746.425V435.89H748.063ZM941.945 435.89H943.583V437.528H941.945V435.89ZM935.853 305.878H754.155V302.602H935.853V305.878ZM749.701 310.332V435.89H746.425V310.332H749.701ZM748.063 434.252H941.945V437.528H748.063V434.252ZM940.307 435.89V310.332H943.583V435.89H940.307ZM754.155 305.878C751.695 305.878 749.701 307.872 749.701 310.332H746.425C746.425 306.063 749.886 302.602 754.155 302.602V305.878ZM935.853 302.602C940.122 302.602 943.583 306.063 943.583 310.332H940.307C940.307 307.872 938.313 305.878 935.853 305.878V302.602Z" fill="#444746" mask="url(#path-59-inside-3_632_16021)"/>
<mask id="path-61-inside-4_632_16021" fill="white">
<path fill-rule="evenodd" clip-rule="evenodd" d="M935.768 312.524C939.132 312.524 941.859 315.251 941.859 318.616V443.281H941.856C942.602 443.822 943.229 444.534 943.673 445.38L962.067 480.408C964.197 484.465 961.255 489.333 956.673 489.333H733.158C728.576 489.333 725.634 484.465 727.764 480.408L746.158 445.38C746.602 444.534 747.229 443.822 747.975 443.281H747.953V318.616C747.953 315.251 750.681 312.524 754.045 312.524H935.768Z"/>
</mask>
<path fill-rule="evenodd" clip-rule="evenodd" d="M935.768 312.524C939.132 312.524 941.859 315.251 941.859 318.616V443.281H941.856C942.602 443.822 943.229 444.534 943.673 445.38L962.067 480.408C964.197 484.465 961.255 489.333 956.673 489.333H733.158C728.576 489.333 725.634 484.465 727.764 480.408L746.158 445.38C746.602 444.534 747.229 443.822 747.975 443.281H747.953V318.616C747.953 315.251 750.681 312.524 754.045 312.524H935.768Z" fill="#1E1E20"/>
<path d="M941.859 443.281H944.905V446.326H941.859V443.281ZM941.856 443.281L940.068 445.747L932.464 440.235H941.856V443.281ZM943.673 445.38L946.37 443.964L946.37 443.964L943.673 445.38ZM962.067 480.408L959.37 481.825H959.37L962.067 480.408ZM727.764 480.408L730.461 481.825V481.825L727.764 480.408ZM746.158 445.38L743.461 443.964V443.964L746.158 445.38ZM747.975 443.281V440.235H757.367L749.763 445.747L747.975 443.281ZM747.953 443.281V446.326H744.907V443.281H747.953ZM938.813 318.616C938.813 316.933 937.45 315.57 935.768 315.57V309.478C940.814 309.478 944.905 313.569 944.905 318.616H938.813ZM938.813 443.281V318.616H944.905V443.281H938.813ZM941.856 440.235H941.859V446.326H941.856V440.235ZM943.643 440.814C944.763 441.626 945.703 442.696 946.37 443.964L940.976 446.796C940.754 446.373 940.441 446.017 940.068 445.747L943.643 440.814ZM946.37 443.964L964.763 478.992L959.37 481.825L940.976 446.796L946.37 443.964ZM964.763 478.992C967.959 485.077 963.546 492.378 956.673 492.378V486.287C958.964 486.287 960.435 483.853 959.37 481.825L964.763 478.992ZM956.673 492.378H733.158V486.287H956.673V492.378ZM733.158 492.378C726.285 492.378 721.872 485.077 725.067 478.992L730.461 481.825C729.396 483.853 730.867 486.287 733.158 486.287V492.378ZM725.067 478.992L743.461 443.964L748.855 446.796L730.461 481.825L725.067 478.992ZM743.461 443.964C744.127 442.696 745.068 441.626 746.188 440.814L749.763 445.747C749.39 446.017 749.077 446.373 748.855 446.796L743.461 443.964ZM747.953 440.235H747.975V446.326H747.953V440.235ZM750.999 318.616V443.281H744.907V318.616H750.999ZM754.045 315.57C752.363 315.57 750.999 316.933 750.999 318.616H744.907C744.907 313.569 748.998 309.478 754.045 309.478V315.57ZM935.768 315.57H754.045V309.478H935.768V315.57Z" fill="#C2E7FF" mask="url(#path-61-inside-4_632_16021)"/>
<path d="M935.502 455.821H754.354C752.667 455.821 751.593 454.019 752.395 452.535L755.906 446.037C756.295 445.317 757.047 444.869 757.865 444.869H931.991C932.809 444.869 933.562 445.317 933.951 446.037L937.462 452.535C938.263 454.019 937.189 455.821 935.502 455.821Z" stroke="#444746" stroke-width="1.63787"/>
<path d="M876.579 472.703H813.147C811.676 472.703 810.609 471.303 811 469.885L812.754 463.519C813.021 462.553 813.899 461.884 814.901 461.884H874.825C875.827 461.884 876.705 462.553 876.972 463.519L878.726 469.885C879.117 471.303 878.05 472.703 876.579 472.703Z" stroke="#444746" stroke-width="1.63787"/>
<rect x="-1.52297" y="1.52297" width="171.223" height="104.298" rx="5.02853" transform="matrix(-1 0 0 1 929.083 323.254)" stroke="#7FCFFF" stroke-width="3.04594"/>
<rect x="-0.818937" y="0.818937" width="73.6324" height="153.17" rx="5.27294" transform="matrix(-1 0 0 1 1207.36 325.785)" fill="#1E1E20" stroke="#444746" stroke-width="1.63787"/>
<rect x="-1.52297" y="1.52297" width="72.2243" height="151.762" rx="4.5689" transform="matrix(-1 0 0 1 1205.95 333.792)" fill="#1E1E20" stroke="#C2E7FF" stroke-width="3.04594"/>
<rect x="-1.63787" y="1.63787" width="60.6889" height="120.085" rx="4.91362" transform="matrix(-1 0 0 1 1199.75 347.436)" stroke="#7FCFFF" stroke-width="3.27575"/>
<rect width="22.1662" height="1.42243" rx="0.711215" transform="matrix(-1 0 0 1 1181.5 341.342)" fill="#444746"/>
</g>
<g filter="url(#filter5_d_632_16021)">
<path d="M283.758 133.545C308.52 122.359 330.163 129.103 341.725 134.753C342.809 135.284 344.109 134.739 344.491 133.592L347.872 123.434C348.268 122.248 347.72 120.949 346.597 120.401C332.327 113.424 298.448 102.288 261.048 128.648C260.079 129.33 259.734 130.61 260.216 131.696L268.113 149.488C268.645 150.685 270.01 151.269 271.242 150.818C280.276 147.504 293.94 144.024 308.102 146.073C298.517 147.699 290.815 151.085 284.899 154.72C283.844 155.369 283.426 156.696 283.92 157.836C283.92 157.836 287.059 165.03 288.773 168.968C289.202 169.948 290.491 170.179 291.225 169.4C293.044 167.478 295.057 166.079 296.691 165.127C304.343 160.677 314.918 157.385 329.216 158.142C330.333 158.2 331.352 157.504 331.708 156.44L335.323 145.586C335.683 144.501 335.266 143.303 334.301 142.694C323.697 135.983 307.367 130.39 283.704 133.574L283.758 133.545Z" fill="#7FCFFF"/>
</g>
<g filter="url(#filter6_d_632_16021)">
<path d="M976.628 296.127C996.044 287.235 1013.01 292.595 1022.08 297.087C1022.93 297.509 1023.95 297.076 1024.25 296.164L1026.9 288.089C1027.21 287.146 1026.78 286.114 1025.9 285.678C1014.71 280.132 988.147 271.28 958.822 292.234C958.062 292.776 957.791 293.794 958.17 294.656L964.361 308.8C964.779 309.752 965.849 310.216 966.814 309.858C973.898 307.223 984.612 304.457 995.716 306.085C988.201 307.378 982.162 310.07 977.523 312.959C976.696 313.475 976.368 314.53 976.755 315.436C976.755 315.436 979.217 321.155 980.561 324.285C980.897 325.065 981.908 325.248 982.484 324.629C983.909 323.101 985.488 321.989 986.769 321.232C992.769 317.695 1001.06 315.078 1012.27 315.68C1013.15 315.725 1013.95 315.172 1014.23 314.327L1017.06 305.698C1017.34 304.836 1017.02 303.884 1016.26 303.399C1007.94 298.065 995.14 293.619 976.586 296.15L976.628 296.127Z" fill="#7FCFFF"/>
</g>
<g filter="url(#filter7_d_632_16021)">
<path d="M835.529 373.68C846.503 368.655 856.095 371.684 861.219 374.223C861.699 374.461 862.276 374.217 862.445 373.701L863.943 369.137C864.119 368.604 863.876 368.021 863.378 367.775C857.054 364.64 842.04 359.636 825.464 371.48C825.035 371.786 824.882 372.362 825.096 372.849L828.595 380.843C828.832 381.381 829.436 381.644 829.982 381.441C833.986 379.952 840.042 378.389 846.318 379.309C842.07 380.04 838.657 381.561 836.035 383.194C835.567 383.486 835.382 384.082 835.601 384.594C835.601 384.594 836.992 387.827 837.752 389.596C837.942 390.037 838.513 390.14 838.839 389.79C839.644 388.927 840.536 388.298 841.261 387.87C844.652 385.871 849.339 384.392 855.675 384.732C856.17 384.758 856.622 384.445 856.78 383.967L858.382 379.09C858.541 378.603 858.356 378.065 857.929 377.791C853.229 374.776 845.992 372.263 835.505 373.693L835.529 373.68Z" fill="#7FCFFF"/>
</g>
<g filter="url(#filter8_d_632_16021)">
<path d="M1163.83 407.074C1171.99 403.401 1179.12 405.615 1182.93 407.471C1183.29 407.645 1183.72 407.466 1183.84 407.09L1184.96 403.754C1185.09 403.365 1184.91 402.938 1184.54 402.758C1179.84 400.467 1168.67 396.811 1156.35 405.466C1156.03 405.69 1155.91 406.11 1156.07 406.467L1158.67 412.309C1158.85 412.702 1159.3 412.894 1159.7 412.746C1162.68 411.657 1167.18 410.515 1171.85 411.187C1168.69 411.721 1166.15 412.833 1164.21 414.027C1163.86 414.24 1163.72 414.675 1163.88 415.05C1163.88 415.05 1164.92 417.412 1165.48 418.705C1165.62 419.027 1166.05 419.102 1166.29 418.847C1166.89 418.216 1167.55 417.756 1168.09 417.444C1170.61 415.983 1174.1 414.902 1178.81 415.15C1179.18 415.169 1179.51 414.941 1179.63 414.591L1180.82 411.028C1180.94 410.671 1180.8 410.278 1180.49 410.078C1176.99 407.875 1171.61 406.038 1163.81 407.084L1163.83 407.074Z" fill="#7FCFFF"/>
</g>
</g>
<defs>
<filter id="filter0_d_632_16021" x="-389.871" y="-373.83" width="1383.66" height="1382.66" filterUnits="userSpaceOnUse" color-interpolation-filters="sRGB">
<feFlood flood-opacity="0" result="BackgroundImageFix"/>
<feColorMatrix in="SourceAlpha" type="matrix" values="0 0 0 0 0 0 0 0 0 0 0 0 0 0 0 0 0 0 127 0" result="hardAlpha"/>
<feOffset/>
<feGaussianBlur stdDeviation="100"/>
<feComposite in2="hardAlpha" operator="out"/>
<feColorMatrix type="matrix" values="0 0 0 0 0 0 0 0 0 0 0 0 0 0 0 0 0 0 0.1 0"/>
<feBlend mode="normal" in2="BackgroundImageFix" result="effect1_dropShadow_632_16021"/>
<feBlend mode="normal" in="SourceGraphic" in2="effect1_dropShadow_632_16021" result="shape"/>
</filter>
<filter id="filter1_d_632_16021" x="-189.755" y="-173.714" width="984.419" height="984.419" filterUnits="userSpaceOnUse" color-interpolation-filters="sRGB">
<feFlood flood-opacity="0" result="BackgroundImageFix"/>
<feColorMatrix in="SourceAlpha" type="matrix" values="0 0 0 0 0 0 0 0 0 0 0 0 0 0 0 0 0 0 127 0" result="hardAlpha"/>
<feOffset/>
<feGaussianBlur stdDeviation="100"/>
<feComposite in2="hardAlpha" operator="out"/>
<feColorMatrix type="matrix" values="0 0 0 0 0 0 0 0 0 0 0 0 0 0 0 0 0 0 0.1 0"/>
<feBlend mode="normal" in2="BackgroundImageFix" result="effect1_dropShadow_632_16021"/>
<feBlend mode="normal" in="SourceGraphic" in2="effect1_dropShadow_632_16021" result="shape"/>
</filter>
<filter id="filter2_d_632_16021" x="-30.7803" y="100.184" width="668.749" height="509.047" filterUnits="userSpaceOnUse" color-interpolation-filters="sRGB">
<feFlood flood-opacity="0" result="BackgroundImageFix"/>
<feColorMatrix in="SourceAlpha" type="matrix" values="0 0 0 0 0 0 0 0 0 0 0 0 0 0 0 0 0 0 127 0" result="hardAlpha"/>
<feOffset/>
<feGaussianBlur stdDeviation="60"/>
<feComposite in2="hardAlpha" operator="out"/>
<feColorMatrix type="matrix" values="0 0 0 0 0.498039 0 0 0 0 0.811765 0 0 0 0 1 0 0 0 0.15 0"/>
<feBlend mode="normal" in2="BackgroundImageFix" result="effect1_dropShadow_632_16021"/>
<feBlend mode="normal" in="SourceGraphic" in2="effect1_dropShadow_632_16021" result="shape"/>
</filter>
<filter id="filter3_d_632_16021" x="524.377" y="-1.47729" width="320.785" height="356.617" filterUnits="userSpaceOnUse" color-interpolation-filters="sRGB">
<feFlood flood-opacity="0" result="BackgroundImageFix"/>
<feColorMatrix in="SourceAlpha" type="matrix" values="0 0 0 0 0 0 0 0 0 0 0 0 0 0 0 0 0 0 127 0" result="hardAlpha"/>
<feOffset/>
<feGaussianBlur stdDeviation="56.266"/>
<feComposite in2="hardAlpha" operator="out"/>
<feColorMatrix type="matrix" values="0 0 0 0 1 0 0 0 0 1 0 0 0 0 1 0 0 0 1 0"/>
<feBlend mode="normal" in2="BackgroundImageFix" result="effect1_dropShadow_632_16021"/>
<feBlend mode="normal" in="SourceGraphic" in2="effect1_dropShadow_632_16021" result="shape"/>
</filter>
<filter id="filter4_d_632_16021" x="607.058" y="82.8409" width="721.942" height="546.492" filterUnits="userSpaceOnUse" color-interpolation-filters="sRGB">
<feFlood flood-opacity="0" result="BackgroundImageFix"/>
<feColorMatrix in="SourceAlpha" type="matrix" values="0 0 0 0 0 0 0 0 0 0 0 0 0 0 0 0 0 0 127 0" result="hardAlpha"/>
<feOffset dy="20"/>
<feGaussianBlur stdDeviation="60"/>
<feComposite in2="hardAlpha" operator="out"/>
<feColorMatrix type="matrix" values="0 0 0 0 0 0 0 0 0 0 0 0 0 0 0 0 0 0 0.8 0"/>
<feBlend mode="normal" in2="BackgroundImageFix" result="effect1_dropShadow_632_16021"/>
<feBlend mode="normal" in="SourceGraphic" in2="effect1_dropShadow_632_16021" result="shape"/>
</filter>
<filter id="filter5_d_632_16021" x="140" y="-8" width="328" height="297.867" filterUnits="userSpaceOnUse" color-interpolation-filters="sRGB">
<feFlood flood-opacity="0" result="BackgroundImageFix"/>
<feColorMatrix in="SourceAlpha" type="matrix" values="0 0 0 0 0 0 0 0 0 0 0 0 0 0 0 0 0 0 127 0" result="hardAlpha"/>
<feOffset/>
<feGaussianBlur stdDeviation="60"/>
<feComposite in2="hardAlpha" operator="out"/>
<feColorMatrix type="matrix" values="0 0 0 0 0.498039 0 0 0 0 0.811765 0 0 0 0 1 0 0 0 1 0"/>
<feBlend mode="normal" in2="BackgroundImageFix" result="effect1_dropShadow_632_16021"/>
<feBlend mode="normal" in="SourceGraphic" in2="effect1_dropShadow_632_16021" result="shape"/>
</filter>
<filter id="filter6_d_632_16021" x="838" y="159" width="309" height="286" filterUnits="userSpaceOnUse" color-interpolation-filters="sRGB">
<feFlood flood-opacity="0" result="BackgroundImageFix"/>
<feColorMatrix in="SourceAlpha" type="matrix" values="0 0 0 0 0 0 0 0 0 0 0 0 0 0 0 0 0 0 127 0" result="hardAlpha"/>
<feOffset/>
<feGaussianBlur stdDeviation="60"/>
<feComposite in2="hardAlpha" operator="out"/>
<feColorMatrix type="matrix" values="0 0 0 0 0.498039 0 0 0 0 0.811765 0 0 0 0 1 0 0 0 1 0"/>
<feBlend mode="normal" in2="BackgroundImageFix" result="effect1_dropShadow_632_16021"/>
<feBlend mode="normal" in="SourceGraphic" in2="effect1_dropShadow_632_16021" result="shape"/>
</filter>
<filter id="filter7_d_632_16021" x="705" y="244" width="279" height="266" filterUnits="userSpaceOnUse" color-interpolation-filters="sRGB">
<feFlood flood-opacity="0" result="BackgroundImageFix"/>
<feColorMatrix in="SourceAlpha" type="matrix" values="0 0 0 0 0 0 0 0 0 0 0 0 0 0 0 0 0 0 127 0" result="hardAlpha"/>
<feOffset/>
<feGaussianBlur stdDeviation="60"/>
<feComposite in2="hardAlpha" operator="out"/>
<feColorMatrix type="matrix" values="0 0 0 0 0.498039 0 0 0 0 0.811765 0 0 0 0 1 0 0 0 1 0"/>
<feBlend mode="normal" in2="BackgroundImageFix" result="effect1_dropShadow_632_16021"/>
<feBlend mode="normal" in="SourceGraphic" in2="effect1_dropShadow_632_16021" result="shape"/>
</filter>
<filter id="filter8_d_632_16021" x="1036" y="280" width="269" height="259" filterUnits="userSpaceOnUse" color-interpolation-filters="sRGB">
<feFlood flood-opacity="0" result="BackgroundImageFix"/>
<feColorMatrix in="SourceAlpha" type="matrix" values="0 0 0 0 0 0 0 0 0 0 0 0 0 0 0 0 0 0 127 0" result="hardAlpha"/>
<feOffset/>
<feGaussianBlur stdDeviation="60"/>
<feComposite in2="hardAlpha" operator="out"/>
<feColorMatrix type="matrix" values="0 0 0 0 0.498039 0 0 0 0 0.811765 0 0 0 0 1 0 0 0 1 0"/>
<feBlend mode="normal" in2="BackgroundImageFix" result="effect1_dropShadow_632_16021"/>
<feBlend mode="normal" in="SourceGraphic" in2="effect1_dropShadow_632_16021" result="shape"/>
</filter>
<linearGradient id="paint0_linear_632_16021" x1="1198" y1="317.5" x2="-387" y2="317.5" gradientUnits="userSpaceOnUse">
<stop stop-color="#7FCFFF"/>
<stop offset="1" stop-color="#7FCFFF" stop-opacity="0"/>
</linearGradient>
<linearGradient id="paint1_linear_632_16021" x1="688.459" y1="0" x2="688.459" y2="1376.92" gradientUnits="userSpaceOnUse">
<stop stop-color="#7FCFFF"/>
<stop offset="1" stop-color="#7FCFFF" stop-opacity="0"/>
</linearGradient>
<linearGradient id="paint2_linear_632_16021" x1="793.785" y1="317.5" x2="-189.871" y2="317.5" gradientUnits="userSpaceOnUse">
<stop stop-color="#7FCFFF"/>
<stop offset="1" stop-color="#7FCFFF" stop-opacity="0"/>
</linearGradient>
<linearGradient id="paint3_linear_632_16021" x1="292.209" y1="0" x2="292.209" y2="584.419" gradientUnits="userSpaceOnUse">
<stop stop-color="#7FCFFF"/>
<stop offset="1" stop-color="#7FCFFF" stop-opacity="0"/>
</linearGradient>
<radialGradient id="paint4_radial_632_16021" cx="0" cy="0" r="1" gradientUnits="userSpaceOnUse" gradientTransform="translate(303.594 230) rotate(90) scale(219 350.92)">
<stop stop-color="#7FCFFF"/>
<stop offset="1" stop-color="#7FCFFF" stop-opacity="0"/>
</radialGradient>
<clipPath id="clip0_632_16021">
<rect width="1280" height="651" fill="white"/>
</clipPath>
</defs>
</svg>
