<svg width="1280" height="960" viewBox="0 0 1280 960" fill="none" xmlns="http://www.w3.org/2000/svg">
<g clip-path="url(#clip0_927_33565)">
<mask id="mask0_927_33565" style="mask-type:alpha" maskUnits="userSpaceOnUse" x="0" y="0" width="1280" height="960">
<rect width="1280" height="960" fill="url(#paint0_linear_927_33565)"/>
</mask>
<g mask="url(#mask0_927_33565)">
<g opacity="0.25">
<circle cx="640" cy="454.631" r="555.631" fill="#7FCFFF" fill-opacity="0.2"/>
<circle cx="640" cy="454.631" r="554.631" stroke="url(#paint1_linear_927_33565)" stroke-opacity="0.35" stroke-width="2"/>
</g>
<g opacity="0.6" filter="url(#filter0_d_927_33565)">
<ellipse cx="640" cy="454.229" rx="396.535" ry="396.937" fill="#7FCFFF" fill-opacity="0.2" shape-rendering="crispEdges"/>
<path d="M1035.53 454.229C1035.53 672.9 858.447 850.166 640 850.166C421.553 850.166 244.465 672.9 244.465 454.229C244.465 235.558 421.553 58.2925 640 58.2925C858.447 58.2925 1035.53 235.558 1035.53 454.229Z" stroke="url(#paint2_linear_927_33565)" stroke-opacity="0.35" stroke-width="2" shape-rendering="crispEdges"/>
</g>
<g filter="url(#filter1_d_927_33565)">
<circle cx="639.197" cy="453.827" r="235.832" fill="#7FCFFF" fill-opacity="0.35" shape-rendering="crispEdges"/>
<circle cx="639.197" cy="453.827" r="234.832" stroke="url(#paint3_linear_927_33565)" stroke-opacity="0.35" stroke-width="2" shape-rendering="crispEdges"/>
</g>
</g>
<path opacity="0.2" d="M651.382 249.128H666V350H613V249.128H627.208H630.208V246.128V214.269H631.306H634.306V211.269V14.645C636.558 14.3749 639.16 14.1265 641.413 14.0359C642.551 13.9902 643.524 13.9884 644.285 14.0294V211.269V214.269H647.285H648.382V246.128V249.128H651.382Z" fill="url(#paint4_linear_927_33565)" fill-opacity="0.5" stroke="url(#paint5_linear_927_33565)" stroke-width="6"/>
<path d="M462.583 347.645V337.654C462.583 334.211 459.964 331.363 456.524 331.223C436.724 330.42 372.9 330.276 332.721 358.571C331.026 359.765 330.064 361.729 330.064 363.803V383.026" stroke="#7FCFFF" stroke-width="6.62013" stroke-miterlimit="10"/>
<path d="M817.684 347.645V337.654C817.684 334.211 820.303 331.363 823.743 331.223C843.543 330.42 907.367 330.276 947.546 358.571C949.241 359.765 950.203 361.729 950.203 363.803V383.026" stroke="#7FCFFF" stroke-width="6.62013" stroke-miterlimit="10"/>
<path d="M1085.43 800.498C1068.58 672.499 1032.94 533.566 1001.18 450.592C970.071 366.975 887.763 350.252 810.639 350.252H469.093C391.969 350.252 309.661 366.975 278.552 450.592C247.444 534.21 211.798 672.499 194.3 800.498C184.578 864.176 231.241 902.768 272.719 907.271C314.197 911.773 364.101 896.336 388.729 833.302C413.356 770.91 423.726 717.524 475.573 717.524C519.644 717.524 759.44 717.524 803.51 717.524C855.358 717.524 865.728 770.91 890.355 833.302C914.983 895.693 964.886 911.773 1006.36 907.271C1047.84 902.768 1095.15 864.176 1085.43 800.498Z" fill="white" fill-opacity="0.05"/>
<path d="M1085.43 800.498C1068.58 672.499 1032.94 533.566 1001.18 450.592C970.071 366.975 887.763 350.252 810.639 350.252H469.093C391.969 350.252 309.661 366.975 278.552 450.592C247.444 534.21 211.798 672.499 194.3 800.498C184.578 864.176 231.241 902.768 272.719 907.271C314.197 911.773 364.101 896.336 388.729 833.302C413.356 770.91 423.726 717.524 475.573 717.524C519.644 717.524 759.44 717.524 803.51 717.524C855.358 717.524 865.728 770.91 890.355 833.302C914.983 895.693 964.886 911.773 1006.36 907.271C1047.84 902.768 1095.15 864.176 1085.43 800.498Z" fill="url(#paint6_radial_927_33565)" fill-opacity="0.2"/>
<path d="M1085.43 800.498C1068.58 672.499 1032.94 533.566 1001.18 450.592C970.071 366.975 887.763 350.252 810.639 350.252H469.093C391.969 350.252 309.661 366.975 278.552 450.592C247.444 534.21 211.798 672.499 194.3 800.498C184.578 864.176 231.241 902.768 272.719 907.271C314.197 911.773 364.101 896.336 388.729 833.302C413.356 770.91 423.726 717.524 475.573 717.524C519.644 717.524 759.44 717.524 803.51 717.524C855.358 717.524 865.728 770.91 890.355 833.302C914.983 895.693 964.886 911.773 1006.36 907.271C1047.84 902.768 1095.15 864.176 1085.43 800.498Z" fill="url(#paint7_radial_927_33565)" fill-opacity="0.15"/>
<path d="M1085.43 800.498C1068.58 672.499 1032.94 533.566 1001.18 450.592C970.071 366.975 887.763 350.252 810.639 350.252H469.093C391.969 350.252 309.661 366.975 278.552 450.592C247.444 534.21 211.798 672.499 194.3 800.498C184.578 864.176 231.241 902.768 272.719 907.271C314.197 911.773 364.101 896.336 388.729 833.302C413.356 770.91 423.726 717.524 475.573 717.524C519.644 717.524 759.44 717.524 803.51 717.524C855.358 717.524 865.728 770.91 890.355 833.302C914.983 895.693 964.886 911.773 1006.36 907.271C1047.84 902.768 1095.15 864.176 1085.43 800.498Z" stroke="url(#paint8_linear_927_33565)" stroke-width="8.27516" stroke-miterlimit="10"/>
<path d="M445.897 475.362H420.064C418.236 475.362 416.754 473.88 416.754 472.052V446.219C416.754 433.915 406.392 423.553 394.087 423.553C381.782 423.553 371.42 433.915 371.42 446.219V472.052C371.42 473.88 369.938 475.362 368.11 475.362H342.276C329.971 475.362 319.609 485.724 319.609 498.029C319.609 510.334 329.971 520.696 342.276 520.696H368.11C369.938 520.696 371.42 522.178 371.42 524.006V549.839C371.42 562.144 381.782 572.506 394.087 572.506C406.392 572.506 416.754 562.144 416.754 549.839V524.006C416.754 522.178 418.236 520.696 420.064 520.696H445.897C458.202 520.696 468.564 510.334 468.564 498.029C468.564 485.724 458.85 475.362 445.897 475.362Z" stroke="#7FCFFF" stroke-width="4.9651" stroke-miterlimit="10"/>
<path opacity="0.5" d="M507.827 679.384C537.077 679.384 560.789 655.673 560.789 626.423C560.789 597.174 537.077 573.462 507.827 573.462C478.577 573.462 454.865 597.174 454.865 626.423C454.865 655.673 478.577 679.384 507.827 679.384Z" stroke="#7FCFFF" stroke-width="1.65503" stroke-miterlimit="10"/>
<path d="M507.452 666.144C529.389 666.144 547.173 648.36 547.173 626.423C547.173 604.486 529.389 586.702 507.452 586.702C485.514 586.702 467.73 604.486 467.73 626.423C467.73 648.36 485.514 666.144 507.452 666.144Z" stroke="#7FCFFF" stroke-width="4.9651" stroke-miterlimit="10"/>
<path d="M639.859 656.214C656.312 656.214 669.65 642.876 669.65 626.423C669.65 609.97 656.312 596.633 639.859 596.633C623.406 596.633 610.068 609.97 610.068 626.423C610.068 642.876 623.406 656.214 639.859 656.214Z" stroke="#7FCFFF" stroke-width="3.31006" stroke-miterlimit="10"/>
<path d="M632.245 623.759C641.56 619.558 649.701 622.091 654.049 624.213C654.457 624.412 654.945 624.206 655.089 623.776L656.361 619.96C656.51 619.514 656.305 619.028 655.881 618.821C650.514 616.2 637.772 612.018 623.703 621.919C623.338 622.176 623.209 622.656 623.39 623.063L626.36 629.746C626.559 630.197 627.074 630.415 627.537 630.246C630.935 629.001 636.074 627.694 641.402 628.463C637.797 629.074 634.9 630.346 632.675 631.711C632.277 631.955 632.12 632.454 632.305 632.881C632.305 632.881 633.486 635.583 634.131 637.062C634.291 637.431 634.776 637.516 635.053 637.225C635.736 636.503 636.494 635.978 637.108 635.621C639.986 633.95 643.963 632.713 649.342 632.997C649.762 633.019 650.146 632.757 650.278 632.358L651.638 628.281C651.773 627.873 651.616 627.424 651.253 627.194C647.264 624.673 641.122 622.573 632.221 623.769L632.245 623.759Z" fill="#7FCFFF"/>
<path opacity="0.5" d="M772.26 679.383C801.509 679.383 825.221 655.672 825.221 626.422C825.221 597.173 801.509 573.462 772.26 573.462C743.01 573.462 719.299 597.173 719.299 626.422C719.299 655.672 743.01 679.383 772.26 679.383Z" stroke="#7FCFFF" stroke-width="1.65503" stroke-miterlimit="10"/>
<path d="M772.648 666.552C794.586 666.552 812.369 648.768 812.369 626.831C812.369 604.895 794.586 587.111 772.648 587.111C750.711 587.111 732.928 604.895 732.928 626.831C732.928 648.768 750.711 666.552 772.648 666.552Z" stroke="#7FCFFF" stroke-width="4.9651" stroke-miterlimit="10"/>
<path d="M550.817 450.308C559.71 450.308 567.036 442.761 567.036 433.758C567.036 424.754 559.71 417.208 550.817 417.208H526.984C518.091 417.208 510.765 424.754 510.765 433.758C510.765 442.761 518.091 450.308 526.984 450.308H550.817Z" stroke="#7FCFFF" stroke-width="3.31006" stroke-miterlimit="10"/>
<path d="M532.28 433.612C532.28 435.44 530.798 436.922 528.97 436.922C527.142 436.922 525.66 435.44 525.66 433.612C525.66 431.784 527.142 430.302 528.97 430.302C530.798 430.302 532.28 431.784 532.28 433.612Z" fill="#7FCFFF"/>
<path d="M542.21 433.612C542.21 435.44 540.729 436.922 538.9 436.922C537.072 436.922 535.59 435.44 535.59 433.612C535.59 431.784 537.072 430.302 538.9 430.302C540.729 430.302 542.21 431.784 542.21 433.612Z" fill="#7FCFFF"/>
<path d="M552.141 433.612C552.141 435.44 550.659 436.922 548.831 436.922C547.003 436.922 545.521 435.44 545.521 433.612C545.521 431.784 547.003 430.302 548.831 430.302C550.659 430.302 552.141 431.784 552.141 433.612Z" fill="#7FCFFF"/>
<path d="M576.967 518.871C587.936 518.871 596.827 509.979 596.827 499.011C596.827 488.042 587.936 479.15 576.967 479.15C565.999 479.15 557.107 488.042 557.107 499.011C557.107 509.979 565.999 518.871 576.967 518.871Z" stroke="#7FCFFF" stroke-width="3.31006" stroke-miterlimit="10"/>
<path d="M586.139 496.089C585.737 496.089 585.391 495.953 585.101 495.679C584.828 495.389 584.691 495.044 584.691 494.641C584.691 494.239 584.828 493.901 585.101 493.628C585.391 493.338 585.737 493.193 586.139 493.193C586.541 493.193 586.879 493.338 587.153 493.628C587.442 493.901 587.587 494.239 587.587 494.641C587.587 495.044 587.442 495.389 587.153 495.679C586.879 495.953 586.541 496.089 586.139 496.089ZM581.795 500.917C580.99 500.917 580.306 500.635 579.743 500.072C579.18 499.509 578.898 498.825 578.898 498.02C578.898 497.216 579.18 496.532 579.743 495.969C580.306 495.406 580.99 495.124 581.795 495.124C582.599 495.124 583.283 495.406 583.846 495.969C584.409 496.532 584.691 497.216 584.691 498.02C584.691 498.825 584.409 499.509 583.846 500.072C583.283 500.635 582.599 500.917 581.795 500.917ZM581.795 508.64C580.861 508.64 580.065 508.31 579.405 507.651C578.745 506.991 578.416 506.194 578.416 505.261C578.416 504.328 578.745 503.531 579.405 502.872C580.065 502.212 580.861 501.882 581.795 501.882C582.728 501.882 583.524 502.212 584.184 502.872C584.844 503.531 585.174 504.328 585.174 505.261C585.174 506.194 584.844 506.991 584.184 507.651C583.524 508.31 582.728 508.64 581.795 508.64ZM572.14 500.917C570.531 500.917 569.164 500.353 568.037 499.227C566.911 498.101 566.348 496.733 566.348 495.124C566.348 493.515 566.911 492.147 568.037 491.021C569.164 489.895 570.531 489.331 572.14 489.331C573.749 489.331 575.117 489.895 576.243 491.021C577.37 492.147 577.933 493.515 577.933 495.124C577.933 496.733 577.37 498.101 576.243 499.227C575.117 500.353 573.749 500.917 572.14 500.917Z" fill="#7FCFFF"/>
<path d="M702.225 518.871C713.194 518.871 722.085 509.979 722.085 499.01C722.085 488.042 713.194 479.15 702.225 479.15C691.256 479.15 682.364 488.042 682.364 499.01C682.364 509.979 691.256 518.871 702.225 518.871Z" stroke="#7FCFFF" stroke-width="3.31006" stroke-miterlimit="10"/>
<path d="M693.232 507.675V501.561H695.405V505.502H699.346V507.675H693.232ZM693.232 496.379V490.297H699.346V492.469H695.405V496.379H693.232ZM704.528 507.675V505.502H708.438V501.561H710.61V507.675H704.528ZM708.438 496.379V492.469H704.528V490.297H710.61V496.379H708.438Z" fill="#7FCFFF"/>
<path d="M752.627 450.308C761.52 450.308 768.847 442.761 768.847 433.758C768.847 424.754 761.52 417.208 752.627 417.208H728.795C719.902 417.208 712.575 424.754 712.575 433.758C712.575 442.761 719.902 450.308 728.795 450.308H752.627Z" stroke="#7FCFFF" stroke-width="3.31006" stroke-miterlimit="10"/>
<path d="M730.264 440.646V438.536H751.365V440.646H730.264ZM730.264 434.667V432.557H751.365V434.667H730.264ZM730.264 428.688V426.578H751.365V428.688H730.264Z" fill="#7FCFFF"/>
<path d="M893.697 581.737C909.236 581.737 921.833 569.141 921.833 553.602C921.833 538.063 909.236 525.466 893.697 525.466C878.159 525.466 865.562 538.063 865.562 553.602C865.562 569.141 878.159 581.737 893.697 581.737Z" stroke="#7FCFFF" stroke-width="3.31006" stroke-miterlimit="10"/>
<path d="M885.496 562.704L892.646 543.744H895.956L903.132 562.704H899.928L898.18 557.832H890.448L888.7 562.704H885.496ZM897.2 555.131L895.109 549.332L894.394 547.16H894.235L893.52 549.332L891.428 555.131H897.2Z" fill="#7FCFFF"/>
<path d="M837.635 525.404C853.174 525.404 865.77 512.807 865.77 497.268C865.77 481.729 853.174 469.133 837.635 469.133C822.096 469.133 809.499 481.729 809.499 497.268C809.499 512.807 822.096 525.404 837.635 525.404Z" stroke="#7FCFFF" stroke-width="3.31006" stroke-miterlimit="10"/>
<path d="M829.783 487.473H833.358L837.568 494.279H837.727L841.964 487.473H845.512L839.607 496.583L845.936 506.433H842.388L837.727 499.045H837.568L832.908 506.433H829.359L835.688 496.583L829.783 487.473Z" fill="#7FCFFF"/>
<path d="M893.697 469.195C909.236 469.195 921.833 456.598 921.833 441.06C921.833 425.521 909.236 412.924 893.697 412.924C878.159 412.924 865.562 425.521 865.562 441.06C865.562 456.598 878.159 469.195 893.697 469.195Z" stroke="#7FCFFF" stroke-width="3.31006" stroke-miterlimit="10"/>
<path d="M892.525 450.089V441.298L886.117 431.129H889.56L893.876 438.279H894.035L898.245 431.129H901.714L895.412 441.298V450.089H892.525Z" fill="#7FCFFF"/>
<path d="M950.176 525.404C965.715 525.404 978.311 512.807 978.311 497.268C978.311 481.729 965.715 469.133 950.176 469.133C934.637 469.133 922.04 481.729 922.04 497.268C922.04 512.807 934.637 525.404 950.176 525.404Z" stroke="#7FCFFF" stroke-width="3.31006" stroke-miterlimit="10"/>
<path d="M944.445 506.433V487.473H951.542C952.584 487.473 953.528 487.694 954.376 488.135C955.223 488.577 955.894 489.177 956.388 489.936C956.9 490.695 957.156 491.551 957.156 492.505C957.156 493.476 956.918 494.305 956.441 494.994C955.964 495.682 955.346 496.203 954.587 496.556V496.689C955.541 497.006 956.317 497.554 956.918 498.33C957.518 499.107 957.818 500.034 957.818 501.111C957.818 502.17 957.544 503.097 956.997 503.891C956.467 504.686 955.744 505.312 954.826 505.771C953.925 506.213 952.937 506.433 951.86 506.433H944.445ZM947.358 498.039V503.732H951.86C952.495 503.732 953.043 503.6 953.502 503.335C953.961 503.07 954.305 502.717 954.534 502.276C954.782 501.835 954.905 501.376 954.905 500.899C954.905 500.387 954.782 499.919 954.534 499.495C954.287 499.054 953.925 498.701 953.449 498.436C952.99 498.171 952.425 498.039 951.754 498.039H947.358ZM947.358 495.444H951.41C952.028 495.444 952.548 495.32 952.972 495.073C953.413 494.808 953.749 494.473 953.978 494.067C954.208 493.643 954.323 493.211 954.323 492.769C954.323 492.328 954.208 491.913 953.978 491.525C953.766 491.119 953.449 490.792 953.025 490.545C952.601 490.28 952.098 490.148 951.516 490.148H947.358V495.444Z" fill="#7FCFFF"/>
<g filter="url(#filter2_d_927_33565)">
<path d="M612.397 134.38C646.163 119.126 675.677 128.322 691.444 136.027C692.921 136.75 694.694 136.008 695.214 134.444L699.825 120.592C700.365 118.974 699.619 117.204 698.087 116.456C678.628 106.941 632.43 91.7565 581.429 127.702C580.108 128.632 579.637 130.377 580.295 131.857L591.063 156.12C591.789 157.752 593.65 158.549 595.329 157.934C607.649 153.415 626.282 148.67 645.594 151.463C632.523 153.68 622.02 158.298 613.953 163.255C612.515 164.14 611.945 165.949 612.618 167.503C612.618 167.503 616.899 177.313 619.236 182.683C619.821 184.021 621.578 184.335 622.58 183.273C625.06 180.652 627.804 178.744 630.034 177.446C640.467 171.378 654.888 166.889 674.386 167.921C675.908 168 677.298 167.051 677.784 165.6L682.713 150.799C683.204 149.319 682.635 147.686 681.319 146.855C666.859 137.704 644.592 130.077 612.323 134.419L612.397 134.38Z" fill="#7FCFFF"/>
</g>
</g>
<defs>
<filter id="filter0_d_927_33565" x="43.4648" y="-142.707" width="1193.07" height="1193.87" filterUnits="userSpaceOnUse" color-interpolation-filters="sRGB">
<feFlood flood-opacity="0" result="BackgroundImageFix"/>
<feColorMatrix in="SourceAlpha" type="matrix" values="0 0 0 0 0 0 0 0 0 0 0 0 0 0 0 0 0 0 127 0" result="hardAlpha"/>
<feOffset/>
<feGaussianBlur stdDeviation="100"/>
<feComposite in2="hardAlpha" operator="out"/>
<feColorMatrix type="matrix" values="0 0 0 0 0 0 0 0 0 0 0 0 0 0 0 0 0 0 0.1 0"/>
<feBlend mode="normal" in2="BackgroundImageFix" result="effect1_dropShadow_927_33565"/>
<feBlend mode="normal" in="SourceGraphic" in2="effect1_dropShadow_927_33565" result="shape"/>
</filter>
<filter id="filter1_d_927_33565" x="203.365" y="17.9957" width="871.664" height="871.664" filterUnits="userSpaceOnUse" color-interpolation-filters="sRGB">
<feFlood flood-opacity="0" result="BackgroundImageFix"/>
<feColorMatrix in="SourceAlpha" type="matrix" values="0 0 0 0 0 0 0 0 0 0 0 0 0 0 0 0 0 0 127 0" result="hardAlpha"/>
<feOffset/>
<feGaussianBlur stdDeviation="100"/>
<feComposite in2="hardAlpha" operator="out"/>
<feColorMatrix type="matrix" values="0 0 0 0 0 0 0 0 0 0 0 0 0 0 0 0 0 0 0.1 0"/>
<feBlend mode="normal" in2="BackgroundImageFix" result="effect1_dropShadow_927_33565"/>
<feBlend mode="normal" in="SourceGraphic" in2="effect1_dropShadow_927_33565" result="shape"/>
</filter>
<filter id="filter2_d_927_33565" x="460" y="-15" width="360" height="318.91" filterUnits="userSpaceOnUse" color-interpolation-filters="sRGB">
<feFlood flood-opacity="0" result="BackgroundImageFix"/>
<feColorMatrix in="SourceAlpha" type="matrix" values="0 0 0 0 0 0 0 0 0 0 0 0 0 0 0 0 0 0 127 0" result="hardAlpha"/>
<feOffset/>
<feGaussianBlur stdDeviation="60"/>
<feComposite in2="hardAlpha" operator="out"/>
<feColorMatrix type="matrix" values="0 0 0 0 0.498039 0 0 0 0 0.811765 0 0 0 0 1 0 0 0 1 0"/>
<feBlend mode="normal" in2="BackgroundImageFix" result="effect1_dropShadow_927_33565"/>
<feBlend mode="normal" in="SourceGraphic" in2="effect1_dropShadow_927_33565" result="shape"/>
</filter>
<linearGradient id="paint0_linear_927_33565" x1="640" y1="0" x2="640" y2="960" gradientUnits="userSpaceOnUse">
<stop stop-color="white"/>
<stop offset="0.359375" stop-color="white" stop-opacity="0"/>
</linearGradient>
<linearGradient id="paint1_linear_927_33565" x1="640" y1="-101" x2="640" y2="1010.26" gradientUnits="userSpaceOnUse">
<stop stop-color="#7FCFFF"/>
<stop offset="1" stop-color="#7FCFFF" stop-opacity="0"/>
</linearGradient>
<linearGradient id="paint2_linear_927_33565" x1="640" y1="57.2925" x2="640" y2="851.166" gradientUnits="userSpaceOnUse">
<stop stop-color="#7FCFFF"/>
<stop offset="1" stop-color="#7FCFFF" stop-opacity="0"/>
</linearGradient>
<linearGradient id="paint3_linear_927_33565" x1="639.197" y1="217.996" x2="639.197" y2="689.659" gradientUnits="userSpaceOnUse">
<stop stop-color="#7FCFFF"/>
<stop offset="1" stop-color="#7FCFFF" stop-opacity="0"/>
</linearGradient>
<linearGradient id="paint4_linear_927_33565" x1="639.5" y1="11" x2="639.5" y2="353" gradientUnits="userSpaceOnUse">
<stop stop-color="#80CFFF" stop-opacity="0"/>
<stop offset="1" stop-color="#7FCFFF"/>
</linearGradient>
<linearGradient id="paint5_linear_927_33565" x1="639.5" y1="11" x2="639.5" y2="353" gradientUnits="userSpaceOnUse">
<stop offset="0.578125" stop-color="#7FCFFF" stop-opacity="0"/>
<stop offset="1" stop-color="#7FCFFF"/>
</linearGradient>
<radialGradient id="paint6_radial_927_33565" cx="0" cy="0" r="1" gradientUnits="userSpaceOnUse" gradientTransform="translate(639.859 350) rotate(90) scale(541.5 683.11)">
<stop stop-color="#7FCFFF"/>
<stop offset="1" stop-color="#7FCFFF" stop-opacity="0"/>
</radialGradient>
<radialGradient id="paint7_radial_927_33565" cx="0" cy="0" r="1" gradientUnits="userSpaceOnUse" gradientTransform="translate(639.859 350) rotate(89.9717) scale(286 428.898)">
<stop stop-color="#7FCFFF"/>
<stop offset="1" stop-color="#7BC6F4" stop-opacity="0"/>
</radialGradient>
<linearGradient id="paint8_linear_927_33565" x1="639.859" y1="350.252" x2="639.859" y2="907.998" gradientUnits="userSpaceOnUse">
<stop stop-color="#7FCFFF"/>
<stop offset="0.708333" stop-color="#2D2D2D"/>
</linearGradient>
<clipPath id="clip0_927_33565">
<rect width="1280" height="960" fill="white"/>
</clipPath>
</defs>
</svg>
