<?xml version="1.0" encoding="UTF-8"?>
<svg xmlns="http://www.w3.org/2000/svg" width="1080" height="1024" viewBox="0 0 1080 1024" fill="none">
  <g id="rocket">
    <g style="filter: drop-shadow(0 0 100px #fff)">
      <path d="M156.45 312.294C159.796 311.661 165.653 310.878 172.751 306.78C179.849 302.682 183.734 297.841 186.094 295.179" stroke="#7FCFFF" stroke-width="3.47439" />
      <path d="M181.762 356.134C185.108 355.501 190.964 354.717 198.062 350.619C205.16 346.522 209.045 341.68 211.406 339.019" stroke="#7FCFFF" stroke-width="3.47439" />
      <path d="M215.508 360.029L198.319 369.953C197.144 370.631 195.679 370.571 194.632 369.71C188.387 364.577 175.511 351.097 162.264 328.153C149.1 305.352 149.111 283.591 151.185 272.966C151.536 271.163 153.344 270.119 155.081 270.716C165.32 274.233 184.171 285.103 197.335 307.904C210.582 330.848 215.818 348.74 217.141 356.714C217.363 358.052 216.682 359.351 215.508 360.029Z" stroke="white" stroke-width="3.47439" />
      <circle cx="182.153" cy="323.063" r="10.3156" transform="rotate(-30 182.153 323.063)" stroke="white" stroke-width="3.47439" />
      <path d="M156.543 280.763C156.329 283.037 156.2 288.894 157.397 294.131" stroke="white" stroke-width="2.6058" stroke-linecap="round" />
      <path d="M197.937 362.938L208.735 357.17C210.013 356.487 210.716 355.082 210.314 353.689C209.805 351.924 209.129 350.024 208.999 349.315" stroke="white" stroke-width="2.6058" stroke-linecap="round" />
      <path d="M228.435 334.568C226.151 331.604 215.075 325.775 208.416 323.442C207.081 322.975 206.027 324.233 206.62 325.491L210.181 333.044L214.055 343.611L216.765 354.694C216.863 355.097 217.107 355.456 217.451 355.704L237.13 369.882C238.606 370.946 240.777 369.33 240.173 367.648C236.126 356.379 230.644 337.434 228.435 334.568Z" stroke="white" stroke-width="2.6058" stroke-linecap="round" stroke-linejoin="round" />
      <path d="M169.502 368.593C168.077 365.134 168.567 352.627 169.876 345.694C170.139 344.304 171.755 344.021 172.548 345.163L177.309 352.023L184.524 360.661L192.767 368.55C193.067 368.837 193.255 369.227 193.298 369.649L195.738 393.781C195.921 395.591 193.436 396.663 192.282 395.299C184.546 386.16 170.88 371.94 169.502 368.593Z" stroke="white" stroke-width="2.6058" stroke-linecap="round" stroke-linejoin="round" />
    </g>
    <path d="M217.899 371.634C231.398 384.49 266.978 412.999 301.304 424.184" stroke="white" stroke-width="2.6058" stroke-linecap="round" />
    <path d="M218.864 385.133C227.06 395.096 248.466 418.302 268.522 431.415" stroke="#7FCFFF" stroke-width="2.6058" stroke-linecap="round" />
    <path d="M197.713 275.357L199.335 265.902L189.833 263.954L188.21 273.409L197.713 275.357Z" fill="#7FCFFF" />
    <path d="M269.116 365.484L268.026 371.838L261.619 370.524L262.71 364.17L269.116 365.484Z" stroke="#7FCFFF" stroke-width="2.58957" />
    <path d="M145.207 350.436L143.134 355.907C141.668 355.307 140.017 356.044 139.447 357.548C138.87 359.059 139.601 360.771 141.06 361.372L138.987 366.843C134.603 365.035 132.423 359.89 134.139 355.364C135.849 350.839 140.816 348.629 145.207 350.436Z" fill="#E8EAED" />
    <path d="M120.748 273.353L117.381 269.362L117.381 269.362L117.374 269.354C116.987 268.906 116.455 268.734 115.963 268.688L115.887 268.681L115.81 268.687L110.714 269.055L113.316 264.879C113.484 264.65 113.608 264.368 113.628 264.038C113.648 263.708 113.56 263.406 113.422 263.148L111.359 258.54L116.3 259.83C116.678 259.966 117.023 259.911 117.26 259.837C117.482 259.767 117.688 259.654 117.809 259.587C117.817 259.583 117.824 259.579 117.83 259.575L117.915 259.529L117.988 259.465L121.804 256.141L122.251 261.211C122.249 261.804 122.591 262.401 123.165 262.685L127.501 265.324L122.892 267.134C122.29 267.309 121.879 267.836 121.809 268.423L120.748 273.353Z" fill="#00E0BA" stroke="#00E0BA" stroke-width="1.87347" />
    <path d="M155.87 226.732L152.747 227.958C152.575 227.998 152.453 228.156 152.442 228.323L151.732 231.626C151.648 232.067 151.077 232.183 150.76 231.816L148.55 229.197C148.445 229.075 148.28 229.004 148.055 228.983L144.653 229.229C144.201 229.243 143.892 228.765 144.14 228.395L145.893 225.582C146.016 225.425 146.026 225.258 145.924 225.08L144.534 221.975C144.333 221.564 144.701 221.092 145.143 221.246L148.477 222.116C148.642 222.188 148.817 222.092 148.992 221.996L151.497 219.814C151.854 219.51 152.405 219.729 152.434 220.181L152.733 223.578C152.723 223.745 152.825 223.923 152.99 223.994L155.929 225.783C156.311 225.987 156.277 226.545 155.87 226.732Z" fill="white" />
    <path d="M247.327 303.588L246.687 306.563L244.652 304.152L244.652 304.152L244.647 304.146C244.394 303.853 244.047 303.742 243.733 303.713L243.681 303.708L243.63 303.712L240.552 303.934L242.121 301.417C242.229 301.268 242.31 301.083 242.324 300.867C242.337 300.651 242.279 300.453 242.19 300.286L240.946 297.507L243.927 298.286C244.176 298.375 244.402 298.338 244.555 298.29C244.699 298.245 244.831 298.172 244.906 298.131C244.911 298.128 244.916 298.126 244.92 298.123L244.977 298.092L245.027 298.049L247.332 296.04L247.602 299.1C247.602 299.487 247.825 299.876 248.199 300.063L250.814 301.654L248.035 302.746C247.642 302.861 247.374 303.204 247.327 303.588Z" fill="#00E0BA" stroke="#00E0BA" stroke-width="1.26938" />
    <path d="M91.8158 301.738L92.9795 294.956L86.1639 293.559L85.0002 300.34L91.8158 301.738Z" fill="#7FCFFF" />
  </g>
</svg>
