<svg width="93" height="18" viewBox="0 0 93 18" fill="none" xmlns="http://www.w3.org/2000/svg">
<path d="M7.13782 6.7803C14.5774 3.41955 21.0802 5.44554 24.5539 7.14326C24.8795 7.30252 25.27 7.1389 25.3847 6.79437L26.4005 3.7424C26.5195 3.38596 26.3551 2.99591 26.0175 2.83123C21.7303 0.73482 11.5516 -2.61075 0.314853 5.30901C0.0238468 5.51378 -0.0800068 5.89841 0.0649556 6.22452L2.43736 11.5701C2.59747 11.9298 3.00747 12.1053 3.37745 11.9699C6.09171 10.9742 10.1972 9.92868 14.4519 10.5441C11.5722 11.0327 9.25816 12.05 7.48075 13.1421C7.16378 13.3371 7.03829 13.7358 7.1865 14.0782C7.1865 14.0782 8.12984 16.2396 8.64478 17.4227C8.77351 17.7174 9.1608 17.7867 9.38149 17.5527C9.9278 16.9753 10.5325 16.5549 11.0237 16.2689C13.3225 14.9319 16.4998 13.9428 20.7957 14.1703C21.131 14.1876 21.4372 13.9785 21.5443 13.6589L22.6304 10.3978C22.7386 10.0717 22.6131 9.71204 22.3232 9.52894C19.1372 7.5127 14.2312 5.83232 7.12159 6.78898L7.13782 6.7803Z" fill="url(#paint0_linear_950_14845)"/>
<path d="M48.3362 14.7339H46.8541C46.6215 14.7339 46.4322 14.5442 46.4322 14.3113V5.72957H42.8028C42.5702 5.72957 42.3809 5.53998 42.3809 5.30705V3.9777C42.3809 3.74476 42.5702 3.55518 42.8028 3.55518H52.3865C52.6191 3.55518 52.8084 3.74476 52.8084 3.9777V5.30705C52.8084 5.53998 52.6191 5.72957 52.3865 5.72957H48.757V14.3113C48.7581 14.5442 48.5699 14.7339 48.3362 14.7339Z" fill="#E3E3E3"/>
<path d="M38.7813 14.734H32.1217C31.8891 14.734 31.6998 14.5444 31.6998 14.3114V12.9821C31.6998 12.7491 31.8891 12.5596 32.1217 12.5596H39.1945C39.5829 12.5596 39.8977 12.2443 39.8977 11.8553V10.8901C39.8977 10.5011 39.5829 10.1858 39.1945 10.1858H34.4865C33.1938 10.1858 32.4322 9.95073 31.8566 9.37327C31.3136 8.8294 31.0918 8.13817 31.0918 6.98542V6.75355C31.0918 5.60188 31.3136 4.90958 31.8566 4.3657C32.4322 3.78933 33.1948 3.5542 34.4865 3.5542H40.8064C41.039 3.5542 41.2283 3.74384 41.2283 3.97677V5.30613C41.2283 5.53906 41.039 5.72865 40.8064 5.72865H34.0917C33.7033 5.72865 33.3885 6.04392 33.3885 6.43287V7.33642C33.3885 7.72537 33.7033 8.04064 34.0917 8.04064H38.7824C40.0751 8.04064 40.8367 8.27574 41.4122 8.8532C41.9553 9.39708 42.1771 10.0883 42.1771 11.2411V11.5347C42.1771 12.6863 41.9553 13.3775 41.4122 13.9225C40.8356 14.4978 40.073 14.734 38.7813 14.734Z" fill="#E3E3E3"/>
<path d="M73.6327 4.89104C72.7478 4.0048 71.4225 3.55518 69.6938 3.55518H64.5801C64.3475 3.55518 64.1582 3.74476 64.1582 3.9777V14.3265C64.1582 14.5594 64.3475 14.749 64.5801 14.749H69.6938C71.4225 14.749 72.7467 14.2994 73.6327 13.4131C74.5955 12.4489 74.9363 11.3449 74.9363 9.19111V9.11419C74.9363 6.95927 74.5944 5.85528 73.6327 4.89104ZM72.6104 9.18999C72.6104 10.6234 72.5195 11.3135 71.9591 11.8747C71.5004 12.3352 70.7583 12.5584 69.6938 12.5584H66.4841V5.7437H69.6938C70.7594 5.7437 71.5004 5.96683 71.9591 6.42728C72.5206 6.98958 72.6104 7.67972 72.6104 9.11308V9.18999Z" fill="#E3E3E3"/>
<path d="M78.2829 14.7339H76.8008C76.5682 14.7339 76.3789 14.5442 76.3789 14.3113V3.9777C76.3789 3.74476 76.5682 3.55518 76.8008 3.55518H78.2829C78.5155 3.55518 78.7048 3.74476 78.7048 3.9777V14.3113C78.7048 14.5442 78.5166 14.7339 78.2829 14.7339Z" fill="#E3E3E3"/>
<path d="M63.1763 14.1281L58.4174 4.20619C58.1708 3.70023 57.6472 3.37305 57.0857 3.37305C56.5232 3.37305 56.0006 3.70023 55.7551 4.20402L50.9951 14.1259C50.861 14.4065 51.0644 14.7316 51.3759 14.7316H52.9478C53.1674 14.7316 53.3664 14.6038 53.4584 14.4044L54.18 12.84H59.9958L60.7152 14.4022C60.8071 14.6027 61.0062 14.7305 61.2269 14.7305H62.7977C63.107 14.7337 63.3115 14.4087 63.1763 14.1281ZM57.0933 6.30589L59.0481 10.7717H55.1287L57.0933 6.30589Z" fill="#E3E3E3"/>
<path d="M91.9595 14.128L87.2006 4.20716C86.954 3.70121 86.4304 3.37402 85.8689 3.37402C85.3064 3.37402 84.7839 3.70121 84.5383 4.20499L79.7783 14.1269C79.6442 14.4075 79.8476 14.7325 80.1591 14.7325H81.731C81.9506 14.7325 82.1497 14.6047 82.2416 14.4053L82.9632 12.8409H88.779L89.4984 14.4032C89.5903 14.6036 89.7894 14.7315 90.0101 14.7315H91.5809C91.8892 14.7336 92.0936 14.4086 91.9595 14.128ZM85.8754 6.30575L87.8302 10.7716H83.9108L85.8754 6.30575Z" fill="#E3E3E3"/>
<defs>
<linearGradient id="paint0_linear_950_14845" x1="9.49175" y1="-0.490441" x2="19.337" y2="15.2419" gradientUnits="userSpaceOnUse">
<stop offset="0.0989" stop-color="#FF4C1D"/>
<stop offset="0.2512" stop-color="#F64523"/>
<stop offset="0.4995" stop-color="#DE3334"/>
<stop offset="0.811" stop-color="#B61550"/>
<stop offset="1" stop-color="#9B0063"/>
</linearGradient>
</defs>
</svg>
