<svg width="48" height="32" viewBox="0 0 48 32" fill="none" xmlns="http://www.w3.org/2000/svg" title="Stadia Logo">
  <path class="" fill="url(#logomark-linear-gradient)" d="M12.9587 11.9703C26.4652 5.86884 38.271 9.54703 44.5774 12.6292C45.1686 12.9184 45.8776 12.6213 46.0858 11.9958L47.93 6.45498C48.146 5.80786 47.8475 5.09973 47.2347 4.80076C39.4513 0.994734 20.9719 -5.07914 0.571615 9.29916C0.0432938 9.67091 -0.145252 10.3692 0.117927 10.9613L4.42502 20.6661C4.71569 21.3191 5.46006 21.6377 6.13175 21.3919C11.0595 19.5843 18.5129 17.6861 26.2374 18.8034C21.0092 19.6905 16.8082 21.5374 13.5813 23.5201C13.0058 23.8741 12.778 24.598 13.0471 25.2195C13.0471 25.2195 14.7597 29.1436 15.6946 31.2915C15.9283 31.8265 16.6314 31.9524 17.0321 31.5276C18.0239 30.4792 19.1218 29.716 20.0134 29.1967C24.187 26.7695 29.9553 24.9737 37.7544 25.3867C38.3633 25.4182 38.9191 25.0386 39.1135 24.4583L41.0854 18.5379C41.2818 17.9459 41.054 17.2928 40.5276 16.9604C34.7436 13.2999 25.8368 10.2492 12.9292 11.986L12.9587 11.9703Z"/>
  <defs>
    <linearGradient id="logomark-linear-gradient" x1="1.78814e-07" y1="16.0002" x2="48" y2="16.0002" gradientUnits="userSpaceOnUse">
      <stop stop-color="#F8491B"/>
      <stop offset="0.515625" stop-color="#F12F3F"/>
      <stop offset="1" stop-color="#DC1860"/>
    </linearGradient>
  </defs>
</svg>
